# Blender v2.79 (sub 0) OBJ File: 'pokoj scalone sprzety.blend'
# www.blender.org
mtllib czwarta sciana.mtl
o Cube.047_Cube.038
v -3.239937 0.000000 -5.552370
v -3.239937 2.852003 -5.552370
v 2.074563 0.000000 -5.552370
v 2.074563 2.852003 -5.552370
v -3.239937 2.852003 -5.557388
v -3.239937 0.000000 -5.558142
v -3.239937 1.656132 -5.562722
v -3.239937 1.718124 -5.562722
v -3.239922 0.000000 -5.562369
v -3.239922 2.852003 -5.562369
v 2.074578 0.000000 -5.562369
v 2.074578 2.852003 -5.562369
v -3.239922 2.852003 -5.567388
v -3.239922 0.000000 -5.568142
v -3.239922 1.656132 -5.572721
v -3.239922 1.718124 -5.572721
vt 0.686495 0.001741
vt 0.697093 0.001741
vt 0.492664 0.926968
vt 0.489245 0.926965
vt 0.206138 0.926968
vt 0.489245 0.001741
vt 0.986315 0.001744
vt 0.984606 0.926966
vt 0.984606 0.001741
vt 0.992302 0.926966
vt 0.990592 0.001744
vt 0.992302 0.001741
vt 0.991444 0.001741
vt 0.989734 0.001744
vt 0.995721 0.501741
vt 0.997430 0.998259
vt 0.995721 0.998259
vt 0.997430 0.300857
vt 0.995723 0.290064
vt 0.997433 0.290065
vt 0.986315 0.926969
vt 0.983619 0.926966
vt 0.996581 0.001741
vt 0.998290 0.001741
vt 0.996581 0.498259
vt 0.995721 0.300857
vt 0.980200 0.001744
vt 0.980200 0.926968
vt 0.492664 0.001744
vt 0.492664 0.001742
vt 0.980200 0.001742
vt 0.001709 0.001741
vt 0.489245 0.926966
vt 0.195541 0.926968
vt 0.001710 0.926965
vt 0.001710 0.926966
vt 0.990592 0.926969
vt 0.997430 0.501741
vt 0.985329 0.926969
vt 0.998291 0.498259
vn -0.0019 0.0000 1.0000
vn 0.0000 -0.0063 -1.0000
vn 0.0000 -1.0000 0.0000
vn 0.0000 1.0000 0.0001
vn 0.0000 1.0000 0.0000
vn 1.0000 0.0000 0.0015
vn -1.0000 0.0000 -0.0015
vn 0.0000 0.0063 1.0000
vn -1.0000 0.0000 0.0000
vn 0.0000 -0.0091 1.0000
vn 0.0019 0.0000 -1.0000
vn 1.0000 0.0000 0.0000
vn 0.0000 0.0091 -1.0000
usemtl None
s off
f 8/1/1 7/2/1 4/3/1
f 9/4/2 15/5/2 11/6/2
f 3/7/3 9/8/3 11/9/3
f 4/10/4 10/11/4 2/12/4
f 5/13/5 10/11/5 13/14/5
f 3/15/6 12/16/6 4/17/6
f 8/18/7 15/19/7 7/20/7
f 1/21/3 14/22/3 9/8/3
f 7/20/7 14/23/7 6/24/7
f 8/18/7 13/25/7 16/26/7
f 1/27/8 3/28/8 7/2/8
f 2/29/9 5/30/9 8/1/9
f 3/28/1 4/3/1 7/2/1
f 7/2/9 6/31/9 1/27/9
f 2/29/10 8/1/10 4/3/10
f 12/32/11 11/6/11 15/5/11
f 9/4/12 14/33/12 15/5/12
f 15/5/11 16/34/11 12/32/11
f 10/35/13 12/32/13 16/34/13
f 16/34/12 13/36/12 10/35/12
f 3/7/3 1/21/3 9/8/3
f 4/10/5 12/37/5 10/11/5
f 5/13/5 2/12/5 10/11/5
f 3/15/6 11/38/6 12/16/6
f 8/18/7 16/26/7 15/19/7
f 1/21/3 6/39/3 14/22/3
f 7/20/7 15/19/7 14/23/7
f 8/18/7 5/40/7 13/25/7
