# Blender v2.79 (sub 0) OBJ File: 'pokoj scalone sprzety.blend'
# www.blender.org
mtllib gwozdz5.mtl
o Cylinder.020
v -3.254285 1.348288 -0.664504
v -3.254272 1.348237 -0.664780
v -3.254232 1.348141 -0.665041
v -3.254167 1.348002 -0.665277
v -3.254080 1.347826 -0.665479
v -3.253974 1.347620 -0.665638
v -3.253852 1.347392 -0.665750
v -3.253721 1.347151 -0.665809
v -3.253584 1.346905 -0.665813
v -3.253447 1.346665 -0.665762
v -3.253316 1.346439 -0.665658
v -3.253195 1.346236 -0.665506
v -3.253088 1.346064 -0.665310
v -3.253001 1.345930 -0.665079
v -3.252936 1.345838 -0.664821
v -3.252896 1.345793 -0.664546
v -3.252883 1.345796 -0.664265
v -3.252896 1.345846 -0.663989
v -3.252936 1.345943 -0.663728
v -3.253001 1.346081 -0.663492
v -3.168434 1.393469 -0.667805
v -3.253088 1.346257 -0.663290
v -3.253195 1.346463 -0.663131
v -3.253316 1.346691 -0.663019
v -3.253447 1.346933 -0.662960
v -3.253584 1.347178 -0.662956
v -3.253721 1.347419 -0.663007
v -3.253852 1.347645 -0.663110
v -3.253974 1.347848 -0.663263
v -3.254080 1.348019 -0.663459
v -3.169513 1.395365 -0.668205
v -3.254167 1.348154 -0.663690
v -3.254232 1.348245 -0.663948
v -3.254272 1.348290 -0.664223
v -3.170607 1.394955 -0.668966
v -3.170594 1.394905 -0.669243
v -3.170554 1.394808 -0.669504
v -3.170489 1.394669 -0.669740
v -3.170402 1.394494 -0.669941
v -3.170295 1.394288 -0.670101
v -3.170174 1.394060 -0.670212
v -3.170043 1.393818 -0.670271
v -3.169906 1.393573 -0.670276
v -3.169769 1.393332 -0.670225
v -3.169637 1.393106 -0.670121
v -3.169516 1.392903 -0.669969
v -3.169410 1.392731 -0.669773
v -3.169323 1.392597 -0.669542
v -3.169258 1.392506 -0.669284
v -3.169218 1.392460 -0.669009
v -3.169204 1.392463 -0.668728
v -3.169218 1.392514 -0.668452
v -3.169258 1.392610 -0.668190
v -3.169323 1.392749 -0.667955
v -3.169410 1.392925 -0.667753
v -3.169516 1.393130 -0.667593
v -3.169637 1.393358 -0.667482
v -3.169769 1.393600 -0.667423
v -3.169906 1.393846 -0.667419
v -3.170043 1.394086 -0.667470
v -3.170174 1.394312 -0.667573
v -3.170295 1.394515 -0.667726
v -3.170402 1.394687 -0.667921
v -3.170489 1.394821 -0.668153
v -3.170554 1.394913 -0.668411
v -3.170594 1.394958 -0.668685
v -3.171239 1.398353 -0.669291
v -3.171195 1.398186 -0.670200
v -3.172171 1.397642 -0.670149
v -3.171064 1.397868 -0.671059
v -3.172040 1.397324 -0.671009
v -3.170851 1.397411 -0.671836
v -3.171827 1.396868 -0.671785
v -3.170564 1.396833 -0.672499
v -3.171540 1.396289 -0.672448
v -3.170215 1.396156 -0.673024
v -3.171191 1.395612 -0.672973
v -3.169816 1.395406 -0.673391
v -3.170792 1.394862 -0.673340
v -3.169383 1.394611 -0.673585
v -3.170359 1.394067 -0.673534
v -3.168932 1.393802 -0.673599
v -3.169908 1.393259 -0.673548
v -3.168482 1.393011 -0.673432
v -3.169458 1.392467 -0.673381
v -3.168048 1.392268 -0.673091
v -3.169024 1.391724 -0.673040
v -3.167649 1.391601 -0.672589
v -3.168625 1.391057 -0.672538
v -3.167299 1.391036 -0.671945
v -3.168275 1.390492 -0.671894
v -3.167011 1.390594 -0.671184
v -3.167987 1.390050 -0.671133
v -3.166797 1.390293 -0.670335
v -3.167773 1.389749 -0.670284
v -3.166665 1.390144 -0.669431
v -3.167642 1.389601 -0.669380
v -3.166620 1.390154 -0.668507
v -3.167597 1.389610 -0.668456
v -3.166664 1.390320 -0.667597
v -3.167641 1.389777 -0.667546
v -3.166795 1.390638 -0.666738
v -3.167772 1.390094 -0.666687
v -3.167008 1.391095 -0.665962
v -3.167984 1.390551 -0.665911
v -3.167295 1.391673 -0.665298
v -3.168271 1.391129 -0.665247
v -3.167645 1.392350 -0.664773
v -3.168621 1.391807 -0.664722
v -3.168044 1.393101 -0.664406
v -3.169020 1.392557 -0.664356
v -3.168477 1.393896 -0.664213
v -3.169453 1.393352 -0.664162
v -3.168927 1.394704 -0.664199
v -3.169904 1.394160 -0.664148
v -3.169378 1.395495 -0.664365
v -3.170354 1.394951 -0.664315
v -3.169811 1.396239 -0.664706
v -3.170787 1.395695 -0.664656
v -3.170211 1.396906 -0.665209
v -3.171187 1.396362 -0.665158
v -3.170561 1.397471 -0.665852
v -3.171537 1.396927 -0.665802
v -3.170848 1.397912 -0.666613
v -3.171824 1.397369 -0.666563
v -3.171062 1.398213 -0.667462
v -3.172038 1.397669 -0.667411
v -3.171194 1.398362 -0.668366
v -3.172170 1.397818 -0.668315
v -3.172215 1.397809 -0.669240
vt 0.077233 0.784891
vt 0.079004 0.074105
vt 0.079004 0.784891
vt 0.075726 0.074105
vt 0.077233 0.074105
vt 0.259270 0.784892
vt 0.257499 0.074106
vt 0.259270 0.074107
vt 0.257499 0.784892
vt 0.255531 0.074105
vt 0.255531 0.784891
vt 0.253442 0.074105
vt 0.251312 0.784891
vt 0.253442 0.784891
vt 0.249223 0.074105
vt 0.251312 0.074105
vt 0.249223 0.784891
vt 0.247255 0.074106
vt 0.247255 0.784892
vt 0.245484 0.074107
vt 0.243978 0.784893
vt 0.245484 0.784892
vt 0.412494 0.074105
vt 0.410723 0.784891
vt 0.410723 0.074105
vt 0.414462 0.784891
vt 0.412494 0.784891
vt 0.414462 0.074105
vt 0.416551 0.784891
vt 0.416551 0.074105
vt 0.418681 0.784891
vt 0.420770 0.074105
vt 0.418681 0.074105
vt 0.422738 0.784891
vt 0.420770 0.784891
vt 0.424509 0.074105
vt 0.422738 0.074105
vt 0.426015 0.784891
vt 0.424509 0.784891
vt 0.591254 0.784891
vt 0.589483 0.074106
vt 0.591254 0.074105
vt 0.587515 0.784892
vt 0.589483 0.784892
vt 0.585426 0.784892
vt 0.587515 0.074106
vt 0.583296 0.784892
vt 0.585426 0.074107
vt 0.581207 0.074106
vt 0.583296 0.074107
vt 0.581207 0.784892
vt 0.579239 0.074106
vt 0.577468 0.784891
vt 0.579239 0.784892
vt 0.092525 0.784891
vt 0.091019 0.074105
vt 0.092525 0.074105
vt 0.091019 0.784891
vt 0.089247 0.074105
vt 0.087280 0.784891
vt 0.089247 0.784891
vt 0.085191 0.784891
vt 0.087280 0.074105
vt 0.083061 0.074105
vt 0.085191 0.074105
vt 0.921860 0.922059
vt 0.906567 0.923532
vt 0.905061 0.908568
vt 0.080971 0.784891
vt 0.083061 0.784891
vt 0.080971 0.074105
vt 0.911118 0.750802
vt 0.902647 0.744481
vt 0.911118 0.744465
vt 0.902647 0.737754
vt 0.911118 0.737738
vt 0.902647 0.730895
vt 0.911118 0.730879
vt 0.902647 0.724168
vt 0.911118 0.724152
vt 0.902648 0.717831
vt 0.911118 0.717815
vt 0.902648 0.712128
vt 0.911119 0.712112
vt 0.742724 0.712113
vt 0.751188 0.716962
vt 0.742717 0.716963
vt 0.751183 0.722665
vt 0.742712 0.722666
vt 0.751179 0.729002
vt 0.742709 0.729003
vt 0.751177 0.735729
vt 0.742707 0.735730
vt 0.742707 0.742589
vt 0.751177 0.742588
vt 0.751179 0.749315
vt 0.742709 0.749316
vt 0.742712 0.755653
vt 0.751183 0.755652
vt 0.742717 0.761356
vt 0.751188 0.761355
vt 0.742724 0.766206
vt 0.751194 0.766205
vt 0.902648 0.515510
vt 0.911119 0.509823
vt 0.911118 0.515526
vt 0.902647 0.521847
vt 0.911118 0.521863
vt 0.902647 0.528574
vt 0.911118 0.528590
vt 0.902647 0.535433
vt 0.911118 0.535449
vt 0.902647 0.542161
vt 0.911118 0.542177
vt 0.902648 0.548498
vt 0.911118 0.548514
vt 0.902648 0.554201
vt 0.911119 0.554217
vt 0.751188 0.559052
vt 0.742724 0.563901
vt 0.742717 0.559051
vt 0.751183 0.553348
vt 0.742712 0.553348
vt 0.751179 0.547012
vt 0.742709 0.547011
vt 0.751178 0.540284
vt 0.742707 0.540284
vt 0.751177 0.533425
vt 0.742707 0.533425
vt 0.742709 0.526697
vt 0.751179 0.526698
vt 0.742712 0.520360
vt 0.751183 0.520361
vt 0.742717 0.514657
vt 0.751188 0.514658
vt 0.742724 0.509807
vt 0.751194 0.509808
vt 0.911119 0.756505
vt 0.902648 0.750818
vt 0.767896 0.323690
vt 0.805927 0.304580
vt 0.809821 0.310283
vt 0.777229 0.337358
vt 0.746756 0.343270
vt 0.744074 0.098769
vt 0.768711 0.103916
vt 0.767896 0.105842
vt 0.812504 0.119082
vt 0.787876 0.113940
vt 0.788691 0.112015
vt 0.075726 0.784891
vt 0.243978 0.074108
vt 0.426015 0.074105
vt 0.577468 0.074105
vt 0.906568 0.907094
vt 0.908339 0.905936
vt 0.910306 0.905138
vt 0.912395 0.904732
vt 0.914525 0.904732
vt 0.916615 0.905138
vt 0.918582 0.905936
vt 0.920353 0.907094
vt 0.921860 0.908568
vt 0.923043 0.910301
vt 0.923858 0.912227
vt 0.924274 0.914271
vt 0.924274 0.916355
vt 0.923858 0.918400
vt 0.923043 0.920325
vt 0.920353 0.923532
vt 0.918582 0.924690
vt 0.916615 0.925488
vt 0.914525 0.925895
vt 0.912395 0.925895
vt 0.910306 0.925488
vt 0.908338 0.924690
vt 0.905061 0.922059
vt 0.903878 0.920325
vt 0.903063 0.918400
vt 0.902647 0.916355
vt 0.902647 0.914271
vt 0.903063 0.912227
vt 0.903878 0.910301
vt 0.751194 0.712112
vt 0.902648 0.509807
vt 0.751194 0.563902
vt 0.902648 0.756521
vt 0.812504 0.316620
vt 0.813871 0.323347
vt 0.813871 0.330206
vt 0.812504 0.336933
vt 0.809821 0.343270
vt 0.805927 0.348973
vt 0.800971 0.353823
vt 0.795143 0.357634
vt 0.788668 0.360259
vt 0.781793 0.361597
vt 0.774784 0.361597
vt 0.744074 0.316620
vt 0.746756 0.310283
vt 0.750650 0.304580
vt 0.800971 0.299730
vt 0.788668 0.293294
vt 0.795143 0.295919
vt 0.774784 0.291956
vt 0.781793 0.291956
vt 0.761434 0.295919
vt 0.767910 0.293294
vt 0.755607 0.299730
vt 0.755607 0.353823
vt 0.750650 0.348973
vt 0.744074 0.336933
vt 0.742707 0.330206
vt 0.742707 0.323347
vt 0.767910 0.360259
vt 0.761434 0.357634
vt 0.750650 0.131122
vt 0.769894 0.115674
vt 0.771400 0.117147
vt 0.768711 0.113940
vt 0.746756 0.125419
vt 0.742707 0.105496
vt 0.746756 0.092432
vt 0.750650 0.086729
vt 0.769894 0.102183
vt 0.755607 0.081879
vt 0.761434 0.078068
vt 0.773171 0.099551
vt 0.767910 0.075443
vt 0.775139 0.098753
vt 0.781793 0.074105
vt 0.788668 0.075443
vt 0.781447 0.098753
vt 0.795143 0.078068
vt 0.800971 0.081879
vt 0.785186 0.100709
vt 0.805927 0.086729
vt 0.809821 0.092432
vt 0.787876 0.103916
vt 0.812504 0.098769
vt 0.813871 0.105496
vt 0.788691 0.105842
vt 0.813871 0.112355
vt 0.789106 0.109970
vt 0.783415 0.099551
vt 0.761434 0.139783
vt 0.755607 0.135972
vt 0.774784 0.143746
vt 0.767910 0.142408
vt 0.775139 0.119103
vt 0.788668 0.142408
vt 0.781793 0.143746
vt 0.779358 0.119510
vt 0.800971 0.135972
vt 0.795143 0.139783
vt 0.785186 0.117147
vt 0.809821 0.125419
vt 0.805927 0.131122
vt 0.786692 0.115674
vt 0.777228 0.119510
vt 0.771400 0.100709
vt 0.786692 0.102183
vt 0.789106 0.107886
vt 0.773171 0.118305
vt 0.783415 0.118305
vt 0.781447 0.119103
vt 0.779358 0.098347
vt 0.777228 0.098347
vt 0.744074 0.119082
vt 0.767896 0.112015
vt 0.774784 0.074105
vt 0.742707 0.112355
vt 0.767480 0.109970
vt 0.767480 0.107886
vn -0.4865 0.8548 -0.1806
vn -0.4677 0.8036 -0.3681
vn -0.4312 0.7210 -0.5425
vn -0.3779 0.6110 -0.6956
vn -0.3096 0.4771 -0.8225
vn -0.2307 0.3257 -0.9169
vn -0.1417 0.1611 -0.9767
vn -0.0480 -0.0096 -0.9988
vn 0.0477 -0.1798 -0.9825
vn 0.1420 -0.3433 -0.9284
vn 0.2303 -0.4933 -0.8388
vn 0.3102 -0.6247 -0.7166
vn 0.3780 -0.7320 -0.5668
vn 0.4311 -0.8107 -0.3962
vn 0.4675 -0.8587 -0.2099
vn 0.4864 -0.8736 -0.0151
vn 0.4864 -0.8551 0.1795
vn 0.4679 -0.8037 0.3677
vn 0.4311 -0.7210 0.5426
vn 0.3781 -0.6112 0.6953
vn 0.3106 -0.4777 0.8218
vn 0.2305 -0.3255 0.9170
vn 0.1418 -0.1609 0.9767
vn 0.0477 0.0097 0.9988
vn -0.0480 0.1798 0.9825
vn -0.1420 0.3434 0.9284
vn -0.2304 0.4932 0.8388
vn -0.3098 0.6243 0.7171
vn -0.3779 0.7320 0.5668
vn -0.4312 0.8109 0.3957
vn -0.8723 -0.4867 0.0465
vn -0.4678 0.8587 0.2093
vn -0.4863 0.8737 0.0143
vn -0.4859 0.8739 0.0148
vn -0.4677 0.8587 0.2095
vn -0.4308 0.8109 0.3959
vn -0.3781 0.7315 0.5674
vn -0.3104 0.6240 0.7171
vn -0.2310 0.4929 0.8389
vn -0.1428 0.3431 0.9284
vn -0.0488 0.1792 0.9826
vn 0.0471 0.0091 0.9989
vn 0.1407 -0.1617 0.9768
vn 0.2295 -0.3261 0.9170
vn 0.3091 -0.4780 0.8222
vn 0.3769 -0.6117 0.6955
vn 0.4301 -0.7215 0.5426
vn 0.4670 -0.8039 0.3683
vn 0.4857 -0.8553 0.1804
vn 0.4859 -0.8739 -0.0152
vn 0.4675 -0.8588 -0.2096
vn 0.4309 -0.8108 -0.3960
vn 0.3781 -0.7314 -0.5675
vn 0.3103 -0.6245 -0.7168
vn 0.2310 -0.4930 -0.8388
vn 0.1427 -0.3427 -0.9286
vn 0.0487 -0.1793 -0.9826
vn -0.0469 -0.0091 -0.9989
vn -0.1409 0.1616 -0.9768
vn -0.2294 0.3263 -0.9170
vn -0.3090 0.4778 -0.8223
vn -0.3768 0.6112 -0.6960
vn -0.4301 0.7216 -0.5426
vn -0.4670 0.8037 -0.3688
vn -0.4858 0.8553 -0.1802
vn 0.8724 0.4865 -0.0470
vn 0.8725 0.4863 -0.0473
vn -0.8730 -0.4853 0.0473
vn -0.8711 -0.4888 0.0469
vn -0.4864 0.8548 -0.1811
vn -0.4676 0.8035 -0.3685
vn -0.4310 0.7211 -0.5425
vn -0.3780 0.6113 -0.6953
vn -0.3098 0.4770 -0.8225
vn -0.2305 0.3254 -0.9171
vn -0.1419 0.1610 -0.9767
vn -0.0478 -0.0095 -0.9988
vn 0.0481 -0.1801 -0.9825
vn 0.1418 -0.3431 -0.9285
vn 0.2304 -0.4932 -0.8388
vn 0.3100 -0.6240 -0.7173
vn 0.3778 -0.7317 -0.5673
vn 0.4311 -0.8108 -0.3960
vn 0.4676 -0.8588 -0.2093
vn 0.4866 -0.8735 -0.0138
vn 0.4864 -0.8550 0.1802
vn 0.4676 -0.8031 0.3693
vn 0.4311 -0.7210 0.5424
vn 0.3774 -0.6105 0.6963
vn 0.3097 -0.4771 0.8224
vn 0.2304 -0.3255 0.9170
vn 0.1423 -0.1613 0.9766
vn 0.0481 0.0097 0.9988
vn -0.0477 0.1796 0.9826
vn -0.2304 0.4935 0.8387
vn -0.3099 0.6244 0.7170
vn -0.3778 0.7317 0.5674
vn -0.4310 0.8106 0.3965
vn -0.8702 -0.4903 0.0486
vn -0.8738 -0.4837 0.0501
vn -0.8736 -0.4840 0.0511
vn -0.8736 -0.4843 0.0471
vn -0.8718 -0.4879 0.0435
vn -0.8735 -0.4845 0.0473
vn -0.8705 -0.4899 0.0462
vn -0.8806 -0.4715 0.0475
vn -0.8808 -0.4713 0.0456
vn -0.8714 -0.4883 0.0470
vn -0.8739 -0.4843 0.0416
vn -0.8727 -0.4861 0.0469
vn -0.8731 -0.4859 0.0399
vn -0.8742 -0.4834 0.0453
vn -0.8748 -0.4824 0.0452
vn -0.8706 -0.4899 0.0459
vn -0.8723 -0.4868 0.0461
vn -0.8720 -0.4874 0.0451
vn -0.8722 -0.4869 0.0465
vn -0.8721 -0.4871 0.0467
vn -0.8720 -0.4872 0.0466
vn -0.8730 -0.4856 0.0460
vn -0.8728 -0.4857 0.0469
vn -0.8728 -0.4858 0.0465
vn -0.8723 -0.4866 0.0474
vn -0.8730 -0.4855 0.0469
vn -0.8727 -0.4861 0.0465
vn -0.8717 -0.4878 0.0463
vn -0.8724 -0.4865 0.0466
vn -0.4677 0.8586 0.2097
vn -0.4864 0.8736 0.0160
vn -0.4859 0.8739 0.0147
vn -0.4674 0.8589 0.2095
vn -0.4313 0.8105 0.3963
vn -0.3104 0.6246 0.7166
vn -0.2311 0.4932 0.8387
vn -0.1427 0.3425 0.9286
vn -0.0488 0.1795 0.9825
vn 0.0468 0.0091 0.9989
vn 0.1410 -0.1616 0.9767
vn 0.2293 -0.3259 0.9172
vn 0.3089 -0.4779 0.8223
vn 0.3767 -0.6114 0.6959
vn 0.4300 -0.7218 0.5423
vn 0.4670 -0.8037 0.3689
vn 0.4858 -0.8552 0.1804
vn 0.4860 -0.8738 -0.0148
vn 0.4676 -0.8588 -0.2094
vn 0.4308 -0.8109 -0.3960
vn 0.3779 -0.7319 -0.5671
vn 0.3106 -0.6242 -0.7169
vn 0.2310 -0.4929 -0.8389
vn 0.1426 -0.3429 -0.9285
vn 0.0488 -0.1794 -0.9826
vn -0.1408 0.1616 -0.9768
vn -0.2294 0.3260 -0.9171
vn -0.3090 0.4780 -0.8222
vn -0.3768 0.6117 -0.6956
vn -0.4302 0.7215 -0.5425
vn -0.4667 0.8043 -0.3679
vn 0.8719 0.4873 -0.0471
vn 0.8725 0.4863 -0.0471
vn 0.8726 0.4862 -0.0471
vn 0.8723 0.4867 -0.0472
vn 0.8722 0.4868 -0.0473
vn 0.8721 0.4870 -0.0474
vn 0.8721 0.4870 -0.0470
vn 0.8719 0.4873 -0.0470
vn 0.8722 0.4869 -0.0471
vn 0.8722 0.4869 -0.0472
vn 0.8721 0.4870 -0.0471
vn 0.8723 0.4868 -0.0470
vn 0.8723 0.4866 -0.0471
vn 0.8720 0.4873 -0.0471
vn 0.8723 0.4868 -0.0471
vn 0.8722 0.4868 -0.0470
vn 0.8721 0.4870 -0.0469
vn 0.8722 0.4869 -0.0470
vn 0.8726 0.4862 -0.0472
vn 0.8724 0.4865 -0.0474
vn 0.8721 0.4871 -0.0474
vn 0.8721 0.4871 -0.0471
vn 0.8721 0.4870 -0.0472
vn 0.8719 0.4874 -0.0472
vn 0.8719 0.4874 -0.0474
vn -0.8722 -0.4869 0.0460
vn -0.8722 -0.4869 0.0470
vn -0.8721 -0.4871 0.0473
vn -0.8726 -0.4862 0.0475
vn -0.8726 -0.4861 0.0474
vn -0.8718 -0.4875 0.0473
vn -0.8723 -0.4867 0.0473
vn -0.8723 -0.4867 0.0472
vn -0.8721 -0.4870 0.0471
vn -0.8722 -0.4868 0.0472
vn -0.8725 -0.4863 0.0473
vn -0.8717 -0.4878 0.0477
vn -0.8722 -0.4869 0.0472
vn -0.8720 -0.4871 0.0474
vn -0.8721 -0.4871 0.0474
vn -0.8722 -0.4868 0.0471
vn -0.8722 -0.4869 0.0471
vn -0.8723 -0.4868 0.0474
vn -0.8722 -0.4868 0.0474
vn -0.8725 -0.4863 0.0475
vn -0.8717 -0.4878 0.0473
vn -0.8723 -0.4867 0.0474
vn -0.8723 -0.4867 0.0471
vn -0.8723 -0.4866 0.0475
vn -0.8723 -0.4867 0.0470
vn -0.8725 -0.4864 0.0474
vn -0.8718 -0.4876 0.0464
vn -0.8726 -0.4862 0.0474
vn -0.8726 -0.4861 0.0473
vn -0.8724 -0.4867 0.0463
vn -0.8720 -0.4872 0.0469
vn -0.8728 -0.4859 0.0467
vn -0.8726 -0.4862 0.0471
vn -0.8722 -0.4869 0.0466
vn -0.8731 -0.4854 0.0462
vn -0.8727 -0.4860 0.0468
vn -0.8717 -0.4878 0.0466
vn -0.8727 -0.4859 0.0475
vn -0.8722 -0.4869 0.0467
vn -0.8723 -0.4866 0.0472
vn -0.8736 -0.4843 0.0469
vn -0.8720 -0.4872 0.0471
vn -0.8726 -0.4861 0.0476
vn -0.8712 -0.4886 0.0474
vn -0.8720 -0.4871 0.0473
vn -0.8717 -0.4877 0.0471
vn -0.8720 -0.4872 0.0473
vn -0.8716 -0.4879 0.0473
vn -0.8722 -0.4870 0.0471
vn -0.8722 -0.4868 0.0473
usemtl None
s off
f 36/1/1 1/2/1 35/3/1
f 36/1/2 3/4/2 2/5/2
f 37/6/3 4/7/3 3/8/3
f 38/9/4 5/10/4 4/7/4
f 39/11/5 6/12/5 5/10/5
f 41/13/6 6/12/6 40/14/6
f 41/13/7 8/15/7 7/16/7
f 42/17/8 9/18/8 8/15/8
f 43/19/9 10/20/9 9/18/9
f 45/21/10 10/20/10 44/22/10
f 46/23/11 11/24/11 45/25/11
f 46/23/12 13/26/12 12/27/12
f 47/28/13 14/29/13 13/26/13
f 48/30/14 15/31/14 14/29/14
f 50/32/15 15/31/15 49/33/15
f 50/32/16 17/34/16 16/35/16
f 52/36/17 17/34/17 51/37/17
f 52/36/18 19/38/18 18/39/18
f 53/40/19 20/41/19 19/42/19
f 55/43/20 20/41/20 54/44/20
f 56/45/21 22/46/21 55/43/21
f 57/47/22 23/48/22 56/45/22
f 57/47/23 25/49/23 24/50/23
f 58/51/24 26/52/24 25/49/24
f 60/53/25 26/52/25 59/54/25
f 60/55/26 28/56/26 27/57/26
f 61/58/27 29/59/27 28/56/27
f 63/60/28 29/59/28 62/61/28
f 64/62/29 30/63/29 63/60/29
f 64/62/30 33/64/30 32/65/30
f 17/66/31 26/67/31 1/68/31
f 66/69/32 33/64/32 65/70/32
f 66/69/33 1/2/33 34/71/33
f 67/72/34 129/73/34 128/74/34
f 128/74/35 127/75/35 126/76/35
f 126/76/36 125/77/36 124/78/36
f 124/78/37 123/79/37 122/80/37
f 122/80/38 121/81/38 120/82/38
f 120/82/39 119/83/39 118/84/39
f 118/85/40 117/86/40 116/87/40
f 116/87/41 115/88/41 114/89/41
f 114/89/42 113/90/42 112/91/42
f 112/91/43 111/92/43 110/93/43
f 108/94/44 111/92/44 109/95/44
f 108/94/45 107/96/45 106/97/45
f 104/98/46 107/96/46 105/99/46
f 102/100/47 105/99/47 103/101/47
f 100/102/48 103/101/48 101/103/48
f 98/104/49 101/105/49 99/106/49
f 96/107/50 99/106/50 97/108/50
f 94/109/51 97/108/51 95/110/51
f 92/111/52 95/110/52 93/112/52
f 90/113/53 93/112/53 91/114/53
f 88/115/54 91/114/54 89/116/54
f 86/117/55 89/116/55 87/118/55
f 84/119/56 87/120/56 85/121/56
f 82/122/57 85/121/57 83/123/57
f 80/124/58 83/123/58 81/125/58
f 78/126/59 81/125/59 79/127/59
f 76/128/60 79/127/60 77/129/60
f 76/128/61 75/130/61 74/131/61
f 74/131/62 73/132/62 72/133/62
f 72/133/63 71/134/63 70/135/63
f 70/135/64 69/136/64 68/137/64
f 68/138/65 130/139/65 67/72/65
f 21/140/66 84/141/66 82/142/66
f 21/140/67 31/143/67 114/144/67
f 75/145/68 40/146/68 39/147/68
f 107/148/69 56/149/69 55/150/69
f 36/1/70 2/5/70 1/2/70
f 36/1/71 37/151/71 3/4/71
f 37/6/72 38/9/72 4/7/72
f 38/9/73 39/11/73 5/10/73
f 39/11/74 40/14/74 6/12/74
f 41/13/75 7/16/75 6/12/75
f 41/13/76 42/17/76 8/15/76
f 42/17/77 43/19/77 9/18/77
f 43/19/78 44/22/78 10/20/78
f 45/21/79 11/152/79 10/20/79
f 46/23/80 12/27/80 11/24/80
f 46/23/81 47/28/81 13/26/81
f 47/28/82 48/30/82 14/29/82
f 48/30/83 49/33/83 15/31/83
f 50/32/84 16/35/84 15/31/84
f 50/32/85 51/37/85 17/34/85
f 52/36/86 18/39/86 17/34/86
f 52/36/87 53/153/87 19/38/87
f 53/40/88 54/44/88 20/41/88
f 55/43/89 22/46/89 20/41/89
f 56/45/90 23/48/90 22/46/90
f 57/47/91 24/50/91 23/48/91
f 57/47/92 58/51/92 25/49/92
f 58/51/93 59/54/93 26/52/93
f 60/53/94 27/154/94 26/52/94
f 60/55/26 61/58/26 28/56/26
f 61/58/95 62/61/95 29/59/95
f 63/60/96 30/63/96 29/59/96
f 64/62/97 32/65/97 30/63/97
f 64/62/98 65/70/98 33/64/98
f 1/68/99 2/155/99 3/156/99
f 3/156/100 4/157/100 5/158/100
f 5/158/101 6/159/101 7/160/101
f 7/160/102 8/161/102 9/162/102
f 9/162/103 10/163/103 11/164/103
f 11/164/104 12/165/104 13/166/104
f 13/166/105 14/167/105 15/168/105
f 15/168/106 16/169/106 17/66/106
f 17/66/107 18/170/107 19/171/107
f 19/171/108 20/172/108 22/173/108
f 22/173/109 23/174/109 24/175/109
f 24/175/110 25/176/110 26/67/110
f 26/67/111 27/177/111 28/178/111
f 28/178/112 29/179/112 30/180/112
f 30/180/113 32/181/113 33/182/113
f 33/182/114 34/183/114 1/68/114
f 1/68/115 3/156/115 9/162/115
f 5/158/116 7/160/116 9/162/116
f 9/162/117 11/164/117 17/66/117
f 13/166/118 15/168/118 17/66/118
f 17/66/119 19/171/119 22/173/119
f 22/173/120 24/175/120 17/66/120
f 26/67/121 28/178/121 1/68/121
f 30/180/122 33/182/122 1/68/122
f 3/156/123 5/158/123 9/162/123
f 11/164/124 13/166/124 17/66/124
f 17/66/125 24/175/125 26/67/125
f 28/178/126 30/180/126 1/68/126
f 1/68/127 9/162/127 17/66/127
f 66/69/128 34/71/128 33/64/128
f 66/69/129 35/3/129 1/2/129
f 67/72/130 130/139/130 129/73/130
f 128/74/131 129/73/131 127/75/131
f 126/76/132 127/75/132 125/77/132
f 124/78/37 125/77/37 123/79/37
f 122/80/133 123/79/133 121/81/133
f 120/82/134 121/81/134 119/83/134
f 118/85/135 119/184/135 117/86/135
f 116/87/136 117/86/136 115/88/136
f 114/89/137 115/88/137 113/90/137
f 112/91/138 113/90/138 111/92/138
f 108/94/139 110/93/139 111/92/139
f 108/94/140 109/95/140 107/96/140
f 104/98/141 106/97/141 107/96/141
f 102/100/142 104/98/142 105/99/142
f 100/102/143 102/100/143 103/101/143
f 98/104/144 100/185/144 101/105/144
f 96/107/145 98/104/145 99/106/145
f 94/109/146 96/107/146 97/108/146
f 92/111/147 94/109/147 95/110/147
f 90/113/148 92/111/148 93/112/148
f 88/115/149 90/113/149 91/114/149
f 86/117/150 88/115/150 89/116/150
f 84/119/151 86/186/151 87/120/151
f 82/122/152 84/119/152 85/121/152
f 80/124/58 82/122/58 83/123/58
f 78/126/153 80/124/153 81/125/153
f 76/128/154 78/126/154 79/127/154
f 76/128/155 77/129/155 75/130/155
f 74/131/156 75/130/156 73/132/156
f 72/133/157 73/132/157 71/134/157
f 70/135/158 71/134/158 69/136/158
f 68/138/65 69/187/65 130/139/65
f 82/142/159 80/188/159 31/143/159
f 78/189/160 76/190/160 31/143/160
f 74/191/161 72/192/161 31/143/161
f 70/193/162 68/194/162 31/143/162
f 67/195/163 128/196/163 31/143/163
f 126/197/162 124/198/162 31/143/162
f 21/140/164 106/199/164 104/200/164
f 128/196/165 126/197/165 31/143/165
f 21/140/166 104/200/166 102/201/166
f 67/195/167 31/143/167 68/194/167
f 72/192/168 70/193/168 31/143/168
f 80/188/169 78/189/169 31/143/169
f 86/202/170 84/141/170 21/140/170
f 90/203/171 88/204/171 21/140/171
f 94/205/172 92/206/172 21/140/172
f 98/207/173 96/208/173 21/140/173
f 102/201/163 100/209/163 21/140/163
f 74/191/169 31/143/169 76/190/169
f 21/140/164 100/209/164 98/207/164
f 96/208/174 94/205/174 21/140/174
f 88/204/175 86/202/175 21/140/175
f 82/142/66 31/143/66 21/140/66
f 21/140/176 92/206/176 90/203/176
f 118/210/177 116/211/177 31/143/177
f 114/144/164 112/212/164 21/140/164
f 110/213/178 108/214/178 21/140/178
f 106/199/179 21/140/179 108/214/179
f 31/143/180 124/198/180 122/215/180
f 122/215/181 120/216/181 31/143/181
f 116/211/182 114/144/182 31/143/182
f 110/213/183 21/140/183 112/212/183
f 31/143/181 120/216/181 118/210/181
f 129/217/184 66/218/184 65/219/184
f 35/220/185 66/218/185 130/221/185
f 73/222/186 75/145/186 39/147/186
f 77/223/187 79/224/187 41/225/187
f 81/226/188 83/227/188 43/228/188
f 85/229/189 44/230/189 43/228/189
f 89/231/190 91/232/190 47/233/190
f 93/234/191 95/235/191 49/236/191
f 97/237/192 99/238/192 51/239/192
f 101/240/193 103/241/193 52/242/193
f 105/243/194 107/148/194 55/150/194
f 105/243/195 55/150/195 54/244/195
f 99/238/192 101/240/192 52/242/192
f 91/232/196 93/234/196 48/245/196
f 83/227/197 85/229/197 43/228/197
f 75/145/198 77/223/198 40/146/198
f 130/221/199 66/218/199 129/217/199
f 125/246/193 127/247/193 65/219/193
f 121/248/200 123/249/200 63/250/200
f 117/251/201 119/252/201 61/253/201
f 113/254/202 115/255/202 58/256/202
f 109/257/203 111/258/203 57/259/203
f 57/259/204 56/149/204 109/257/204
f 58/256/195 57/259/195 111/258/195
f 111/258/205 113/254/205 58/256/205
f 119/252/206 121/248/206 62/260/206
f 127/247/206 129/217/206 65/219/206
f 79/224/207 81/226/207 42/261/207
f 95/235/199 97/237/199 50/262/199
f 105/243/208 54/244/208 53/263/208
f 105/243/202 53/263/202 103/241/202
f 123/249/196 125/246/196 64/264/196
f 58/256/189 115/255/189 59/265/189
f 59/265/209 115/255/209 117/251/209
f 103/241/210 53/263/210 52/242/210
f 99/238/199 52/242/199 51/239/199
f 60/266/211 59/265/211 117/251/211
f 61/253/212 60/266/212 117/251/212
f 97/237/213 51/239/213 50/262/213
f 95/235/214 50/262/214 49/236/214
f 62/260/215 61/253/215 119/252/215
f 63/250/216 62/260/216 121/248/216
f 93/234/217 49/236/217 48/245/217
f 91/232/218 48/245/218 47/233/218
f 64/264/219 63/250/219 123/249/219
f 65/219/217 64/264/217 125/246/217
f 89/231/220 47/233/220 46/267/220
f 89/231/221 46/267/221 45/268/221
f 69/269/196 35/220/196 130/221/196
f 69/269/222 36/270/222 35/220/222
f 89/231/223 45/268/223 87/271/223
f 45/268/224 44/230/224 87/271/224
f 69/269/225 71/272/225 36/270/225
f 36/270/226 71/272/226 37/273/226
f 87/271/123 44/230/123 85/229/123
f 81/226/227 43/228/227 42/261/227
f 37/273/228 71/272/228 73/222/228
f 38/274/229 37/273/229 73/222/229
f 79/224/230 42/261/230 41/225/230
f 77/223/231 41/225/231 40/146/231
f 39/147/232 38/274/232 73/222/232
f 107/148/233 109/257/233 56/149/233
