# Blender v2.79 (sub 0) OBJ File: 'pokoj scalone sprzety.blend'
# www.blender.org
mtllib gwozdz6.mtl
o Cylinder.019
v -3.254285 1.280942 -1.646279
v -3.254272 1.280892 -1.646556
v -3.254232 1.280795 -1.646817
v -3.254167 1.280656 -1.647053
v -3.254080 1.280481 -1.647254
v -3.253974 1.280275 -1.647414
v -3.253852 1.280047 -1.647525
v -3.253721 1.279805 -1.647584
v -3.253584 1.279560 -1.647588
v -3.253447 1.279319 -1.647538
v -3.253316 1.279093 -1.647434
v -3.253195 1.278890 -1.647282
v -3.253088 1.278719 -1.647086
v -3.253001 1.278584 -1.646855
v -3.252936 1.278493 -1.646597
v -3.252896 1.278448 -1.646322
v -3.252883 1.278450 -1.646041
v -3.252896 1.278501 -1.645765
v -3.252936 1.278597 -1.645504
v -3.253001 1.278736 -1.645268
v -3.253088 1.278912 -1.645066
v -3.253195 1.279118 -1.644906
v -3.253316 1.279346 -1.644795
v -3.253447 1.279587 -1.644736
v -3.253584 1.279833 -1.644732
v -3.253721 1.280073 -1.644783
v -3.253852 1.280299 -1.644886
v -3.253974 1.280502 -1.645039
v -3.254080 1.280674 -1.645234
v -3.254167 1.280808 -1.645466
v -3.254232 1.280900 -1.645724
v -3.254272 1.280945 -1.645998
v -3.170607 1.327610 -1.650742
v -3.170594 1.327559 -1.651019
v -3.170554 1.327463 -1.651280
v -3.170489 1.327324 -1.651516
v -3.170402 1.327148 -1.651717
v -3.170295 1.326942 -1.651877
v -3.170174 1.326714 -1.651988
v -3.170043 1.326473 -1.652047
v -3.169906 1.326227 -1.652051
v -3.169769 1.325987 -1.652001
v -3.169637 1.325761 -1.651897
v -3.169516 1.325558 -1.651744
v -3.169410 1.325386 -1.651549
v -3.169323 1.325252 -1.651317
v -3.169258 1.325160 -1.651059
v -3.169218 1.325115 -1.650785
v -3.169204 1.325118 -1.650504
v -3.169218 1.325168 -1.650227
v -3.169258 1.325265 -1.649966
v -3.169323 1.325404 -1.649730
v -3.169410 1.325579 -1.649529
v -3.169516 1.325785 -1.649369
v -3.169637 1.326013 -1.649258
v -3.169769 1.326255 -1.649199
v -3.169906 1.326500 -1.649195
v -3.170043 1.326741 -1.649245
v -3.170174 1.326967 -1.649349
v -3.170295 1.327170 -1.649502
v -3.170402 1.327341 -1.649697
v -3.170489 1.327476 -1.649928
v -3.170554 1.327567 -1.650186
v -3.170594 1.327613 -1.650461
v -3.171239 1.331007 -1.651066
v -3.171195 1.330841 -1.651976
v -3.172171 1.330297 -1.651925
v -3.171064 1.330523 -1.652835
v -3.172040 1.329979 -1.652784
v -3.170851 1.330066 -1.653612
v -3.171827 1.329522 -1.653561
v -3.170564 1.329488 -1.654275
v -3.171540 1.328944 -1.654224
v -3.170215 1.328811 -1.654800
v -3.171191 1.328267 -1.654749
v -3.169816 1.328060 -1.655167
v -3.170792 1.327516 -1.655116
v -3.169383 1.327265 -1.655360
v -3.170359 1.326722 -1.655310
v -3.168932 1.326457 -1.655374
v -3.169908 1.325913 -1.655324
v -3.168482 1.325666 -1.655208
v -3.169458 1.325122 -1.655157
v -3.168048 1.324922 -1.654867
v -3.169024 1.324379 -1.654816
v -3.167649 1.324255 -1.654364
v -3.168625 1.323712 -1.654314
v -3.167299 1.323690 -1.653720
v -3.168275 1.323146 -1.653670
v -3.167011 1.323249 -1.652960
v -3.167987 1.322705 -1.652909
v -3.166797 1.322948 -1.652111
v -3.167773 1.322404 -1.652060
v -3.166665 1.322799 -1.651207
v -3.167642 1.322255 -1.651156
v -3.166620 1.322808 -1.650282
v -3.167597 1.322264 -1.650231
v -3.166664 1.322975 -1.649373
v -3.167641 1.322431 -1.649322
v -3.166795 1.323293 -1.648514
v -3.167772 1.322749 -1.648463
v -3.167008 1.323750 -1.647737
v -3.167984 1.323206 -1.647686
v -3.167295 1.324328 -1.647074
v -3.168271 1.323784 -1.647023
v -3.167645 1.325005 -1.646549
v -3.168621 1.324461 -1.646498
v -3.168044 1.325755 -1.646182
v -3.169020 1.325212 -1.646131
v -3.168477 1.326550 -1.645988
v -3.169453 1.326006 -1.645937
v -3.168927 1.327359 -1.645974
v -3.169904 1.326815 -1.645924
v -3.169378 1.328150 -1.646141
v -3.170354 1.327606 -1.646090
v -3.169811 1.328893 -1.646482
v -3.170787 1.328349 -1.646431
v -3.170211 1.329560 -1.646984
v -3.171187 1.329016 -1.646934
v -3.170561 1.330125 -1.647628
v -3.171537 1.329582 -1.647577
v -3.170848 1.330567 -1.648389
v -3.171824 1.330023 -1.648338
v -3.171062 1.330868 -1.649238
v -3.172038 1.330324 -1.649187
v -3.171194 1.331017 -1.650142
v -3.172170 1.330473 -1.650091
v -3.172215 1.330464 -1.651016
vt 0.077233 0.784891
vt 0.079004 0.074105
vt 0.079004 0.784891
vt 0.075726 0.074105
vt 0.077233 0.074105
vt 0.257499 0.784892
vt 0.259270 0.074107
vt 0.259270 0.784892
vt 0.255531 0.074105
vt 0.257499 0.074106
vt 0.255531 0.784891
vt 0.253442 0.074105
vt 0.251312 0.784891
vt 0.253442 0.784891
vt 0.249223 0.784891
vt 0.251312 0.074105
vt 0.247255 0.074106
vt 0.249223 0.074105
vt 0.247255 0.784892
vt 0.245484 0.074107
vt 0.243978 0.784893
vt 0.245484 0.784892
vt 0.410723 0.074105
vt 0.412494 0.784891
vt 0.410723 0.784891
vt 0.412494 0.074105
vt 0.414462 0.784891
vt 0.416551 0.074105
vt 0.414462 0.074105
vt 0.418681 0.784891
vt 0.416551 0.784891
vt 0.418681 0.074105
vt 0.420770 0.784891
vt 0.420770 0.074105
vt 0.422738 0.784891
vt 0.424509 0.074105
vt 0.422738 0.074105
vt 0.426015 0.074105
vt 0.424509 0.784891
vt 0.591254 0.784891
vt 0.589483 0.074106
vt 0.591254 0.074105
vt 0.589483 0.784892
vt 0.587515 0.074106
vt 0.585426 0.784892
vt 0.587515 0.784892
vt 0.583296 0.074107
vt 0.585426 0.074107
vt 0.583296 0.784892
vt 0.581207 0.074106
vt 0.579239 0.784892
vt 0.581207 0.784892
vt 0.577468 0.784891
vt 0.579239 0.074106
vt 0.092525 0.784891
vt 0.091019 0.074105
vt 0.092525 0.074105
vt 0.091019 0.784891
vt 0.089247 0.074105
vt 0.087280 0.784891
vt 0.089247 0.784891
vt 0.085191 0.074105
vt 0.087280 0.074105
vt 0.083061 0.784891
vt 0.085191 0.784891
vt 0.921860 0.922059
vt 0.902647 0.916355
vt 0.905061 0.908568
vt 0.080971 0.074105
vt 0.083061 0.074105
vt 0.080971 0.784891
vt 0.812504 0.316620
vt 0.761434 0.357634
vt 0.744074 0.336933
vt 0.911118 0.750802
vt 0.902647 0.744481
vt 0.911118 0.744465
vt 0.902647 0.737754
vt 0.911118 0.737738
vt 0.902647 0.730895
vt 0.911118 0.730879
vt 0.902647 0.724168
vt 0.911118 0.724152
vt 0.902648 0.717831
vt 0.911118 0.717815
vt 0.902648 0.712128
vt 0.911119 0.712112
vt 0.742724 0.712113
vt 0.751188 0.716962
vt 0.742717 0.716963
vt 0.751183 0.722665
vt 0.742712 0.722666
vt 0.751179 0.729002
vt 0.742709 0.729003
vt 0.751177 0.735729
vt 0.742707 0.735730
vt 0.742707 0.742589
vt 0.751177 0.742588
vt 0.742709 0.749316
vt 0.751179 0.749315
vt 0.742712 0.755653
vt 0.751183 0.755652
vt 0.742717 0.761356
vt 0.751188 0.761355
vt 0.742724 0.766206
vt 0.751194 0.766205
vt 0.902648 0.515510
vt 0.911119 0.509823
vt 0.911118 0.515526
vt 0.902647 0.521847
vt 0.911118 0.521863
vt 0.902647 0.528574
vt 0.911118 0.528590
vt 0.902647 0.535433
vt 0.911118 0.535449
vt 0.902647 0.542161
vt 0.911118 0.542177
vt 0.902648 0.548498
vt 0.911118 0.548514
vt 0.902648 0.554201
vt 0.911119 0.554217
vt 0.751188 0.559052
vt 0.742724 0.563901
vt 0.742717 0.559051
vt 0.751183 0.553348
vt 0.742712 0.553348
vt 0.751179 0.547012
vt 0.742709 0.547011
vt 0.751178 0.540284
vt 0.742707 0.540284
vt 0.742707 0.533425
vt 0.751177 0.533425
vt 0.742709 0.526697
vt 0.751179 0.526698
vt 0.742712 0.520360
vt 0.751183 0.520361
vt 0.742717 0.514657
vt 0.751188 0.514658
vt 0.742724 0.509807
vt 0.751194 0.509808
vt 0.911119 0.756505
vt 0.902648 0.750818
vt 0.744074 0.098769
vt 0.768711 0.103916
vt 0.767896 0.105842
vt 0.788691 0.112015
vt 0.809821 0.125419
vt 0.787876 0.113940
vt 0.075726 0.784891
vt 0.243978 0.074108
vt 0.426015 0.784891
vt 0.577468 0.074105
vt 0.906568 0.907094
vt 0.908339 0.905936
vt 0.910306 0.905138
vt 0.912395 0.904732
vt 0.914525 0.904732
vt 0.916615 0.905138
vt 0.918582 0.905936
vt 0.920353 0.907094
vt 0.921860 0.908568
vt 0.923043 0.910301
vt 0.923858 0.912227
vt 0.924274 0.914271
vt 0.924274 0.916355
vt 0.923858 0.918400
vt 0.923043 0.920325
vt 0.920353 0.923532
vt 0.918582 0.924690
vt 0.916615 0.925488
vt 0.914525 0.925895
vt 0.912395 0.925895
vt 0.910306 0.925488
vt 0.908338 0.924690
vt 0.906567 0.923532
vt 0.905061 0.922059
vt 0.903878 0.920325
vt 0.903063 0.918400
vt 0.902647 0.914271
vt 0.903063 0.912227
vt 0.903878 0.910301
vt 0.742707 0.330206
vt 0.746756 0.310283
vt 0.742707 0.323347
vt 0.744074 0.316620
vt 0.750650 0.304580
vt 0.767910 0.293294
vt 0.755607 0.299730
vt 0.761434 0.295919
vt 0.774784 0.291956
vt 0.781793 0.291956
vt 0.788668 0.293294
vt 0.795143 0.295919
vt 0.800971 0.299730
vt 0.805927 0.304580
vt 0.809821 0.310283
vt 0.813871 0.323347
vt 0.813871 0.330206
vt 0.812504 0.336933
vt 0.809821 0.343270
vt 0.805927 0.348973
vt 0.800971 0.353823
vt 0.795143 0.357634
vt 0.788668 0.360259
vt 0.781793 0.361597
vt 0.774784 0.361597
vt 0.767910 0.360259
vt 0.755607 0.353823
vt 0.750650 0.348973
vt 0.746756 0.343270
vt 0.751194 0.712112
vt 0.902648 0.509807
vt 0.751194 0.563902
vt 0.902648 0.756521
vt 0.750650 0.131122
vt 0.769894 0.115674
vt 0.771400 0.117147
vt 0.768711 0.113940
vt 0.746756 0.125419
vt 0.742707 0.105496
vt 0.746756 0.092432
vt 0.750650 0.086729
vt 0.769894 0.102183
vt 0.755607 0.081879
vt 0.761434 0.078068
vt 0.773171 0.099551
vt 0.767910 0.075443
vt 0.775139 0.098753
vt 0.781793 0.074105
vt 0.788668 0.075443
vt 0.781447 0.098753
vt 0.795143 0.078068
vt 0.800971 0.081879
vt 0.785186 0.100709
vt 0.805927 0.086729
vt 0.809821 0.092432
vt 0.787876 0.103916
vt 0.812504 0.098769
vt 0.813871 0.105496
vt 0.788691 0.105842
vt 0.813871 0.112355
vt 0.812504 0.119082
vt 0.789106 0.109970
vt 0.783415 0.099551
vt 0.761434 0.139783
vt 0.755607 0.135972
vt 0.774784 0.143746
vt 0.767910 0.142408
vt 0.775139 0.119103
vt 0.788668 0.142408
vt 0.781793 0.143746
vt 0.779358 0.119510
vt 0.800971 0.135972
vt 0.795143 0.139783
vt 0.785186 0.117147
vt 0.805927 0.131122
vt 0.786692 0.115674
vt 0.777228 0.119510
vt 0.771400 0.100709
vt 0.786692 0.102183
vt 0.789106 0.107886
vt 0.773171 0.118305
vt 0.783415 0.118305
vt 0.781447 0.119103
vt 0.779358 0.098347
vt 0.777228 0.098347
vt 0.744074 0.119082
vt 0.767896 0.112015
vt 0.774784 0.074105
vt 0.742707 0.112355
vt 0.767480 0.109970
vt 0.767480 0.107886
vn -0.4864 0.8548 -0.1811
vn -0.4680 0.8035 -0.3680
vn -0.4309 0.7211 -0.5425
vn -0.3779 0.6115 -0.6951
vn -0.3101 0.4768 -0.8225
vn -0.2310 0.3255 -0.9169
vn -0.1418 0.1607 -0.9768
vn -0.0481 -0.0096 -0.9988
vn 0.0482 -0.1797 -0.9825
vn 0.1414 -0.3431 -0.9286
vn 0.2300 -0.4936 -0.8387
vn 0.3104 -0.6245 -0.7166
vn 0.3785 -0.7320 -0.5664
vn 0.4308 -0.8108 -0.3963
vn 0.4677 -0.8586 -0.2099
vn 0.4861 -0.8738 -0.0144
vn 0.4862 -0.8551 0.1801
vn 0.4674 -0.8038 0.3680
vn 0.4310 -0.7210 0.5426
vn 0.3779 -0.6111 0.6955
vn 0.3106 -0.4777 0.8218
vn 0.2306 -0.3258 0.9169
vn 0.1415 -0.1608 0.9768
vn 0.0480 0.0094 0.9988
vn -0.0480 0.1802 0.9824
vn -0.1423 0.3435 0.9283
vn -0.2299 0.4933 0.8389
vn -0.3097 0.6242 0.7172
vn -0.3778 0.7318 0.5672
vn -0.4312 0.8105 0.3964
vn -0.8724 -0.4867 0.0464
vn -0.4678 0.8586 0.2098
vn -0.4863 0.8737 0.0141
vn 0.8722 0.4868 -0.0472
vn -0.4859 0.8739 0.0148
vn -0.4679 0.8585 0.2097
vn -0.4308 0.8110 0.3959
vn -0.3780 0.7317 0.5672
vn -0.3106 0.6241 0.7170
vn -0.2309 0.4929 0.8389
vn -0.1426 0.3429 0.9285
vn -0.0489 0.1794 0.9826
vn 0.0468 0.0091 0.9989
vn 0.1411 -0.1616 0.9767
vn 0.2294 -0.3261 0.9171
vn 0.3091 -0.4779 0.8222
vn 0.3768 -0.6118 0.6955
vn 0.4300 -0.7217 0.5425
vn 0.4670 -0.8039 0.3683
vn 0.4856 -0.8553 0.1806
vn 0.4859 -0.8739 -0.0149
vn 0.4676 -0.8588 -0.2095
vn 0.4309 -0.8108 -0.3961
vn 0.3780 -0.7317 -0.5673
vn 0.3105 -0.6243 -0.7168
vn 0.2307 -0.4930 -0.8389
vn 0.1421 -0.3429 -0.9286
vn 0.0488 -0.1793 -0.9826
vn -0.0470 -0.0091 -0.9989
vn -0.1410 0.1617 -0.9767
vn -0.2293 0.3259 -0.9172
vn -0.3088 0.4778 -0.8224
vn -0.3767 0.6112 -0.6961
vn -0.4302 0.7214 -0.5426
vn -0.4670 0.8037 -0.3688
vn -0.4858 0.8553 -0.1802
vn -0.8730 -0.4855 0.0471
vn -0.8717 -0.4877 0.0471
vn -0.4858 0.8551 -0.1810
vn -0.4682 0.8032 -0.3683
vn -0.4308 0.7208 -0.5431
vn -0.3779 0.6110 -0.6956
vn -0.3092 0.4772 -0.8226
vn -0.2305 0.3258 -0.9169
vn -0.1415 0.1611 -0.9767
vn -0.0480 -0.0097 -0.9988
vn 0.0481 -0.1799 -0.9825
vn 0.1420 -0.3431 -0.9285
vn 0.2303 -0.4933 -0.8388
vn 0.3096 -0.6242 -0.7173
vn 0.3775 -0.7315 -0.5678
vn 0.4313 -0.8107 -0.3959
vn 0.4674 -0.8588 -0.2099
vn 0.4865 -0.8736 -0.0144
vn 0.4867 -0.8548 0.1801
vn 0.4679 -0.8031 0.3690
vn 0.4309 -0.7211 0.5425
vn 0.3776 -0.6106 0.6961
vn 0.3099 -0.4771 0.8224
vn 0.2304 -0.3253 0.9171
vn 0.1421 -0.1611 0.9766
vn 0.0475 0.0096 0.9988
vn -0.0473 0.1797 0.9826
vn -0.1420 0.3431 0.9285
vn -0.2309 0.4934 0.8386
vn -0.3100 0.6242 0.7171
vn -0.3778 0.7317 0.5673
vn -0.4308 0.8111 0.3958
vn -0.8700 -0.4907 0.0491
vn -0.8736 -0.4840 0.0511
vn -0.8755 -0.4810 0.0470
vn -0.8727 -0.4859 0.0472
vn -0.8706 -0.4899 0.0452
vn -0.8729 -0.4858 0.0455
vn -0.8705 -0.4899 0.0462
vn -0.8805 -0.4716 0.0475
vn -0.8806 -0.4717 0.0456
vn -0.8721 -0.4875 0.0419
vn -0.8730 -0.4854 0.0470
vn -0.8756 -0.4814 0.0398
vn -0.8759 -0.4799 0.0495
vn -0.8747 -0.4826 0.0443
vn -0.8707 -0.4897 0.0457
vn -0.8730 -0.4855 0.0461
vn -0.8718 -0.4876 0.0470
vn -0.8723 -0.4868 0.0465
vn -0.8720 -0.4872 0.0466
vn -0.8716 -0.4881 0.0467
vn -0.8726 -0.4862 0.0461
vn -0.8723 -0.4865 0.0489
vn -0.8729 -0.4857 0.0466
vn -0.8725 -0.4865 0.0462
vn -0.8729 -0.4856 0.0469
vn -0.8727 -0.4860 0.0464
vn -0.8723 -0.4868 0.0466
vn -0.8724 -0.4865 0.0466
vn -0.4677 0.8587 0.2093
vn -0.4867 0.8734 0.0166
vn 0.8723 0.4867 -0.0472
vn 0.8713 0.4885 -0.0470
vn 0.8729 0.4855 -0.0474
vn 0.8729 0.4856 -0.0473
vn 0.8732 0.4850 -0.0470
vn 0.8742 0.4832 -0.0478
vn 0.8719 0.4875 -0.0467
vn 0.8720 0.4872 -0.0480
vn 0.8722 0.4870 -0.0460
vn 0.8724 0.4865 -0.0475
vn 0.8754 0.4811 -0.0468
vn 0.8707 0.4896 -0.0469
vn 0.8720 0.4873 -0.0470
vn 0.8723 0.4867 -0.0468
vn 0.8722 0.4869 -0.0467
vn 0.8724 0.4866 -0.0466
vn 0.8713 0.4886 -0.0467
vn 0.8721 0.4870 -0.0471
vn 0.8723 0.4866 -0.0472
vn 0.8722 0.4869 -0.0479
vn 0.8719 0.4875 -0.0474
vn 0.8722 0.4868 -0.0471
vn 0.8722 0.4869 -0.0471
vn 0.8723 0.4867 -0.0470
vn 0.8723 0.4868 -0.0472
vn -0.4860 0.8738 0.0148
vn -0.4672 0.8590 0.2094
vn -0.4314 0.8105 0.3962
vn -0.3104 0.6243 0.7169
vn -0.2312 0.4934 0.8385
vn -0.1428 0.3429 0.9285
vn -0.0488 0.1795 0.9825
vn 0.1406 -0.1617 0.9768
vn 0.2292 -0.3259 0.9172
vn 0.3089 -0.4781 0.8222
vn 0.3769 -0.6111 0.6961
vn 0.4301 -0.7215 0.5427
vn 0.4669 -0.8038 0.3685
vn 0.4857 -0.8553 0.1803
vn 0.4859 -0.8739 -0.0151
vn 0.4673 -0.8589 -0.2096
vn 0.4308 -0.8109 -0.3959
vn 0.3781 -0.7317 -0.5672
vn 0.3106 -0.6242 -0.7169
vn 0.2310 -0.4930 -0.8388
vn 0.1429 -0.3428 -0.9285
vn 0.0489 -0.1794 -0.9826
vn -0.0467 -0.0091 -0.9989
vn -0.1408 0.1616 -0.9768
vn -0.2295 0.3262 -0.9170
vn -0.3091 0.4782 -0.8221
vn -0.3769 0.6117 -0.6955
vn -0.4301 0.7216 -0.5425
vn -0.4667 0.8043 -0.3679
vn -0.8721 -0.4871 0.0463
vn -0.8722 -0.4869 0.0470
vn -0.8720 -0.4871 0.0474
vn -0.8726 -0.4862 0.0475
vn -0.8726 -0.4861 0.0474
vn -0.8717 -0.4878 0.0473
vn -0.8723 -0.4867 0.0473
vn -0.8723 -0.4867 0.0472
vn -0.8721 -0.4870 0.0472
vn -0.8722 -0.4869 0.0472
vn -0.8720 -0.4873 0.0474
vn -0.8725 -0.4862 0.0478
vn -0.8721 -0.4871 0.0471
vn -0.8720 -0.4872 0.0472
vn -0.8723 -0.4867 0.0474
vn -0.8721 -0.4871 0.0475
vn -0.8723 -0.4867 0.0471
vn -0.8725 -0.4863 0.0474
vn -0.8725 -0.4863 0.0475
vn -0.8716 -0.4879 0.0471
vn -0.8718 -0.4876 0.0478
vn -0.8723 -0.4866 0.0471
vn -0.8723 -0.4867 0.0475
vn -0.8723 -0.4866 0.0470
vn -0.8721 -0.4870 0.0471
vn -0.8709 -0.4891 0.0473
vn -0.8724 -0.4865 0.0474
vn -0.8720 -0.4874 0.0464
vn -0.8725 -0.4864 0.0470
vn -0.8718 -0.4876 0.0473
vn -0.8725 -0.4865 0.0458
vn -0.8726 -0.4862 0.0468
vn -0.8727 -0.4860 0.0468
vn -0.8727 -0.4860 0.0471
vn -0.8723 -0.4868 0.0468
vn -0.8731 -0.4853 0.0462
vn -0.8728 -0.4858 0.0468
vn -0.8723 -0.4867 0.0465
vn -0.8719 -0.4875 0.0467
vn -0.8722 -0.4870 0.0471
vn -0.8720 -0.4872 0.0468
vn -0.8723 -0.4866 0.0473
vn -0.8724 -0.4864 0.0476
vn -0.8713 -0.4884 0.0474
vn -0.8721 -0.4871 0.0473
vn -0.8717 -0.4877 0.0468
vn -0.8717 -0.4877 0.0473
usemtl None
s off
f 34/1/1 1/2/1 33/3/1
f 34/1/2 3/4/2 2/5/2
f 36/6/3 3/7/3 35/8/3
f 36/6/4 5/9/4 4/10/4
f 37/11/5 6/12/5 5/9/5
f 39/13/6 6/12/6 38/14/6
f 40/15/7 7/16/7 39/13/7
f 40/15/8 9/17/8 8/18/8
f 41/19/9 10/20/9 9/17/9
f 43/21/10 10/20/10 42/22/10
f 43/23/11 12/24/11 11/25/11
f 44/26/12 13/27/12 12/24/12
f 46/28/13 13/27/13 45/29/13
f 46/28/14 15/30/14 14/31/14
f 47/32/15 16/33/15 15/30/15
f 48/34/16 17/35/16 16/33/16
f 50/36/17 17/35/17 49/37/17
f 51/38/18 18/39/18 50/36/18
f 51/40/19 20/41/19 19/42/19
f 52/43/20 21/44/20 20/41/20
f 54/45/21 21/44/21 53/46/21
f 54/45/22 23/47/22 22/48/22
f 55/49/23 24/50/23 23/47/23
f 57/51/24 24/50/24 56/52/24
f 58/53/25 25/54/25 57/51/25
f 58/55/26 27/56/26 26/57/26
f 59/58/27 28/59/27 27/56/27
f 61/60/28 28/59/28 60/61/28
f 61/60/29 30/62/29 29/63/29
f 63/64/30 30/62/30 62/65/30
f 17/66/31 29/67/31 1/68/31
f 63/64/32 32/69/32 31/70/32
f 64/71/33 1/2/33 32/69/33
f 112/72/34 88/73/34 80/74/34
f 65/75/35 127/76/35 126/77/35
f 126/77/36 125/78/36 124/79/36
f 124/79/37 123/80/37 122/81/37
f 122/81/38 121/82/38 120/83/38
f 120/83/39 119/84/39 118/85/39
f 118/85/40 117/86/40 116/87/40
f 116/88/41 115/89/41 114/90/41
f 114/90/42 113/91/42 112/92/42
f 112/92/43 111/93/43 110/94/43
f 110/94/44 109/95/44 108/96/44
f 106/97/45 109/95/45 107/98/45
f 104/99/46 107/98/46 105/100/46
f 102/101/47 105/100/47 103/102/47
f 100/103/48 103/102/48 101/104/48
f 98/105/49 101/104/49 99/106/49
f 96/107/50 99/108/50 97/109/50
f 94/110/51 97/109/51 95/111/51
f 92/112/52 95/111/52 93/113/52
f 90/114/53 93/113/53 91/115/53
f 88/116/54 91/115/54 89/117/54
f 86/118/55 89/117/55 87/119/55
f 84/120/56 87/119/56 85/121/56
f 82/122/57 85/123/57 83/124/57
f 80/125/58 83/124/58 81/126/58
f 78/127/59 81/126/59 79/128/59
f 76/129/60 79/128/60 77/130/60
f 76/129/61 75/131/61 74/132/61
f 74/132/62 73/133/62 72/134/62
f 72/134/63 71/135/63 70/136/63
f 70/136/64 69/137/64 68/138/64
f 68/138/65 67/139/65 66/140/65
f 66/141/66 128/142/66 65/75/66
f 73/143/67 38/144/67 37/145/67
f 53/146/68 107/147/68 54/148/68
f 34/1/69 2/5/69 1/2/69
f 34/1/70 35/149/70 3/4/70
f 36/6/71 4/10/71 3/7/71
f 36/6/72 37/11/72 5/9/72
f 37/11/73 38/14/73 6/12/73
f 39/13/74 7/16/74 6/12/74
f 40/15/75 8/18/75 7/16/75
f 40/15/76 41/19/76 9/17/76
f 41/19/77 42/22/77 10/20/77
f 43/21/78 11/150/78 10/20/78
f 43/23/79 44/26/79 12/24/79
f 44/26/80 45/29/80 13/27/80
f 46/28/81 14/31/81 13/27/81
f 46/28/82 47/32/82 15/30/82
f 47/32/83 48/34/83 16/33/83
f 48/34/84 49/37/84 17/35/84
f 50/36/85 18/39/85 17/35/85
f 51/38/86 19/151/86 18/39/86
f 51/40/87 52/43/87 20/41/87
f 52/43/88 53/46/88 21/44/88
f 54/45/89 22/48/89 21/44/89
f 54/45/90 55/49/90 23/47/90
f 55/49/91 56/52/91 24/50/91
f 57/51/92 25/54/92 24/50/92
f 58/53/93 26/152/93 25/54/93
f 58/55/94 59/58/94 27/56/94
f 59/58/95 60/61/95 28/59/95
f 61/60/96 29/63/96 28/59/96
f 61/60/97 62/65/97 30/62/97
f 63/64/98 31/70/98 30/62/98
f 1/68/99 2/153/99 3/154/99
f 3/154/100 4/155/100 5/156/100
f 5/156/101 6/157/101 7/158/101
f 7/158/102 8/159/102 9/160/102
f 9/160/103 10/161/103 11/162/103
f 11/162/104 12/163/104 13/164/104
f 13/164/105 14/165/105 15/166/105
f 15/166/106 16/167/106 17/66/106
f 17/66/107 18/168/107 19/169/107
f 19/169/104 20/170/104 21/171/104
f 21/171/108 22/172/108 23/173/108
f 23/173/109 24/174/109 25/175/109
f 25/175/110 26/176/110 27/177/110
f 27/177/111 28/178/111 29/67/111
f 29/67/112 30/179/112 31/180/112
f 31/180/113 32/181/113 1/68/113
f 1/68/114 3/154/114 5/156/114
f 5/156/115 7/158/115 1/68/115
f 9/160/116 11/162/116 17/66/116
f 13/164/117 15/166/117 17/66/117
f 17/66/118 19/169/118 21/171/118
f 21/171/119 23/173/119 25/175/119
f 25/175/120 27/177/120 29/67/120
f 29/67/121 31/180/121 1/68/121
f 1/68/122 7/158/122 9/160/122
f 11/162/123 13/164/123 17/66/123
f 17/66/124 21/171/124 25/175/124
f 25/175/125 29/67/125 17/66/125
f 1/68/126 9/160/126 17/66/126
f 63/64/127 64/71/127 32/69/127
f 64/71/128 33/3/128 1/2/128
f 80/74/129 78/182/129 72/183/129
f 76/184/130 74/185/130 72/183/130
f 72/183/131 70/186/131 65/187/131
f 68/188/132 66/189/132 65/187/132
f 65/187/133 126/190/133 124/191/133
f 124/191/134 122/192/134 120/193/134
f 120/193/135 118/194/135 116/195/135
f 116/195/136 114/196/136 120/193/136
f 112/72/137 110/197/137 108/198/137
f 108/198/138 106/199/138 112/72/138
f 104/200/139 102/201/139 100/202/139
f 100/202/140 98/203/140 96/204/140
f 96/204/141 94/205/141 92/206/141
f 92/206/140 90/207/140 88/73/140
f 88/73/142 86/208/142 80/74/142
f 84/209/143 82/210/143 80/74/143
f 78/182/144 76/184/144 72/183/144
f 70/186/145 68/188/145 65/187/145
f 65/187/146 124/191/146 112/72/146
f 120/193/147 114/196/147 112/72/147
f 112/72/148 106/199/148 104/200/148
f 104/200/149 100/202/149 96/204/149
f 96/204/150 92/206/150 88/73/150
f 86/208/141 84/209/141 80/74/141
f 80/74/34 72/183/34 112/72/34
f 124/191/151 120/193/151 112/72/151
f 112/72/152 104/200/152 96/204/152
f 96/204/153 88/73/153 112/72/153
f 72/183/150 65/187/150 112/72/150
f 65/75/154 128/142/154 127/76/154
f 126/77/155 127/76/155 125/78/155
f 124/79/156 125/78/156 123/80/156
f 122/81/38 123/80/38 121/82/38
f 120/83/157 121/82/157 119/84/157
f 118/85/158 119/84/158 117/86/158
f 116/88/159 117/211/159 115/89/159
f 114/90/160 115/89/160 113/91/160
f 112/92/43 113/91/43 111/93/43
f 110/94/161 111/93/161 109/95/161
f 106/97/162 108/96/162 109/95/162
f 104/99/163 106/97/163 107/98/163
f 102/101/164 104/99/164 105/100/164
f 100/103/165 102/101/165 103/102/165
f 98/105/166 100/103/166 101/104/166
f 96/107/167 98/212/167 99/108/167
f 94/110/168 96/107/168 97/109/168
f 92/112/169 94/110/169 95/111/169
f 90/114/170 92/112/170 93/113/170
f 88/116/171 90/114/171 91/115/171
f 86/118/172 88/116/172 89/117/172
f 84/120/173 86/118/173 87/119/173
f 82/122/174 84/213/174 85/123/174
f 80/125/175 82/122/175 83/124/175
f 78/127/176 80/125/176 81/126/176
f 76/129/177 78/127/177 79/128/177
f 76/129/178 77/130/178 75/131/178
f 74/132/179 75/131/179 73/133/179
f 72/134/180 73/133/180 71/135/180
f 70/136/181 71/135/181 69/137/181
f 68/138/182 69/137/182 67/139/182
f 66/141/66 67/214/66 128/142/66
f 127/215/183 64/216/183 63/217/183
f 33/218/184 64/216/184 128/219/184
f 71/220/185 73/143/185 37/145/185
f 75/221/186 77/222/186 39/223/186
f 79/224/187 81/225/187 41/226/187
f 83/227/188 42/228/188 41/226/188
f 87/229/189 89/230/189 45/231/189
f 91/232/190 93/233/190 47/234/190
f 95/235/191 97/236/191 49/237/191
f 99/238/192 101/239/192 50/240/192
f 103/241/193 105/242/193 52/243/193
f 105/242/194 53/146/194 52/243/194
f 97/236/195 99/238/195 50/240/195
f 89/230/196 91/232/196 46/244/196
f 81/225/197 83/227/197 41/226/197
f 73/143/198 75/221/198 38/144/198
f 128/219/199 64/216/199 127/215/199
f 123/245/192 125/246/192 63/217/192
f 119/247/191 121/248/191 61/249/191
f 115/250/197 117/251/197 59/252/197
f 111/253/200 113/254/200 56/255/200
f 107/147/201 109/256/201 55/257/201
f 55/257/202 54/148/202 107/147/202
f 56/255/203 55/257/203 109/256/203
f 109/256/193 111/253/193 56/255/193
f 117/251/190 119/247/190 60/258/190
f 125/246/204 127/215/204 63/217/204
f 77/222/205 79/224/205 40/259/205
f 93/233/195 95/235/195 48/260/195
f 103/241/206 52/243/206 51/261/206
f 103/241/192 51/261/192 101/239/192
f 121/248/207 123/245/207 62/262/207
f 56/255/208 113/254/208 57/263/208
f 57/263/209 113/254/209 115/250/209
f 101/239/210 51/261/210 50/240/210
f 97/236/211 50/240/211 49/237/211
f 58/264/212 57/263/212 115/250/212
f 59/252/200 58/264/200 115/250/200
f 95/235/213 49/237/213 48/260/213
f 93/233/214 48/260/214 47/234/214
f 60/258/215 59/252/215 117/251/215
f 61/249/216 60/258/216 119/247/216
f 91/232/217 47/234/217 46/244/217
f 89/230/218 46/244/218 45/231/218
f 62/262/219 61/249/219 121/248/219
f 63/217/220 62/262/220 123/245/220
f 87/229/221 45/231/221 44/265/221
f 87/229/102 44/265/102 43/266/102
f 67/267/222 33/218/222 128/219/222
f 67/267/223 34/268/223 33/218/223
f 87/229/224 43/266/224 85/269/224
f 43/266/214 42/228/214 85/269/214
f 67/267/222 69/270/222 34/268/222
f 34/268/225 69/270/225 35/271/225
f 85/269/209 42/228/209 83/227/209
f 79/224/226 41/226/226 40/259/226
f 35/271/227 69/270/227 71/220/227
f 36/272/228 35/271/228 71/220/228
f 77/222/196 40/259/196 39/223/196
f 75/221/229 39/223/229 38/144/229
f 37/145/199 36/272/199 71/220/199
f 53/146/196 105/242/196 107/147/196
