# Blender v2.79 (sub 0) OBJ File: 'pokoj scalone sprzety.blend'
# www.blender.org
mtllib lozko.mtl
o Cube.034_Cube.035
v -3.074335 -0.000071 -0.294247
v -3.074335 0.930746 -0.294247
v -3.083832 1.027219 -0.294247
v -3.078724 1.005016 -0.294247
v -3.075408 0.970834 -0.294247
v -3.075409 0.970860 -0.170932
v -3.078727 1.005039 -0.170932
v -3.083836 1.027229 -0.170932
v -3.178005 0.970860 -0.294247
v -3.174687 1.005039 -0.294247
v -3.169578 1.027229 -0.294247
v -3.169582 1.027219 -0.170932
v -3.174690 1.005016 -0.170932
v -3.178006 0.970834 -0.170932
v -3.083832 1.027219 -0.294247
v -3.089827 1.043876 -0.265499
v -3.088128 1.037788 -0.286099
v -3.089827 1.043876 -0.199680
v -3.083836 1.027229 -0.170932
v -3.088129 1.037791 -0.179079
v -3.163588 1.043876 -0.265499
v -3.169578 1.027229 -0.294247
v -3.165285 1.037791 -0.286099
v -3.169582 1.027219 -0.170932
v -3.163588 1.043876 -0.199680
v -3.165287 1.037788 -0.179079
v -3.074335 -0.000071 -0.183193
v -3.080426 -0.000071 -0.170932
v -3.179079 -0.000071 -0.281986
v -3.172988 -0.000071 -0.294247
v -3.172992 -0.000071 -0.170932
v -3.179079 -0.000071 -0.183193
v -3.075409 0.970860 -0.170932
v -3.074335 0.930746 -0.183193
v -3.178005 0.970860 -0.294247
v -3.179079 0.930746 -0.281986
v -3.179079 0.930746 -0.183193
v -3.178006 0.970834 -0.170932
v -2.266352 -0.000071 -0.294247
v -2.281357 0.930746 -0.294247
v -2.271860 1.027219 -0.294247
v -2.276968 1.005016 -0.294247
v -2.280284 0.970834 -0.294247
v -2.280282 0.970860 -0.170932
v -2.276964 1.005039 -0.170932
v -2.271856 1.027229 -0.170932
v -2.177687 0.970860 -0.294247
v -2.181005 1.005039 -0.294247
v -2.186113 1.027229 -0.294247
v -2.186110 1.027219 -0.170932
v -2.181002 1.005016 -0.170932
v -2.177685 0.970834 -0.170932
v -2.271860 1.027219 -0.294247
v -2.265865 1.043876 -0.265499
v -2.267564 1.037788 -0.286099
v -2.265865 1.043876 -0.199680
v -2.271856 1.027229 -0.170932
v -2.267563 1.037791 -0.179079
v -2.192104 1.043876 -0.265499
v -2.186113 1.027229 -0.294247
v -2.190407 1.037791 -0.286099
v -2.186110 1.027219 -0.170932
v -2.192104 1.043876 -0.199680
v -2.190405 1.037788 -0.179079
v -2.281357 -0.000071 -0.183193
v -2.275266 -0.000071 -0.170932
v -2.176613 -0.000071 -0.281986
v -2.182703 -0.000071 -0.294247
v -2.182699 -0.000071 -0.170932
v -2.176613 -0.000071 -0.183193
v -2.280282 0.970860 -0.170932
v -2.281357 0.930746 -0.183193
v -2.177687 0.970860 -0.294247
v -2.176613 0.930746 -0.281986
v -2.176613 0.930746 -0.183193
v -2.177685 0.970834 -0.170932
v -3.088188 0.154753 -0.288752
v -3.088188 0.971201 -0.288752
v -3.088188 0.154753 -0.176427
v -3.088188 0.971201 -0.176427
v -2.267084 0.154753 -0.288752
v -2.267084 0.971201 -0.288752
v -2.267084 0.154753 -0.176427
v -2.267084 0.971201 -0.176427
v -2.985550 0.960864 -0.176427
v -2.882912 0.974237 -0.176427
v -2.780274 1.014839 -0.176427
v -2.677636 1.035488 -0.176427
v -2.574998 1.014839 -0.176427
v -2.472360 0.974237 -0.176427
v -2.369722 0.960864 -0.176427
v -2.369722 0.960864 -0.288752
v -2.472360 0.974237 -0.288752
v -2.574998 1.014839 -0.288752
v -2.677636 1.035488 -0.288752
v -2.780274 1.014839 -0.288752
v -2.882912 0.974237 -0.288752
v -2.985550 0.960864 -0.288752
v -3.053539 -0.000071 -2.063792
v -3.074335 0.930746 -2.063792
v -3.083832 1.027219 -2.063792
v -3.078724 1.005016 -2.063792
v -3.075408 0.970834 -2.063792
v -3.075409 0.970860 -2.187107
v -3.078727 1.005039 -2.187107
v -3.083836 1.027229 -2.187107
v -3.178005 0.970860 -2.063792
v -3.174687 1.005039 -2.063792
v -3.169578 1.027229 -2.063792
v -3.169582 1.027219 -2.187107
v -3.174690 1.005016 -2.187107
v -3.178006 0.970834 -2.187107
v -3.083832 1.027219 -2.063792
v -3.089827 1.043876 -2.092540
v -3.088128 1.037788 -2.071939
v -3.089827 1.043876 -2.158359
v -3.083836 1.027229 -2.187107
v -3.088129 1.037791 -2.178960
v -3.163588 1.043876 -2.092540
v -3.169578 1.027229 -2.063792
v -3.165285 1.037791 -2.071939
v -3.169582 1.027219 -2.187107
v -3.163588 1.043876 -2.158359
v -3.165287 1.037788 -2.178960
v -3.074335 -0.000071 -2.174846
v -3.080426 -0.000071 -2.187107
v -3.179079 -0.000071 -2.076053
v -3.172988 -0.000071 -2.063792
v -3.172992 -0.000071 -2.187107
v -3.179079 -0.000071 -2.174846
v -3.075409 0.970860 -2.187107
v -3.074335 0.930746 -2.174846
v -3.178005 0.970860 -2.063792
v -3.179079 0.930746 -2.076053
v -3.179079 0.930746 -2.174846
v -3.178006 0.970834 -2.187107
v -3.088188 0.154753 -2.069287
v -3.088188 0.971201 -2.069287
v -3.088188 0.154753 -2.181612
v -3.088188 0.971201 -2.181612
v -2.267084 0.154753 -2.069287
v -2.267084 0.971201 -2.069287
v -2.267084 0.154753 -2.181612
v -2.267084 0.971201 -2.181612
v -2.985550 0.960864 -2.181612
v -2.882912 0.974237 -2.181612
v -2.780274 1.014839 -2.181612
v -2.677636 1.035488 -2.181612
v -2.574998 1.014839 -2.181612
v -2.472360 0.974237 -2.181612
v -2.369722 0.960864 -2.181612
v -2.369722 0.960864 -2.069287
v -2.472360 0.974237 -2.069287
v -2.574998 1.014839 -2.069287
v -2.677636 1.035488 -2.069287
v -2.780274 1.014839 -2.069287
v -2.882912 0.974237 -2.069287
v -2.985550 0.960864 -2.069287
v -2.281357 -0.000071 -2.063792
v -2.281357 0.930746 -2.063792
v -2.271860 1.027219 -2.063792
v -2.276968 1.005016 -2.063792
v -2.280284 0.970834 -2.063792
v -2.280282 0.970860 -2.187107
v -2.276964 1.005039 -2.187107
v -2.271856 1.027229 -2.187107
v -2.177687 0.970860 -2.063792
v -2.181005 1.005039 -2.063792
v -2.186113 1.027229 -2.063792
v -2.186110 1.027219 -2.187107
v -2.181002 1.005016 -2.187107
v -2.177685 0.970834 -2.187107
v -2.271860 1.027219 -2.063792
v -2.265865 1.043876 -2.092540
v -2.267564 1.037788 -2.071939
v -2.265865 1.043876 -2.158359
v -2.271856 1.027229 -2.187107
v -2.267563 1.037791 -2.178960
v -2.192104 1.043876 -2.092540
v -2.186113 1.027229 -2.063792
v -2.190407 1.037791 -2.071939
v -2.186110 1.027219 -2.187107
v -2.192104 1.043876 -2.158359
v -2.190405 1.037788 -2.178960
v -2.298632 -0.000071 -2.174846
v -2.292542 -0.000071 -2.187107
v -2.176613 -0.000071 -2.076053
v -2.182703 -0.000071 -2.063792
v -2.182699 -0.000071 -2.187107
v -2.176613 -0.000071 -2.174846
v -2.280282 0.970860 -2.187107
v -2.281357 0.930746 -2.174846
v -2.177687 0.970860 -2.063792
v -2.176613 0.930746 -2.076053
v -2.176613 0.930746 -2.174846
v -2.177685 0.970834 -2.187107
v -3.170852 0.154557 -0.288343
v -3.170852 0.336300 -0.288343
v -3.170852 0.104219 -2.059855
v -3.170852 0.336300 -2.059855
v -2.180720 0.154557 -0.288343
v -2.180720 0.336300 -0.288343
v -2.180720 0.104219 -2.059855
v -2.180720 0.336300 -2.059855
vn -1.0000 0.0000 0.0000
vn 0.0000 0.0000 -1.0000
vn 0.0000 -1.0000 0.0000
vn 0.0000 0.0000 1.0000
vn -0.9130 0.4055 -0.0445
vn 0.0000 1.0000 0.0000
vn 0.9745 0.2242 -0.0000
vn 0.9953 0.0966 -0.0000
vn -0.9996 0.0267 0.0000
vn -0.9745 0.2242 0.0000
vn -0.9953 0.0966 0.0000
vn 0.9130 0.4055 0.0445
vn 0.0000 0.9590 -0.2833
vn 0.0000 0.6108 -0.7918
vn -0.0001 0.6106 0.7920
vn -0.0000 0.9590 0.2834
vn 0.9996 0.0268 0.0000
vn -0.8956 0.0000 -0.4449
vn 0.9946 -0.0051 0.1039
vn -0.9946 -0.0051 0.1038
vn 1.0000 0.0000 0.0000
vn 0.9409 0.3386 -0.0000
vn -0.9745 0.2243 0.0000
vn 0.9745 0.2243 -0.0000
vn -0.9409 0.3386 0.0000
vn 0.0001 0.6106 0.7920
vn -0.9996 0.0268 0.0000
vn 0.8956 0.0000 -0.4449
vn -0.9946 -0.0051 0.1039
vn 0.8957 0.0000 0.4446
vn -0.9909 -0.0160 -0.1339
vn 0.1002 0.9950 0.0000
vn -0.1002 0.9950 0.0000
vn 0.1292 0.9916 0.0000
vn 0.3679 0.9299 0.0000
vn 0.1972 0.9804 0.0000
vn -0.1972 0.9804 0.0000
vn -0.3679 0.9299 0.0000
vn -0.1292 0.9916 0.0000
vn 0.0000 0.9590 0.2833
vn 0.0000 0.6108 0.7918
vn -0.0001 0.6106 -0.7920
vn -0.0000 0.9590 -0.2834
vn -0.8956 0.0000 0.4449
vn 0.9946 -0.0051 -0.1039
vn -0.8957 0.0000 -0.4446
vn 0.9827 0.0220 -0.1840
vn 0.0001 0.6106 -0.7920
vn 0.8956 0.0000 0.4449
vn -0.9989 0.0126 -0.0462
vn 0.9946 -0.0051 -0.1038
vn -0.9879 0.0183 0.1537
vn 0.0000 -0.9996 0.0284
vn -0.9130 0.4054 0.0445
vn 0.9131 0.4054 -0.0445
vn 0.9996 0.0267 0.0000
vn -0.9946 -0.0051 -0.1039
vn -0.8957 0.0000 0.4446
vn 0.9130 0.4054 0.0445
vn 0.9130 0.4055 -0.0445
vn -0.9130 0.4054 -0.0445
vn -0.9130 0.4056 0.0445
vn 0.9946 -0.0051 0.1038
vn -0.9409 0.3387 0.0000
vn -0.9130 0.4055 0.0445
vn -0.9946 -0.0051 -0.1038
vn -0.8955 0.0166 -0.4448
vn 0.8957 0.0000 -0.4446
usemtl None
s off
f 37//1 29//1 32//1
f 4//2 5//2 9//2
f 28//3 32//3 27//3
f 13//4 14//4 33//4
f 21//5 23//5 11//5
f 18//6 21//6 25//6
f 3//7 7//7 4//7
f 4//8 6//8 5//8
f 14//9 36//9 37//9
f 12//10 10//10 13//10
f 13//11 9//11 14//11
f 18//12 20//12 8//12
f 16//13 23//13 21//13
f 17//14 22//14 23//14
f 19//15 26//15 24//15
f 20//16 25//16 26//16
f 5//17 34//17 2//17
f 36//18 30//18 29//18
f 28//19 34//19 33//19
f 37//20 31//20 38//20
f 2//21 27//21 1//21
f 67//21 75//21 70//21
f 53//2 48//2 42//2
f 67//3 70//3 65//3
f 76//4 51//4 44//4
f 49//22 59//22 50//22
f 59//6 56//6 63//6
f 41//23 45//23 46//23
f 42//11 44//11 45//11
f 76//17 74//17 73//17
f 50//24 48//24 49//24
f 51//8 47//8 48//8
f 46//25 56//25 41//25
f 61//13 54//13 59//13
f 60//14 55//14 61//14
f 64//26 57//26 62//26
f 63//16 58//16 64//16
f 43//27 72//27 71//27
f 68//28 74//28 67//28
f 72//29 66//29 71//29
f 75//30 69//30 70//30
f 65//31 40//31 39//31
f 79//1 78//1 77//1
f 81//21 84//21 83//21
f 98//32 80//32 85//32
f 82//33 91//33 84//33
f 92//34 90//34 91//34
f 93//35 89//35 90//35
f 94//36 88//36 89//36
f 95//37 87//37 88//37
f 96//38 86//38 87//38
f 97//39 85//39 86//39
f 77//3 83//3 79//3
f 81//2 97//2 93//2
f 79//4 90//4 86//4
f 127//1 135//1 130//1
f 113//4 108//4 102//4
f 99//3 127//3 125//3
f 136//2 111//2 104//2
f 109//25 119//25 110//25
f 119//6 116//6 123//6
f 101//24 105//24 106//24
f 102//8 104//8 105//8
f 112//27 134//27 133//27
f 110//23 108//23 109//23
f 111//11 107//11 108//11
f 106//22 116//22 101//22
f 121//40 114//40 119//40
f 120//41 115//41 121//41
f 124//42 117//42 122//42
f 123//43 118//43 124//43
f 103//17 132//17 131//17
f 128//44 134//44 127//44
f 132//45 126//45 131//45
f 135//46 129//46 130//46
f 125//47 100//47 99//47
f 138//1 139//1 137//1
f 144//21 141//21 143//21
f 140//32 158//32 145//32
f 151//33 142//33 144//33
f 150//34 152//34 151//34
f 149//35 153//35 150//35
f 148//36 154//36 149//36
f 147//37 155//37 148//37
f 146//38 156//38 147//38
f 145//39 157//39 146//39
f 143//3 137//3 139//3
f 153//4 157//4 137//4
f 146//2 150//2 143//2
f 195//21 187//21 190//21
f 162//4 163//4 167//4
f 186//3 190//3 185//3
f 165//2 171//2 164//2
f 179//12 181//12 169//12
f 176//6 179//6 183//6
f 161//10 165//10 162//10
f 162//11 164//11 163//11
f 167//17 194//17 196//17
f 170//7 168//7 171//7
f 171//8 167//8 172//8
f 176//5 178//5 166//5
f 174//40 181//40 179//40
f 175//41 180//41 181//41
f 177//48 184//48 182//48
f 178//43 183//43 184//43
f 164//27 192//27 163//27
f 194//49 188//49 187//49
f 186//50 192//50 191//50
f 195//51 189//51 196//51
f 159//52 192//52 185//52
f 197//1 200//1 199//1
f 200//2 203//2 199//2
f 204//21 201//21 203//21
f 202//4 197//4 201//4
f 203//53 197//53 199//53
f 200//6 202//6 204//6
f 37//1 36//1 29//1
f 30//4 35//4 9//4
f 10//4 11//4 22//4
f 15//4 3//4 4//4
f 10//2 22//2 15//2
f 30//2 9//2 2//2
f 2//2 1//2 30//2
f 4//2 9//2 10//2
f 10//2 15//2 4//2
f 2//2 9//2 5//2
f 1//3 29//3 30//3
f 28//3 31//3 32//3
f 32//3 29//3 27//3
f 1//3 27//3 29//3
f 31//4 28//4 14//4
f 33//4 6//4 7//4
f 14//4 38//4 31//4
f 24//4 12//4 13//4
f 7//4 8//4 19//4
f 19//4 24//4 7//4
f 13//4 33//4 7//4
f 28//4 33//4 14//4
f 7//4 24//4 13//4
f 12//4 24//4 26//4
f 26//54 25//54 12//54
f 23//4 22//4 11//4
f 11//25 12//25 21//25
f 25//25 21//25 12//25
f 18//6 16//6 21//6
f 3//24 8//24 7//24
f 4//8 7//8 6//8
f 9//4 35//4 36//4
f 37//4 38//4 14//4
f 14//27 9//27 36//27
f 12//23 11//23 10//23
f 13//11 10//11 9//11
f 3//4 15//4 17//4
f 17//55 16//55 3//55
f 20//4 19//4 8//4
f 8//22 3//22 18//22
f 16//22 18//22 3//22
f 16//43 17//43 23//43
f 17//48 15//48 22//48
f 19//41 20//41 26//41
f 20//40 18//40 25//40
f 5//4 6//4 33//4
f 33//56 34//56 5//56
f 36//57 35//57 30//57
f 28//49 27//49 34//49
f 37//58 32//58 31//58
f 2//21 34//21 27//21
f 67//21 74//21 75//21
f 68//2 39//2 40//2
f 40//2 43//2 73//2
f 42//4 41//4 53//4
f 68//2 40//2 73//2
f 48//4 47//4 73//4
f 73//2 43//2 42//2
f 53//4 60//4 49//4
f 49//2 48//2 53//2
f 73//2 42//2 48//2
f 66//3 65//3 69//3
f 39//3 68//3 67//3
f 67//3 65//3 39//3
f 69//3 65//3 70//3
f 66//4 69//4 76//4
f 76//4 52//4 51//4
f 44//4 71//4 66//4
f 57//4 46//4 45//4
f 51//4 50//4 62//4
f 62//4 57//4 45//4
f 45//4 44//4 51//4
f 66//4 76//4 44//4
f 51//4 62//4 45//4
f 64//4 62//4 50//4
f 49//4 60//4 61//4
f 64//59 50//59 63//59
f 59//22 63//22 50//22
f 49//60 61//60 59//60
f 59//6 54//6 56//6
f 41//10 42//10 45//10
f 42//11 43//11 44//11
f 47//4 52//4 76//4
f 76//56 75//56 74//56
f 73//4 47//4 76//4
f 50//7 51//7 48//7
f 51//8 52//8 47//8
f 55//4 53//4 41//4
f 46//4 57//4 58//4
f 55//61 41//61 54//61
f 56//25 54//25 41//25
f 46//62 58//62 56//62
f 61//43 55//43 54//43
f 60//42 53//42 55//42
f 64//41 58//41 57//41
f 63//40 56//40 58//40
f 43//9 40//9 72//9
f 71//4 44//4 43//4
f 68//45 73//45 74//45
f 72//44 65//44 66//44
f 75//63 76//63 69//63
f 65//1 72//1 40//1
f 79//1 80//1 78//1
f 81//21 82//21 84//21
f 98//32 78//32 80//32
f 82//33 92//33 91//33
f 92//34 93//34 90//34
f 93//35 94//35 89//35
f 94//36 95//36 88//36
f 95//37 96//37 87//37
f 96//38 97//38 86//38
f 97//39 98//39 85//39
f 77//3 81//3 83//3
f 92//2 82//2 81//2
f 81//2 77//2 97//2
f 77//2 78//2 98//2
f 93//2 92//2 81//2
f 95//2 94//2 96//2
f 97//2 96//2 93//2
f 77//2 98//2 97//2
f 94//2 93//2 96//2
f 85//4 80//4 79//4
f 79//4 83//4 90//4
f 83//4 84//4 91//4
f 86//4 85//4 79//4
f 88//4 87//4 89//4
f 90//4 89//4 86//4
f 83//4 91//4 90//4
f 87//4 86//4 89//4
f 127//1 134//1 135//1
f 128//4 99//4 100//4
f 100//4 103//4 133//4
f 102//4 101//4 113//4
f 128//4 100//4 133//4
f 108//4 107//4 133//4
f 133//4 103//4 102//4
f 113//4 120//4 109//4
f 109//4 108//4 113//4
f 133//4 102//4 108//4
f 126//3 125//3 130//3
f 99//3 128//3 127//3
f 127//3 130//3 125//3
f 129//3 126//3 130//3
f 126//2 129//2 136//2
f 136//4 112//4 111//4
f 104//4 131//4 126//4
f 117//4 106//4 105//4
f 111//4 110//4 122//4
f 122//2 117//2 105//2
f 105//2 104//2 111//2
f 126//2 136//2 104//2
f 111//2 122//2 105//2
f 124//4 122//4 110//4
f 109//4 120//4 121//4
f 124//5 110//5 123//5
f 119//64 123//64 110//64
f 109//65 121//65 119//65
f 119//6 114//6 116//6
f 101//7 102//7 105//7
f 102//8 103//8 104//8
f 112//4 136//4 135//4
f 135//9 134//9 112//9
f 133//4 107//4 112//4
f 110//10 111//10 108//10
f 111//11 112//11 107//11
f 115//4 113//4 101//4
f 106//4 117//4 118//4
f 115//59 101//59 114//59
f 116//22 114//22 101//22
f 106//60 118//60 116//60
f 121//16 115//16 114//16
f 120//26 113//26 115//26
f 124//14 118//14 117//14
f 123//13 116//13 118//13
f 103//56 100//56 132//56
f 131//4 104//4 103//4
f 128//29 133//29 134//29
f 132//28 125//28 126//28
f 135//66 136//66 129//66
f 125//21 132//21 100//21
f 138//1 140//1 139//1
f 144//21 142//21 141//21
f 140//32 138//32 158//32
f 151//33 152//33 142//33
f 150//34 153//34 152//34
f 149//35 154//35 153//35
f 148//36 155//36 154//36
f 147//37 156//37 155//37
f 146//38 157//38 156//38
f 145//39 158//39 157//39
f 143//3 141//3 137//3
f 153//4 154//4 156//4
f 155//4 156//4 154//4
f 158//4 138//4 137//4
f 153//4 156//4 157//4
f 157//4 158//4 137//4
f 137//4 141//4 153//4
f 152//4 153//4 141//4
f 141//4 142//4 152//4
f 146//2 147//2 149//2
f 148//2 149//2 147//2
f 151//2 144//2 143//2
f 146//2 149//2 150//2
f 150//2 151//2 143//2
f 143//2 139//2 146//2
f 145//2 146//2 139//2
f 139//2 140//2 145//2
f 195//21 194//21 187//21
f 188//4 193//4 167//4
f 168//4 169//4 180//4
f 173//4 161//4 162//4
f 168//4 180//4 173//4
f 188//4 167//4 160//4
f 160//4 159//4 188//4
f 162//4 167//4 168//4
f 168//4 173//4 162//4
f 160//4 167//4 163//4
f 159//3 185//3 190//3
f 186//3 189//3 190//3
f 190//3 187//3 159//3
f 188//3 159//3 187//3
f 186//4 191//4 164//4
f 165//4 166//4 177//4
f 182//4 170//4 171//4
f 165//2 177//2 182//2
f 186//2 164//2 189//2
f 172//4 196//4 189//4
f 182//2 171//2 165//2
f 164//2 171//2 172//2
f 172//2 189//2 164//2
f 170//4 182//4 184//4
f 184//60 183//60 170//60
f 181//4 180//4 169//4
f 169//22 170//22 179//22
f 183//22 179//22 170//22
f 176//6 174//6 179//6
f 161//23 166//23 165//23
f 162//11 165//11 164//11
f 196//4 172//4 167//4
f 167//4 193//4 194//4
f 195//56 196//56 194//56
f 170//24 169//24 168//24
f 171//8 168//8 167//8
f 161//4 173//4 175//4
f 175//54 174//54 161//54
f 178//4 177//4 166//4
f 166//25 161//25 176//25
f 174//25 176//25 161//25
f 174//16 175//16 181//16
f 175//15 173//15 180//15
f 177//14 178//14 184//14
f 178//13 176//13 183//13
f 160//9 163//9 192//9
f 164//4 191//4 192//4
f 194//19 193//19 188//19
f 186//67 185//67 192//67
f 195//68 190//68 189//68
f 159//1 160//1 192//1
f 197//1 198//1 200//1
f 200//2 204//2 203//2
f 204//21 202//21 201//21
f 202//4 198//4 197//4
f 203//53 201//53 197//53
f 200//6 198//6 202//6
