# Blender v2.79 (sub 0) OBJ File: 'pokoj scalone sprzety.blend'
# www.blender.org
mtllib lustro.mtl
o Plane.002
v 1.468611 1.987010 0.068365
v 1.467968 1.160716 0.116455
v 1.019522 1.987205 0.066138
v 1.018879 1.160911 0.114228
v 1.019481 1.969141 0.066961
v 1.449079 1.181934 0.115531
v 1.449608 1.968939 0.069142
v 1.037622 1.182131 0.113395
v 1.038152 1.969136 0.067006
v 1.449692 1.986346 0.058688
v 1.468659 1.986342 0.058734
v 1.468060 1.181135 0.105940
v 1.468016 1.160047 0.106824
v 1.037626 1.160238 0.104642
v 1.018927 1.160242 0.104597
v 1.019528 1.968347 0.057325
v 1.019570 1.986537 0.056507
v 1.038235 1.986533 0.056551
v 1.449083 1.160052 0.106778
v 1.449653 1.968145 0.059505
v 1.038196 1.968342 0.057369
v 1.468617 1.968140 0.059551
v 1.018971 1.181342 0.103714
v 1.449124 1.181140 0.105894
v 1.037667 1.181337 0.103758
vt 0.954247 0.469410
vt 0.954336 0.030839
vt 0.963238 0.489341
vt 0.444011 0.850925
vt 0.825319 0.010700
vt 0.825319 0.850966
vt 0.963238 0.989341
vt 0.954336 0.969124
vt 0.963238 0.510659
vt 0.990733 0.510664
vt 0.981772 0.949230
vt 0.981772 0.510659
vt 0.026596 0.892852
vt 0.009295 0.870350
vt 0.026621 0.870344
vt 0.425449 0.892843
vt 0.407929 0.870353
vt 0.425477 0.870346
vt 0.407904 0.892850
vt 0.407876 0.030086
vt 0.026592 0.010668
vt 0.407900 0.010667
vt 0.425450 0.030079
vt 0.425477 0.010659
vt 0.026568 0.030077
vt 0.009295 0.010676
vt 0.009268 0.030084
vt 0.935712 0.010899
vt 0.926754 0.850970
vt 0.926754 0.010659
vt 0.853024 0.892883
vt 0.844395 0.870504
vt 0.853024 0.010659
vt 0.908220 0.850970
vt 0.899261 0.010899
vt 0.908220 0.010659
vt 0.880516 0.873724
vt 0.871781 0.892883
vt 0.871558 0.873476
vt 0.981772 0.010664
vt 0.990733 0.449230
vt 0.981772 0.449235
vt 0.872099 0.033165
vt 0.963238 0.010659
vt 0.954291 0.489341
vt 0.954291 0.010659
vt 0.444011 0.010659
vt 0.954291 0.510659
vt 0.954247 0.530553
vt 0.954291 0.989341
vt 0.990733 0.949235
vt 0.009267 0.892859
vt 0.935713 0.851210
vt 0.844077 0.010773
vt 0.843854 0.030192
vt 0.844077 0.892998
vt 0.899262 0.851210
vt 0.880727 0.892997
vt 0.990733 0.010659
vt 0.880727 0.010773
vt 0.871781 0.010659
vn -0.0008 -0.9977 0.0684
vn 0.0052 -0.0588 -0.9983
vn 0.0008 0.9975 -0.0700
vn 0.0009 0.9966 -0.0821
vn 0.0024 -0.0418 -0.9991
vn 0.0024 -0.0419 -0.9991
vn 0.0052 -0.0419 -0.9991
vn 0.0052 -0.0449 -0.9990
vn 0.0024 -0.0449 -0.9990
vn 0.0024 -0.0588 -0.9983
vn -1.0000 0.0004 -0.0047
vn 1.0000 -0.0003 0.0081
vn 1.0000 -0.0004 0.0047
vn -1.0000 0.0021 -0.0051
vn -0.0009 -0.9966 0.0821
vn -1.0000 0.0004 -0.0050
vn -0.0008 -0.9975 0.0700
vn -0.0004 -0.9976 0.0692
vn 0.0004 0.9976 -0.0692
vn 0.0008 0.9977 -0.0684
vn 0.0052 -0.0418 -0.9991
vn 1.0000 -0.0021 0.0051
vn 1.0000 -0.0019 0.0051
vn 1.0000 -0.0006 0.0019
vn -1.0000 0.0003 -0.0082
vn -1.0000 0.0019 -0.0051
usemtl None
s off
f 14/1/1 19/2/1 4/3/1
f 7/4/2 8/5/2 9/6/2
f 1/7/3 10/8/3 3/9/3
f 8/10/4 24/11/4 25/12/4
f 14/13/5 23/14/5 25/15/5
f 13/16/6 24/17/6 12/18/6
f 19/19/7 25/15/7 24/17/7
f 20/20/8 18/21/8 10/22/8
f 22/23/9 10/22/9 11/24/9
f 12/18/10 20/20/10 22/23/10
f 21/25/9 17/26/9 18/21/9
f 25/15/10 16/27/10 21/25/10
f 6/28/11 20/29/11 24/30/11
f 2/31/12 12/32/12 1/33/12
f 8/34/13 21/35/13 9/36/13
f 5/37/14 17/38/14 16/39/14
f 9/40/15 20/41/15 7/42/15
f 5/37/16 16/39/16 23/43/16
f 2/44/17 4/3/17 19/2/17
f 15/45/18 14/1/18 4/3/18
f 19/2/18 13/46/18 2/44/18
f 7/4/2 6/47/2 8/5/2
f 17/48/19 3/9/19 18/49/19
f 1/7/19 11/50/19 10/8/19
f 10/8/20 18/49/20 3/9/20
f 8/10/4 6/51/4 24/11/4
f 14/13/5 15/52/5 23/14/5
f 13/16/6 19/19/6 24/17/6
f 19/19/21 14/13/21 25/15/21
f 20/20/8 21/25/8 18/21/8
f 22/23/9 20/20/9 10/22/9
f 12/18/10 24/17/10 20/20/10
f 21/25/9 16/27/9 17/26/9
f 25/15/10 23/14/10 16/27/10
f 6/28/11 7/53/11 20/29/11
f 11/54/22 1/33/22 22/55/22
f 2/31/23 13/56/23 12/32/23
f 12/32/24 22/55/24 1/33/24
f 8/34/13 25/57/13 21/35/13
f 5/37/14 3/58/14 17/38/14
f 9/40/15 21/59/15 20/41/15
f 4/60/25 5/37/25 23/43/25
f 23/43/26 15/61/26 4/60/26
