# Blender v2.79 (sub 0) OBJ File: 'pokoj scalone sprzety.blend'
# www.blender.org
mtllib lustro.mtl
o Plane.002
v 1.468611 1.987010 0.068365
v 1.467968 1.160716 0.116455
v 1.019522 1.987205 0.066138
v 1.018879 1.160911 0.114228
v 1.019481 1.969141 0.066961
v 1.449079 1.181934 0.115531
v 1.449608 1.968939 0.069142
v 1.037622 1.182131 0.113395
v 1.038152 1.969136 0.067006
v 1.449692 1.986346 0.058688
v 1.468659 1.986342 0.058734
v 1.468060 1.181135 0.105940
v 1.468016 1.160047 0.106824
v 1.037626 1.160238 0.104642
v 1.018927 1.160242 0.104597
v 1.019528 1.968347 0.057325
v 1.019570 1.986537 0.056507
v 1.038235 1.986533 0.056551
v 1.449083 1.160052 0.106778
v 1.449653 1.968145 0.059505
v 1.038196 1.968342 0.057369
v 1.468617 1.968140 0.059551
v 1.018971 1.181342 0.103714
v 1.449124 1.181140 0.105894
v 1.037667 1.181337 0.103758
vn -0.0008 -0.9977 0.0684
vn 0.0052 -0.0588 -0.9983
vn 0.0008 0.9975 -0.0700
vn 0.0009 0.9966 -0.0821
vn 0.0024 -0.0418 -0.9991
vn 0.0024 -0.0419 -0.9991
vn 0.0052 -0.0419 -0.9991
vn 0.0052 -0.0449 -0.9990
vn 0.0024 -0.0449 -0.9990
vn 0.0024 -0.0588 -0.9983
vn -1.0000 0.0004 -0.0047
vn 1.0000 -0.0003 0.0081
vn 1.0000 -0.0004 0.0047
vn -1.0000 0.0021 -0.0051
vn -0.0009 -0.9966 0.0821
vn -1.0000 0.0004 -0.0050
vn -0.0008 -0.9975 0.0700
vn -0.0004 -0.9976 0.0692
vn 0.0004 0.9976 -0.0692
vn 0.0008 0.9977 -0.0684
vn 0.0052 -0.0418 -0.9991
vn 1.0000 -0.0021 0.0051
vn 1.0000 -0.0019 0.0051
vn 1.0000 -0.0006 0.0019
vn -1.0000 0.0003 -0.0082
vn -1.0000 0.0019 -0.0051
usemtl None
s off
f 14//1 19//1 4//1
f 7//2 8//2 9//2
f 1//3 10//3 3//3
f 8//4 24//4 25//4
f 14//5 23//5 25//5
f 13//6 24//6 12//6
f 19//7 25//7 24//7
f 20//8 18//8 10//8
f 22//9 10//9 11//9
f 12//10 20//10 22//10
f 21//9 17//9 18//9
f 25//10 16//10 21//10
f 6//11 20//11 24//11
f 2//12 12//12 1//12
f 8//13 21//13 9//13
f 5//14 17//14 16//14
f 9//15 20//15 7//15
f 5//16 16//16 23//16
f 2//17 4//17 19//17
f 15//18 14//18 4//18
f 19//18 13//18 2//18
f 7//2 6//2 8//2
f 17//19 3//19 18//19
f 1//19 11//19 10//19
f 10//20 18//20 3//20
f 8//4 6//4 24//4
f 14//5 15//5 23//5
f 13//6 19//6 24//6
f 19//21 14//21 25//21
f 20//8 21//8 18//8
f 22//9 20//9 10//9
f 12//10 24//10 20//10
f 21//9 16//9 17//9
f 25//10 23//10 16//10
f 6//11 7//11 20//11
f 11//22 1//22 22//22
f 2//23 13//23 12//23
f 12//24 22//24 1//24
f 8//13 25//13 21//13
f 5//14 3//14 17//14
f 9//15 21//15 20//15
f 4//25 5//25 23//25
f 23//26 15//26 4//26
o Cylinder.016
v 1.246155 2.077725 0.130128
v 1.245879 2.077674 0.130115
v 1.245617 2.077578 0.130075
v 1.245381 2.077439 0.130010
v 1.245180 2.077263 0.129923
v 1.245020 2.077058 0.129817
v 1.244909 2.076830 0.129695
v 1.244850 2.076588 0.129564
v 1.244846 2.076342 0.129427
v 1.244896 2.076102 0.129290
v 1.245000 2.075876 0.129159
v 1.245153 2.075673 0.129037
v 1.245348 2.075501 0.128931
v 1.245580 2.075367 0.128844
v 1.245838 2.075275 0.128779
v 1.246112 2.075230 0.128739
v 1.246393 2.075233 0.128726
v 1.246670 2.075284 0.128739
v 1.246931 2.075380 0.128779
v 1.247167 2.075519 0.128844
v 1.247368 2.075694 0.128931
v 1.247528 2.075900 0.129037
v 1.247639 2.076128 0.129159
v 1.247698 2.076370 0.129290
v 1.247702 2.076616 0.129427
v 1.247652 2.076856 0.129564
v 1.247548 2.077082 0.129695
v 1.247395 2.077285 0.129817
v 1.247200 2.077457 0.129923
v 1.246969 2.077591 0.130010
v 1.246711 2.077682 0.130075
v 1.246436 2.077728 0.130115
v 1.241692 2.124393 0.046450
v 1.241416 2.124342 0.046436
v 1.241155 2.124245 0.046397
v 1.240919 2.124107 0.046332
v 1.240717 2.123931 0.046245
v 1.240557 2.123725 0.046138
v 1.240446 2.123497 0.046017
v 1.240387 2.123255 0.045885
v 1.240383 2.123010 0.045749
v 1.240434 2.122769 0.045612
v 1.240537 2.122543 0.045480
v 1.240690 2.122340 0.045359
v 1.240886 2.122169 0.045253
v 1.241117 2.122034 0.045166
v 1.241375 2.121943 0.045101
v 1.241650 2.121898 0.045061
v 1.241930 2.121900 0.045047
v 1.242207 2.121951 0.045061
v 1.242468 2.122047 0.045101
v 1.242704 2.122186 0.045166
v 1.242905 2.122362 0.045253
v 1.243065 2.122568 0.045359
v 1.243176 2.122796 0.045480
v 1.243235 2.123037 0.045612
v 1.243240 2.123283 0.045749
v 1.243189 2.123523 0.045885
v 1.243085 2.123749 0.046017
v 1.242933 2.123952 0.046138
v 1.242737 2.124124 0.046245
v 1.242506 2.124258 0.046332
v 1.242248 2.124350 0.046397
v 1.241973 2.124395 0.046436
v 1.241368 2.127790 0.047082
v 1.240458 2.127623 0.047038
v 1.240509 2.127079 0.048014
v 1.239599 2.127305 0.046907
v 1.239650 2.126762 0.047883
v 1.238823 2.126849 0.046694
v 1.238874 2.126305 0.047670
v 1.238159 2.126271 0.046407
v 1.238210 2.125727 0.047383
v 1.237634 2.125593 0.046058
v 1.237685 2.125049 0.047034
v 1.237268 2.124843 0.045659
v 1.237319 2.124299 0.046635
v 1.237074 2.124048 0.045226
v 1.237125 2.123504 0.046202
v 1.237060 2.123240 0.044775
v 1.237111 2.122696 0.045751
v 1.237227 2.122448 0.044325
v 1.237278 2.121905 0.045301
v 1.237568 2.121705 0.043891
v 1.237619 2.121161 0.044867
v 1.238070 2.121038 0.043492
v 1.238121 2.120494 0.044468
v 1.238714 2.120473 0.043142
v 1.238765 2.119929 0.044118
v 1.239475 2.120031 0.042854
v 1.239526 2.119488 0.043830
v 1.240323 2.119730 0.042640
v 1.240374 2.119187 0.043616
v 1.241228 2.119582 0.042508
v 1.241278 2.119038 0.043484
v 1.242152 2.119591 0.042463
v 1.242203 2.119047 0.043440
v 1.243061 2.119757 0.042507
v 1.243112 2.119214 0.043484
v 1.243921 2.120075 0.042638
v 1.243971 2.119532 0.043614
v 1.244697 2.120532 0.042851
v 1.244748 2.119988 0.043827
v 1.245360 2.121110 0.043138
v 1.245411 2.120567 0.044114
v 1.245885 2.121788 0.043488
v 1.245936 2.121244 0.044464
v 1.246252 2.122538 0.043887
v 1.246303 2.121994 0.044863
v 1.246446 2.123333 0.044320
v 1.246497 2.122789 0.045296
v 1.246460 2.124141 0.044770
v 1.246511 2.123597 0.045746
v 1.246293 2.124932 0.045221
v 1.246344 2.124389 0.046197
v 1.245952 2.125676 0.045654
v 1.246003 2.125132 0.046630
v 1.245450 2.126343 0.046053
v 1.245501 2.125799 0.047030
v 1.244806 2.126908 0.046404
v 1.244857 2.126364 0.047380
v 1.244045 2.127350 0.046691
v 1.244096 2.126806 0.047667
v 1.243196 2.127650 0.046905
v 1.243247 2.127107 0.047881
v 1.242292 2.127799 0.047037
v 1.242343 2.127255 0.048013
v 1.241419 2.127246 0.048058
vn -0.1800 0.8549 0.4865
vn -0.3686 0.8032 0.4680
vn -0.5424 0.7212 0.4309
vn -0.6963 0.6102 0.3780
vn -0.8224 0.4769 0.3102
vn -0.9170 0.3254 0.2306
vn -0.9767 0.1613 0.1418
vn -0.9988 -0.0099 0.0479
vn -0.9824 -0.1804 -0.0478
vn -0.9283 -0.3436 -0.1421
vn -0.8389 -0.4932 -0.2303
vn -0.7170 -0.6242 -0.3104
vn -0.5681 -0.7310 -0.3779
vn -0.3960 -0.8108 -0.4310
vn -0.2096 -0.8587 -0.4677
vn -0.0151 -0.8738 -0.4861
vn 0.1809 -0.8548 -0.4865
vn 0.3684 -0.8035 -0.4677
vn 0.5428 -0.7207 -0.4312
vn 0.6959 -0.6108 -0.3777
vn 0.8228 -0.4763 -0.3101
vn 0.9172 -0.3252 -0.2303
vn 0.9767 -0.1613 -0.1417
vn 0.9988 0.0088 -0.0481
vn 0.9826 0.1795 0.0479
vn 0.9289 0.3420 0.1419
vn 0.8388 0.4933 0.2303
vn 0.7169 0.6246 0.3098
vn 0.5673 0.7316 0.3780
vn 0.3960 0.8108 0.4311
vn 0.0466 -0.4865 0.8724
vn 0.2096 0.8586 0.4678
vn 0.0152 0.8736 0.4864
vn -0.0472 0.4868 -0.8722
vn 0.0150 0.8739 0.4859
vn 0.2093 0.8589 0.4675
vn 0.3961 0.8108 0.4310
vn 0.5673 0.7314 0.3784
vn 0.7170 0.6242 0.3102
vn 0.8387 0.4932 0.2310
vn 0.9286 0.3428 0.1425
vn 0.9825 0.1795 0.0489
vn 0.9989 0.0090 -0.0469
vn 0.9768 -0.1615 -0.1408
vn 0.9171 -0.3261 -0.2294
vn 0.8222 -0.4780 -0.3090
vn 0.6956 -0.6116 -0.3770
vn 0.5427 -0.7214 -0.4303
vn 0.3684 -0.8040 -0.4668
vn 0.1802 -0.8553 -0.4858
vn -0.0148 -0.8738 -0.4861
vn -0.2095 -0.8591 -0.4670
vn -0.3960 -0.8109 -0.4309
vn -0.5672 -0.7317 -0.3780
vn -0.7169 -0.6243 -0.3104
vn -0.8388 -0.4930 -0.2310
vn -0.9285 -0.3428 -0.1426
vn -0.9826 -0.1795 -0.0487
vn -0.9989 -0.0091 0.0469
vn -0.9768 0.1616 0.1409
vn -0.9172 0.3260 0.2292
vn -0.8224 0.4777 0.3089
vn -0.6957 0.6114 0.3770
vn -0.5424 0.7217 0.4300
vn -0.3686 0.8039 0.4668
vn -0.1802 0.8553 0.4857
vn 0.0475 -0.4873 0.8720
vn 0.0472 -0.4867 0.8723
vn -0.1799 0.8553 0.4859
vn -0.3686 0.8033 0.4679
vn -0.5422 0.7214 0.4308
vn -0.6956 0.6110 0.3779
vn -0.8220 0.4777 0.3100
vn -0.9170 0.3257 0.2302
vn -0.9768 0.1607 0.1419
vn -0.9988 -0.0099 0.0478
vn -0.9828 -0.1785 -0.0479
vn -0.9284 -0.3435 -0.1418
vn -0.8388 -0.4933 -0.2303
vn -0.7168 -0.6246 -0.3099
vn -0.5671 -0.7319 -0.3777
vn -0.3956 -0.8108 -0.4313
vn -0.2095 -0.8587 -0.4677
vn -0.0152 -0.8735 -0.4866
vn 0.1802 -0.8549 -0.4866
vn 0.5423 -0.7212 -0.4311
vn 0.6953 -0.6113 -0.3780
vn 0.8217 -0.4782 -0.3100
vn 0.9170 -0.3254 -0.2306
vn 0.9768 -0.1603 -0.1419
vn 0.9988 0.0093 -0.0479
vn 0.9822 0.1816 0.0480
vn 0.9284 0.3435 0.1420
vn 0.8389 0.4930 0.2307
vn 0.7169 0.6246 0.3099
vn 0.5672 0.7318 0.3778
vn 0.0463 -0.4879 0.8717
vn 0.0470 -0.4912 0.8698
vn 0.0471 -0.4849 0.8733
vn 0.0457 -0.4884 0.8714
vn 0.0487 -0.4817 0.8750
vn 0.0470 -0.4903 0.8703
vn 0.0458 -0.4823 0.8748
vn 0.0468 -0.4923 0.8692
vn 0.0472 -0.4890 0.8710
vn 0.0476 -0.4886 0.8712
vn 0.0493 -0.4892 0.8708
vn 0.0454 -0.4856 0.8730
vn 0.0452 -0.4891 0.8710
vn 0.0469 -0.4872 0.8720
vn 0.0466 -0.4817 0.8751
vn 0.0464 -0.4856 0.8729
vn 0.0459 -0.4863 0.8726
vn 0.0462 -0.4878 0.8717
vn 0.0465 -0.4864 0.8725
vn 0.0467 -0.4869 0.8722
vn 0.0463 -0.4862 0.8726
vn 0.0468 -0.4877 0.8718
vn 0.0465 -0.4865 0.8725
vn 0.0465 -0.4867 0.8723
vn 0.0467 -0.4866 0.8724
vn 0.0465 -0.4866 0.8724
vn 0.2097 0.8585 0.4680
vn 0.0144 0.8736 0.4864
vn -0.0472 0.4863 -0.8725
vn -0.0472 0.4869 -0.8722
vn -0.0471 0.4867 -0.8723
vn -0.0469 0.4861 -0.8726
vn -0.0464 0.4864 -0.8725
vn -0.0471 0.4861 -0.8726
vn -0.0471 0.4873 -0.8719
vn -0.0469 0.4849 -0.8733
vn -0.0472 0.4861 -0.8726
vn -0.0470 0.4871 -0.8721
vn -0.0466 0.4852 -0.8732
vn -0.0472 0.4880 -0.8716
vn -0.0470 0.4857 -0.8729
vn -0.0471 0.4872 -0.8720
vn -0.0471 0.4866 -0.8723
vn -0.0472 0.4867 -0.8723
vn -0.0473 0.4876 -0.8718
vn -0.0471 0.4870 -0.8722
vn -0.0471 0.4871 -0.8721
vn -0.0472 0.4872 -0.8720
vn -0.0471 0.4869 -0.8722
vn 0.0148 0.8735 0.4866
vn 0.2095 0.8589 0.4673
vn 0.3960 0.8107 0.4311
vn 0.5673 0.7317 0.3778
vn 0.7168 0.6243 0.3106
vn 0.8388 0.4931 0.2310
vn 0.9285 0.3427 0.1427
vn 0.9825 0.1797 0.0487
vn 0.9989 0.0091 -0.0469
vn 0.9768 -0.1616 -0.1408
vn 0.9171 -0.3262 -0.2293
vn 0.8223 -0.4778 -0.3089
vn 0.6957 -0.6114 -0.3770
vn 0.5425 -0.7215 -0.4302
vn 0.3687 -0.8039 -0.4667
vn 0.1802 -0.8555 -0.4854
vn -0.0150 -0.8739 -0.4859
vn -0.2093 -0.8587 -0.4679
vn -0.3960 -0.8108 -0.4309
vn -0.5675 -0.7316 -0.3778
vn -0.7169 -0.6243 -0.3102
vn -0.8387 -0.4931 -0.2311
vn -0.9285 -0.3429 -0.1427
vn -0.9826 -0.1795 -0.0488
vn -0.9989 -0.0090 0.0469
vn -0.9767 0.1617 0.1409
vn -0.9172 0.3259 0.2293
vn -0.8222 0.4781 0.3089
vn -0.6957 0.6115 0.3769
vn -0.5425 0.7215 0.4303
vn -0.3685 0.8039 0.4668
vn -0.1802 0.8554 0.4856
vn 0.0476 -0.4872 0.8720
vn 0.0474 -0.4868 0.8722
vn 0.0474 -0.4866 0.8723
vn 0.0474 -0.4870 0.8721
vn 0.0473 -0.4866 0.8724
vn 0.0466 -0.4870 0.8722
vn 0.0472 -0.4870 0.8721
vn 0.0470 -0.4875 0.8718
vn 0.0473 -0.4869 0.8722
vn 0.0473 -0.4868 0.8722
vn 0.0462 -0.4863 0.8726
vn 0.0472 -0.4869 0.8722
vn 0.0473 -0.4870 0.8721
vn 0.0473 -0.4873 0.8719
vn 0.0472 -0.4871 0.8721
vn 0.0471 -0.4868 0.8723
vn 0.0473 -0.4867 0.8723
vn 0.0474 -0.4861 0.8726
vn 0.0471 -0.4859 0.8727
vn 0.0470 -0.4874 0.8719
vn 0.0474 -0.4869 0.8722
vn 0.0474 -0.4867 0.8723
vn 0.0468 -0.4870 0.8721
vn 0.0466 -0.4871 0.8721
vn 0.0473 -0.4865 0.8724
vn 0.0472 -0.4866 0.8723
vn 0.0464 -0.4866 0.8724
vn 0.0464 -0.4868 0.8723
vn 0.0466 -0.4864 0.8725
vn 0.0471 -0.4868 0.8722
vn 0.0469 -0.4871 0.8721
vn 0.0465 -0.4868 0.8723
vn 0.0471 -0.4867 0.8723
vn 0.0470 -0.4864 0.8725
vn 0.0464 -0.4870 0.8722
vn 0.0469 -0.4860 0.8727
vn 0.0472 -0.4860 0.8727
vn 0.0465 -0.4872 0.8720
vn 0.0468 -0.4871 0.8721
vn 0.0476 -0.4871 0.8721
vn 0.0473 -0.4868 0.8723
vn 0.0474 -0.4860 0.8727
vn 0.0475 -0.4867 0.8723
vn 0.0474 -0.4871 0.8720
usemtl None
s off
f 59//27 26//27 58//27
f 59//28 28//28 27//28
f 61//29 28//29 60//29
f 62//30 29//30 61//30
f 63//31 30//31 62//31
f 63//32 32//32 31//32
f 65//33 32//33 64//33
f 66//34 33//34 65//34
f 66//35 35//35 34//35
f 67//36 36//36 35//36
f 69//37 36//37 68//37
f 70//38 37//38 69//38
f 71//39 38//39 70//39
f 71//40 40//40 39//40
f 72//41 41//41 40//41
f 74//42 41//42 73//42
f 74//43 43//43 42//43
f 75//44 44//44 43//44
f 76//45 45//45 44//45
f 78//46 45//46 77//46
f 78//47 47//47 46//47
f 80//48 47//48 79//48
f 81//49 48//49 80//49
f 82//50 49//50 81//50
f 82//51 51//51 50//51
f 84//52 51//52 83//52
f 84//53 53//53 52//53
f 85//54 54//54 53//54
f 86//55 55//55 54//55
f 87//56 56//56 55//56
f 42//57 50//57 26//57
f 89//58 56//58 88//58
f 58//59 57//59 89//59
f 117//60 101//60 133//60
f 90//61 152//61 151//61
f 151//62 150//62 149//62
f 149//63 148//63 147//63
f 147//64 146//64 145//64
f 145//65 144//65 143//65
f 143//66 142//66 141//66
f 141//67 140//67 139//67
f 139//68 138//68 137//68
f 137//69 136//69 135//69
f 135//70 134//70 133//70
f 133//71 132//71 131//71
f 129//72 132//72 130//72
f 127//73 130//73 128//73
f 125//74 128//74 126//74
f 123//75 126//75 124//75
f 121//76 124//76 122//76
f 119//77 122//77 120//77
f 117//78 120//78 118//78
f 115//79 118//79 116//79
f 113//80 116//80 114//80
f 111//81 114//81 112//81
f 109//82 112//82 110//82
f 107//83 110//83 108//83
f 105//84 108//84 106//84
f 103//85 106//85 104//85
f 101//86 104//86 102//86
f 99//87 102//87 100//87
f 99//88 98//88 97//88
f 97//89 96//89 95//89
f 95//90 94//90 93//90
f 93//91 92//91 91//91
f 91//92 153//92 90//92
f 64//93 63//93 102//93
f 130//94 79//94 78//94
f 59//95 27//95 26//95
f 59//96 60//96 28//96
f 61//97 29//97 28//97
f 62//98 30//98 29//98
f 63//99 31//99 30//99
f 63//100 64//100 32//100
f 65//101 33//101 32//101
f 66//102 34//102 33//102
f 66//103 67//103 35//103
f 67//104 68//104 36//104
f 69//105 37//105 36//105
f 70//106 38//106 37//106
f 71//107 39//107 38//107
f 71//108 72//108 40//108
f 72//109 73//109 41//109
f 74//110 42//110 41//110
f 74//111 75//111 43//111
f 75//44 76//44 44//44
f 76//112 77//112 45//112
f 78//113 46//113 45//113
f 78//114 79//114 47//114
f 80//115 48//115 47//115
f 81//116 49//116 48//116
f 82//117 50//117 49//117
f 82//118 83//118 51//118
f 84//119 52//119 51//119
f 84//120 85//120 53//120
f 85//121 86//121 54//121
f 86//122 87//122 55//122
f 87//56 88//56 56//56
f 26//123 27//123 28//123
f 28//124 29//124 30//124
f 30//125 31//125 32//125
f 32//126 33//126 34//126
f 34//127 35//127 36//127
f 36//128 37//128 38//128
f 38//129 39//129 40//129
f 40//130 41//130 42//130
f 42//131 43//131 44//131
f 44//132 45//132 46//132
f 46//133 47//133 48//133
f 48//134 49//134 50//134
f 50//135 51//135 52//135
f 52//136 53//136 54//136
f 54//129 55//129 56//129
f 56//137 57//137 26//137
f 26//138 28//138 30//138
f 30//139 32//139 34//139
f 34//140 36//140 38//140
f 38//141 40//141 34//141
f 42//142 44//142 50//142
f 46//143 48//143 50//143
f 50//141 52//141 26//141
f 54//144 56//144 26//144
f 26//145 30//145 34//145
f 34//146 40//146 42//146
f 44//143 46//143 50//143
f 52//147 54//147 26//147
f 26//148 34//148 42//148
f 89//149 57//149 56//149
f 58//150 26//150 57//150
f 149//151 147//151 145//151
f 145//152 143//152 149//152
f 141//153 139//153 133//153
f 137//154 135//154 133//154
f 133//155 131//155 129//155
f 129//156 127//156 125//156
f 125//157 123//157 121//157
f 121//158 119//158 125//158
f 117//151 115//151 113//151
f 113//159 111//159 117//159
f 109//160 107//160 105//160
f 105//151 103//151 109//151
f 101//160 99//160 97//160
f 97//161 95//161 93//161
f 93//162 91//162 90//162
f 90//163 151//163 93//163
f 149//164 143//164 141//164
f 139//165 137//165 133//165
f 133//166 129//166 117//166
f 125//167 119//167 117//167
f 117//168 111//168 109//168
f 109//169 103//169 101//169
f 101//153 97//153 149//153
f 93//170 151//170 149//170
f 149//171 141//171 133//171
f 129//166 125//166 117//166
f 117//171 109//171 101//171
f 97//152 93//152 149//152
f 149//60 133//60 101//60
f 90//172 153//172 152//172
f 151//173 152//173 150//173
f 149//174 150//174 148//174
f 147//175 148//175 146//175
f 145//176 146//176 144//176
f 143//177 144//177 142//177
f 141//178 142//178 140//178
f 139//179 140//179 138//179
f 137//180 138//180 136//180
f 135//181 136//181 134//181
f 133//182 134//182 132//182
f 129//183 131//183 132//183
f 127//184 129//184 130//184
f 125//185 127//185 128//185
f 123//186 125//186 126//186
f 121//187 123//187 124//187
f 119//188 121//188 122//188
f 117//189 119//189 120//189
f 115//190 117//190 118//190
f 113//191 115//191 116//191
f 111//192 113//192 114//192
f 109//193 111//193 112//193
f 107//194 109//194 110//194
f 105//195 107//195 108//195
f 103//196 105//196 106//196
f 101//197 103//197 104//197
f 99//198 101//198 102//198
f 99//199 100//199 98//199
f 97//200 98//200 96//200
f 95//201 96//201 94//201
f 93//202 94//202 92//202
f 91//203 92//203 153//203
f 80//204 79//204 132//204
f 132//205 134//205 80//205
f 136//206 138//206 82//206
f 140//207 142//207 83//207
f 144//208 84//208 142//208
f 86//209 85//209 146//209
f 152//210 153//210 58//210
f 92//210 94//210 60//210
f 96//211 61//211 60//211
f 62//212 61//212 98//212
f 104//205 106//205 66//205
f 108//207 110//207 68//207
f 112//213 114//213 70//213
f 116//214 71//214 70//214
f 120//215 122//215 74//215
f 124//210 126//210 76//210
f 128//216 130//216 77//216
f 130//217 78//217 77//217
f 122//218 124//218 75//218
f 114//94 116//94 70//94
f 106//206 108//206 67//206
f 98//213 61//213 96//213
f 153//215 92//215 59//215
f 85//219 84//219 144//219
f 138//220 140//220 83//220
f 80//207 134//207 136//207
f 81//221 80//221 136//221
f 142//222 84//222 83//222
f 94//216 96//216 60//216
f 110//220 112//220 69//220
f 126//212 128//212 77//212
f 126//223 77//223 76//223
f 82//224 81//224 136//224
f 83//225 82//225 138//225
f 124//226 76//226 75//226
f 122//227 75//227 74//227
f 146//228 85//228 144//228
f 148//229 86//229 146//229
f 120//230 74//230 73//230
f 120//231 73//231 72//231
f 148//232 87//232 86//232
f 148//215 150//215 87//215
f 120//233 72//233 118//233
f 72//234 71//234 118//234
f 87//235 150//235 88//235
f 88//219 150//219 152//219
f 118//236 71//236 116//236
f 112//237 70//237 69//237
f 89//231 88//231 152//231
f 58//238 89//238 152//238
f 110//239 69//239 68//239
f 108//240 68//240 67//240
f 59//241 58//241 153//241
f 60//242 59//242 92//242
f 106//225 67//225 66//225
f 104//243 66//243 65//243
f 100//207 62//207 98//207
f 100//244 63//244 62//244
f 104//245 65//245 64//245
f 104//246 64//246 102//246
f 100//205 102//205 63//205
f 130//247 132//247 79//247
o NurbsPath.001
v 1.031903 1.957926 0.069229
v 1.032783 1.956737 0.070720
v 1.033702 1.955562 0.069242
v 1.032822 1.956751 0.067750
v 1.112412 2.019582 0.070553
v 1.113299 2.018398 0.072044
v 1.114225 2.017229 0.070566
v 1.113339 2.018412 0.069074
v 1.164767 2.060189 0.071463
v 1.165656 2.059007 0.072955
v 1.166589 2.057843 0.071477
v 1.165700 2.059025 0.069985
v 1.198188 2.086193 0.072196
v 1.199063 2.085000 0.073688
v 1.199994 2.083834 0.072209
v 1.199120 2.085027 0.070718
v 1.219314 2.102117 0.072847
v 1.220126 2.100878 0.074337
v 1.221016 2.099682 0.072857
v 1.220204 2.100921 0.071368
v 1.232652 2.110731 0.073398
v 1.233218 2.109352 0.074878
v 1.233887 2.108030 0.073389
v 1.233320 2.109409 0.071910
v 1.242191 2.113459 0.073817
v 1.242127 2.111945 0.075272
v 1.242171 2.110489 0.073759
v 1.242234 2.112003 0.072304
v 1.251503 2.110648 0.074076
v 1.250834 2.109272 0.075514
v 1.250250 2.107957 0.073983
v 1.250919 2.109334 0.072545
v 1.264489 2.102253 0.074194
v 1.263620 2.100990 0.075629
v 1.262813 2.099802 0.074096
v 1.263682 2.101066 0.072660
v 1.289163 2.084467 0.074137
v 1.288266 2.083224 0.075573
v 1.287415 2.082068 0.074039
v 1.288312 2.083312 0.072604
v 1.343541 2.044431 0.073576
v 1.342638 2.043192 0.075012
v 1.341769 2.042049 0.073479
v 1.342672 2.043288 0.072043
v 1.457050 1.959258 0.071841
v 1.456140 1.958024 0.073277
v 1.455257 1.956891 0.071744
v 1.456167 1.958125 0.070309
vn -0.6104 0.7921 -0.0046
vn 0.0138 0.0034 -0.9999
vn -0.6080 0.7939 -0.0042
vn -0.0125 -0.0058 0.9999
vn -0.0121 -0.0056 0.9999
vn 0.6080 -0.7939 0.0044
vn 0.6104 -0.7921 0.0042
vn 0.0152 0.0057 -0.9998
vn 0.0141 0.0036 -0.9999
vn -0.0147 -0.0063 0.9998
vn 0.6134 -0.7897 0.0036
vn -0.6134 0.7897 -0.0052
vn 0.0172 0.0120 -0.9998
vn -0.0213 -0.0066 0.9997
vn 0.6080 -0.7939 0.0027
vn -0.6079 0.7940 -0.0060
vn 0.0172 0.0276 -0.9995
vn -0.0352 -0.0011 0.9994
vn 0.5734 -0.8193 0.0009
vn -0.5728 0.8196 -0.0054
vn 0.0085 0.0779 -0.9969
vn -0.0600 0.0405 0.9974
vn 0.4186 -0.9081 -0.0051
vn -0.4151 0.9097 0.0012
vn 0.0365 0.1473 -0.9884
vn -0.0349 0.1085 0.9935
vn -0.0068 -0.9998 -0.0183
vn 0.4212 0.9063 0.0334
vn 0.0066 0.9998 0.0204
vn -0.0041 0.0350 0.9994
vn 0.0536 0.0773 -0.9955
vn 0.5639 0.8251 0.0346
vn -0.4248 -0.9048 -0.0286
vn -0.0148 -0.0163 0.9998
vn 0.0270 0.0348 -0.9990
vn 0.5886 0.8077 0.0342
vn -0.5644 -0.8249 -0.0311
vn -0.0139 -0.0276 0.9995
vn 0.0166 0.0314 -0.9994
vn 0.5965 0.8019 0.0335
vn -0.0101 -0.0307 0.9995
vn -0.5887 -0.8077 -0.0314
vn -0.5965 -0.8020 -0.0319
vn 0.6002 0.7992 0.0332
vn 0.0125 0.0340 -0.9993
vn -0.0087 -0.0320 0.9994
vn -0.6002 -0.7992 -0.0322
vn 0.0110 0.0350 -0.9993
usemtl None
s 1
f 158//248 157//249 154//250
f 159//251 154//250 155//252
f 156//253 159//251 155//252
f 157//249 160//254 156//253
f 158//248 165//255 161//256
f 163//257 158//248 159//251
f 164//258 159//251 160//254
f 161//256 164//258 160//254
f 162//259 169//260 165//255
f 167//261 162//259 163//257
f 168//262 163//257 164//258
f 165//255 168//262 164//258
f 166//263 173//264 169//260
f 171//265 166//263 167//261
f 172//266 167//261 168//262
f 169//260 172//266 168//262
f 170//267 177//268 173//264
f 175//269 170//267 171//265
f 176//270 171//265 172//266
f 173//264 176//270 172//266
f 174//271 181//272 177//268
f 179//273 174//271 175//269
f 180//274 175//269 176//270
f 177//268 180//274 176//270
f 182//275 181//272 178//276
f 179//273 182//275 178//276
f 180//274 183//277 179//273
f 185//278 180//274 181//272
f 186//279 185//278 182//275
f 183//277 186//279 182//275
f 184//280 187//281 183//277
f 189//282 184//280 185//278
f 190//283 189//282 186//279
f 187//281 190//283 186//279
f 188//284 191//285 187//281
f 193//286 188//284 189//282
f 194//287 193//286 190//283
f 195//288 190//283 191//285
f 192//289 195//288 191//285
f 193//286 196//290 192//289
f 198//291 197//292 194//287
f 199//293 194//287 195//288
f 196//290 199//293 195//288
f 197//292 200//294 196//290
f 158//248 161//256 157//249
f 159//251 158//248 154//250
f 156//253 160//254 159//251
f 157//249 161//256 160//254
f 158//248 162//259 165//255
f 163//257 162//259 158//248
f 164//258 163//257 159//251
f 161//256 165//255 164//258
f 162//259 166//263 169//260
f 167//261 166//263 162//259
f 168//262 167//261 163//257
f 165//255 169//260 168//262
f 166//263 170//267 173//264
f 171//265 170//267 166//263
f 172//266 171//265 167//261
f 169//260 173//264 172//266
f 170//267 174//271 177//268
f 175//269 174//271 170//267
f 176//270 175//269 171//265
f 173//264 177//268 176//270
f 174//271 178//276 181//272
f 179//273 178//276 174//271
f 180//274 179//273 175//269
f 177//268 181//272 180//274
f 182//275 185//278 181//272
f 179//273 183//277 182//275
f 180//274 184//280 183//277
f 185//278 184//280 180//274
f 186//279 189//282 185//278
f 183//277 187//281 186//279
f 184//280 188//284 187//281
f 189//282 188//284 184//280
f 190//283 193//286 189//282
f 187//281 191//285 190//283
f 188//284 192//289 191//285
f 193//286 192//289 188//284
f 194//287 197//292 193//286
f 195//288 194//287 190//283
f 192//289 196//290 195//288
f 193//286 197//292 196//290
f 198//291 201//295 197//292
f 199//293 198//291 194//287
f 196//290 200//294 199//293
f 197//292 201//295 200//294
