# Blender v2.79 (sub 0) OBJ File: 'pokoj scalone sprzety.blend'
# www.blender.org
mtllib obraz nad lozkiem5.mtl
o Cylinder.019
v -3.254285 1.280942 -1.646279
v -3.254272 1.280892 -1.646556
v -3.254232 1.280795 -1.646817
v -3.254167 1.280656 -1.647053
v -3.254080 1.280481 -1.647254
v -3.253974 1.280275 -1.647414
v -3.253852 1.280047 -1.647525
v -3.253721 1.279805 -1.647584
v -3.253584 1.279560 -1.647588
v -3.253447 1.279319 -1.647538
v -3.253316 1.279093 -1.647434
v -3.253195 1.278890 -1.647282
v -3.253088 1.278719 -1.647086
v -3.253001 1.278584 -1.646855
v -3.252936 1.278493 -1.646597
v -3.252896 1.278448 -1.646322
v -3.252883 1.278450 -1.646041
v -3.252896 1.278501 -1.645765
v -3.252936 1.278597 -1.645504
v -3.253001 1.278736 -1.645268
v -3.253088 1.278912 -1.645066
v -3.253195 1.279118 -1.644906
v -3.253316 1.279346 -1.644795
v -3.253447 1.279587 -1.644736
v -3.253584 1.279833 -1.644732
v -3.253721 1.280073 -1.644783
v -3.253852 1.280299 -1.644886
v -3.253974 1.280502 -1.645039
v -3.254080 1.280674 -1.645234
v -3.254167 1.280808 -1.645466
v -3.254232 1.280900 -1.645724
v -3.254272 1.280945 -1.645998
v -3.170607 1.327610 -1.650742
v -3.170594 1.327559 -1.651019
v -3.170554 1.327463 -1.651280
v -3.170489 1.327324 -1.651516
v -3.170402 1.327148 -1.651717
v -3.170295 1.326942 -1.651877
v -3.170174 1.326714 -1.651988
v -3.170043 1.326473 -1.652047
v -3.169906 1.326227 -1.652051
v -3.169769 1.325987 -1.652001
v -3.169637 1.325761 -1.651897
v -3.169516 1.325558 -1.651744
v -3.169410 1.325386 -1.651549
v -3.169323 1.325252 -1.651317
v -3.169258 1.325160 -1.651059
v -3.169218 1.325115 -1.650785
v -3.169204 1.325118 -1.650504
v -3.169218 1.325168 -1.650227
v -3.169258 1.325265 -1.649966
v -3.169323 1.325404 -1.649730
v -3.169410 1.325579 -1.649529
v -3.169516 1.325785 -1.649369
v -3.169637 1.326013 -1.649258
v -3.169769 1.326255 -1.649199
v -3.169906 1.326500 -1.649195
v -3.170043 1.326741 -1.649245
v -3.170174 1.326967 -1.649349
v -3.170295 1.327170 -1.649502
v -3.170402 1.327341 -1.649697
v -3.170489 1.327476 -1.649928
v -3.170554 1.327567 -1.650186
v -3.170594 1.327613 -1.650461
v -3.171239 1.331007 -1.651066
v -3.171195 1.330841 -1.651976
v -3.172171 1.330297 -1.651925
v -3.171064 1.330523 -1.652835
v -3.172040 1.329979 -1.652784
v -3.170851 1.330066 -1.653612
v -3.171827 1.329522 -1.653561
v -3.170564 1.329488 -1.654275
v -3.171540 1.328944 -1.654224
v -3.170215 1.328811 -1.654800
v -3.171191 1.328267 -1.654749
v -3.169816 1.328060 -1.655167
v -3.170792 1.327516 -1.655116
v -3.169383 1.327265 -1.655360
v -3.170359 1.326722 -1.655310
v -3.168932 1.326457 -1.655374
v -3.169908 1.325913 -1.655324
v -3.168482 1.325666 -1.655208
v -3.169458 1.325122 -1.655157
v -3.168048 1.324922 -1.654867
v -3.169024 1.324379 -1.654816
v -3.167649 1.324255 -1.654364
v -3.168625 1.323712 -1.654314
v -3.167299 1.323690 -1.653720
v -3.168275 1.323146 -1.653670
v -3.167011 1.323249 -1.652960
v -3.167987 1.322705 -1.652909
v -3.166797 1.322948 -1.652111
v -3.167773 1.322404 -1.652060
v -3.166665 1.322799 -1.651207
v -3.167642 1.322255 -1.651156
v -3.166620 1.322808 -1.650282
v -3.167597 1.322264 -1.650231
v -3.166664 1.322975 -1.649373
v -3.167641 1.322431 -1.649322
v -3.166795 1.323293 -1.648514
v -3.167772 1.322749 -1.648463
v -3.167008 1.323750 -1.647737
v -3.167984 1.323206 -1.647686
v -3.167295 1.324328 -1.647074
v -3.168271 1.323784 -1.647023
v -3.167645 1.325005 -1.646549
v -3.168621 1.324461 -1.646498
v -3.168044 1.325755 -1.646182
v -3.169020 1.325212 -1.646131
v -3.168477 1.326550 -1.645988
v -3.169453 1.326006 -1.645937
v -3.168927 1.327359 -1.645974
v -3.169904 1.326815 -1.645924
v -3.169378 1.328150 -1.646141
v -3.170354 1.327606 -1.646090
v -3.169811 1.328893 -1.646482
v -3.170787 1.328349 -1.646431
v -3.170211 1.329560 -1.646984
v -3.171187 1.329016 -1.646934
v -3.170561 1.330125 -1.647628
v -3.171537 1.329582 -1.647577
v -3.170848 1.330567 -1.648389
v -3.171824 1.330023 -1.648338
v -3.171062 1.330868 -1.649238
v -3.172038 1.330324 -1.649187
v -3.171194 1.331017 -1.650142
v -3.172170 1.330473 -1.650091
v -3.172215 1.330464 -1.651016
vn -0.4864 0.8548 -0.1811
vn -0.4680 0.8035 -0.3680
vn -0.4309 0.7211 -0.5425
vn -0.3779 0.6115 -0.6951
vn -0.3101 0.4768 -0.8225
vn -0.2310 0.3255 -0.9169
vn -0.1418 0.1607 -0.9768
vn -0.0481 -0.0096 -0.9988
vn 0.0482 -0.1797 -0.9825
vn 0.1414 -0.3431 -0.9286
vn 0.2300 -0.4936 -0.8387
vn 0.3104 -0.6245 -0.7166
vn 0.3785 -0.7320 -0.5664
vn 0.4308 -0.8108 -0.3963
vn 0.4677 -0.8586 -0.2099
vn 0.4861 -0.8738 -0.0144
vn 0.4862 -0.8551 0.1801
vn 0.4674 -0.8038 0.3680
vn 0.4310 -0.7210 0.5426
vn 0.3779 -0.6111 0.6955
vn 0.3106 -0.4777 0.8218
vn 0.2306 -0.3258 0.9169
vn 0.1415 -0.1608 0.9768
vn 0.0480 0.0094 0.9988
vn -0.0480 0.1802 0.9824
vn -0.1423 0.3435 0.9283
vn -0.2299 0.4933 0.8389
vn -0.3097 0.6242 0.7172
vn -0.3778 0.7318 0.5672
vn -0.4312 0.8105 0.3964
vn -0.8724 -0.4867 0.0464
vn -0.4678 0.8586 0.2098
vn -0.4863 0.8737 0.0141
vn 0.8722 0.4868 -0.0472
vn -0.4859 0.8739 0.0148
vn -0.4679 0.8585 0.2097
vn -0.4308 0.8110 0.3959
vn -0.3780 0.7317 0.5672
vn -0.3106 0.6241 0.7170
vn -0.2309 0.4929 0.8389
vn -0.1426 0.3429 0.9285
vn -0.0489 0.1794 0.9826
vn 0.0468 0.0091 0.9989
vn 0.1411 -0.1616 0.9767
vn 0.2294 -0.3261 0.9171
vn 0.3091 -0.4779 0.8222
vn 0.3768 -0.6118 0.6955
vn 0.4300 -0.7217 0.5425
vn 0.4670 -0.8039 0.3683
vn 0.4856 -0.8553 0.1806
vn 0.4859 -0.8739 -0.0149
vn 0.4676 -0.8588 -0.2095
vn 0.4309 -0.8108 -0.3961
vn 0.3780 -0.7317 -0.5673
vn 0.3105 -0.6243 -0.7168
vn 0.2307 -0.4930 -0.8389
vn 0.1421 -0.3429 -0.9286
vn 0.0488 -0.1793 -0.9826
vn -0.0470 -0.0091 -0.9989
vn -0.1410 0.1617 -0.9767
vn -0.2293 0.3259 -0.9172
vn -0.3088 0.4778 -0.8224
vn -0.3767 0.6112 -0.6961
vn -0.4302 0.7214 -0.5426
vn -0.4670 0.8037 -0.3688
vn -0.4858 0.8553 -0.1802
vn -0.8730 -0.4855 0.0471
vn -0.8717 -0.4877 0.0471
vn -0.4858 0.8551 -0.1810
vn -0.4682 0.8032 -0.3683
vn -0.4308 0.7208 -0.5431
vn -0.3779 0.6110 -0.6956
vn -0.3092 0.4772 -0.8226
vn -0.2305 0.3258 -0.9169
vn -0.1415 0.1611 -0.9767
vn -0.0480 -0.0097 -0.9988
vn 0.0481 -0.1799 -0.9825
vn 0.1420 -0.3431 -0.9285
vn 0.2303 -0.4933 -0.8388
vn 0.3096 -0.6242 -0.7173
vn 0.3775 -0.7315 -0.5678
vn 0.4313 -0.8107 -0.3959
vn 0.4674 -0.8588 -0.2099
vn 0.4865 -0.8736 -0.0144
vn 0.4867 -0.8548 0.1801
vn 0.4679 -0.8031 0.3690
vn 0.4309 -0.7211 0.5425
vn 0.3776 -0.6106 0.6961
vn 0.3099 -0.4771 0.8224
vn 0.2304 -0.3253 0.9171
vn 0.1421 -0.1611 0.9766
vn 0.0475 0.0096 0.9988
vn -0.0473 0.1797 0.9826
vn -0.1420 0.3431 0.9285
vn -0.2309 0.4934 0.8386
vn -0.3100 0.6242 0.7171
vn -0.3778 0.7317 0.5673
vn -0.4308 0.8111 0.3958
vn -0.8700 -0.4907 0.0491
vn -0.8736 -0.4840 0.0511
vn -0.8755 -0.4810 0.0470
vn -0.8727 -0.4859 0.0472
vn -0.8706 -0.4899 0.0452
vn -0.8729 -0.4858 0.0455
vn -0.8705 -0.4899 0.0462
vn -0.8805 -0.4716 0.0475
vn -0.8806 -0.4717 0.0456
vn -0.8721 -0.4875 0.0419
vn -0.8730 -0.4854 0.0470
vn -0.8756 -0.4814 0.0398
vn -0.8759 -0.4799 0.0495
vn -0.8747 -0.4826 0.0443
vn -0.8707 -0.4897 0.0457
vn -0.8730 -0.4855 0.0461
vn -0.8718 -0.4876 0.0470
vn -0.8723 -0.4868 0.0465
vn -0.8720 -0.4872 0.0466
vn -0.8716 -0.4881 0.0467
vn -0.8726 -0.4862 0.0461
vn -0.8723 -0.4865 0.0489
vn -0.8729 -0.4857 0.0466
vn -0.8725 -0.4865 0.0462
vn -0.8729 -0.4856 0.0469
vn -0.8727 -0.4860 0.0464
vn -0.8723 -0.4868 0.0466
vn -0.8724 -0.4865 0.0466
vn -0.4677 0.8587 0.2093
vn -0.4867 0.8734 0.0166
vn 0.8723 0.4867 -0.0472
vn 0.8713 0.4885 -0.0470
vn 0.8729 0.4855 -0.0474
vn 0.8729 0.4856 -0.0473
vn 0.8732 0.4850 -0.0470
vn 0.8742 0.4832 -0.0478
vn 0.8719 0.4875 -0.0467
vn 0.8720 0.4872 -0.0480
vn 0.8722 0.4870 -0.0460
vn 0.8724 0.4865 -0.0475
vn 0.8754 0.4811 -0.0468
vn 0.8707 0.4896 -0.0469
vn 0.8720 0.4873 -0.0470
vn 0.8723 0.4867 -0.0468
vn 0.8722 0.4869 -0.0467
vn 0.8724 0.4866 -0.0466
vn 0.8713 0.4886 -0.0467
vn 0.8721 0.4870 -0.0471
vn 0.8723 0.4866 -0.0472
vn 0.8722 0.4869 -0.0479
vn 0.8719 0.4875 -0.0474
vn 0.8722 0.4868 -0.0471
vn 0.8722 0.4869 -0.0471
vn 0.8723 0.4867 -0.0470
vn 0.8723 0.4868 -0.0472
vn -0.4860 0.8738 0.0148
vn -0.4672 0.8590 0.2094
vn -0.4314 0.8105 0.3962
vn -0.3104 0.6243 0.7169
vn -0.2312 0.4934 0.8385
vn -0.1428 0.3429 0.9285
vn -0.0488 0.1795 0.9825
vn 0.1406 -0.1617 0.9768
vn 0.2292 -0.3259 0.9172
vn 0.3089 -0.4781 0.8222
vn 0.3769 -0.6111 0.6961
vn 0.4301 -0.7215 0.5427
vn 0.4669 -0.8038 0.3685
vn 0.4857 -0.8553 0.1803
vn 0.4859 -0.8739 -0.0151
vn 0.4673 -0.8589 -0.2096
vn 0.4308 -0.8109 -0.3959
vn 0.3781 -0.7317 -0.5672
vn 0.3106 -0.6242 -0.7169
vn 0.2310 -0.4930 -0.8388
vn 0.1429 -0.3428 -0.9285
vn 0.0489 -0.1794 -0.9826
vn -0.0467 -0.0091 -0.9989
vn -0.1408 0.1616 -0.9768
vn -0.2295 0.3262 -0.9170
vn -0.3091 0.4782 -0.8221
vn -0.3769 0.6117 -0.6955
vn -0.4301 0.7216 -0.5425
vn -0.4667 0.8043 -0.3679
vn -0.8721 -0.4871 0.0463
vn -0.8722 -0.4869 0.0470
vn -0.8720 -0.4871 0.0474
vn -0.8726 -0.4862 0.0475
vn -0.8726 -0.4861 0.0474
vn -0.8717 -0.4878 0.0473
vn -0.8723 -0.4867 0.0473
vn -0.8723 -0.4867 0.0472
vn -0.8721 -0.4870 0.0472
vn -0.8722 -0.4869 0.0472
vn -0.8720 -0.4873 0.0474
vn -0.8725 -0.4862 0.0478
vn -0.8721 -0.4871 0.0471
vn -0.8720 -0.4872 0.0472
vn -0.8723 -0.4867 0.0474
vn -0.8721 -0.4871 0.0475
vn -0.8723 -0.4867 0.0471
vn -0.8725 -0.4863 0.0474
vn -0.8725 -0.4863 0.0475
vn -0.8716 -0.4879 0.0471
vn -0.8718 -0.4876 0.0478
vn -0.8723 -0.4866 0.0471
vn -0.8723 -0.4867 0.0475
vn -0.8723 -0.4866 0.0470
vn -0.8721 -0.4870 0.0471
vn -0.8709 -0.4891 0.0473
vn -0.8724 -0.4865 0.0474
vn -0.8720 -0.4874 0.0464
vn -0.8725 -0.4864 0.0470
vn -0.8718 -0.4876 0.0473
vn -0.8725 -0.4865 0.0458
vn -0.8726 -0.4862 0.0468
vn -0.8727 -0.4860 0.0468
vn -0.8727 -0.4860 0.0471
vn -0.8723 -0.4868 0.0468
vn -0.8731 -0.4853 0.0462
vn -0.8728 -0.4858 0.0468
vn -0.8723 -0.4867 0.0465
vn -0.8719 -0.4875 0.0467
vn -0.8722 -0.4870 0.0471
vn -0.8720 -0.4872 0.0468
vn -0.8723 -0.4866 0.0473
vn -0.8724 -0.4864 0.0476
vn -0.8713 -0.4884 0.0474
vn -0.8721 -0.4871 0.0473
vn -0.8717 -0.4877 0.0468
vn -0.8717 -0.4877 0.0473
usemtl None
s off
f 34//1 1//1 33//1
f 34//2 3//2 2//2
f 36//3 3//3 35//3
f 36//4 5//4 4//4
f 37//5 6//5 5//5
f 39//6 6//6 38//6
f 40//7 7//7 39//7
f 40//8 9//8 8//8
f 41//9 10//9 9//9
f 43//10 10//10 42//10
f 43//11 12//11 11//11
f 44//12 13//12 12//12
f 46//13 13//13 45//13
f 46//14 15//14 14//14
f 47//15 16//15 15//15
f 48//16 17//16 16//16
f 50//17 17//17 49//17
f 51//18 18//18 50//18
f 51//19 20//19 19//19
f 52//20 21//20 20//20
f 54//21 21//21 53//21
f 54//22 23//22 22//22
f 55//23 24//23 23//23
f 57//24 24//24 56//24
f 58//25 25//25 57//25
f 58//26 27//26 26//26
f 59//27 28//27 27//27
f 61//28 28//28 60//28
f 61//29 30//29 29//29
f 63//30 30//30 62//30
f 17//31 29//31 1//31
f 63//32 32//32 31//32
f 64//33 1//33 32//33
f 112//34 88//34 80//34
f 65//35 127//35 126//35
f 126//36 125//36 124//36
f 124//37 123//37 122//37
f 122//38 121//38 120//38
f 120//39 119//39 118//39
f 118//40 117//40 116//40
f 116//41 115//41 114//41
f 114//42 113//42 112//42
f 112//43 111//43 110//43
f 110//44 109//44 108//44
f 106//45 109//45 107//45
f 104//46 107//46 105//46
f 102//47 105//47 103//47
f 100//48 103//48 101//48
f 98//49 101//49 99//49
f 96//50 99//50 97//50
f 94//51 97//51 95//51
f 92//52 95//52 93//52
f 90//53 93//53 91//53
f 88//54 91//54 89//54
f 86//55 89//55 87//55
f 84//56 87//56 85//56
f 82//57 85//57 83//57
f 80//58 83//58 81//58
f 78//59 81//59 79//59
f 76//60 79//60 77//60
f 76//61 75//61 74//61
f 74//62 73//62 72//62
f 72//63 71//63 70//63
f 70//64 69//64 68//64
f 68//65 67//65 66//65
f 66//66 128//66 65//66
f 73//67 38//67 37//67
f 53//68 107//68 54//68
f 34//69 2//69 1//69
f 34//70 35//70 3//70
f 36//71 4//71 3//71
f 36//72 37//72 5//72
f 37//73 38//73 6//73
f 39//74 7//74 6//74
f 40//75 8//75 7//75
f 40//76 41//76 9//76
f 41//77 42//77 10//77
f 43//78 11//78 10//78
f 43//79 44//79 12//79
f 44//80 45//80 13//80
f 46//81 14//81 13//81
f 46//82 47//82 15//82
f 47//83 48//83 16//83
f 48//84 49//84 17//84
f 50//85 18//85 17//85
f 51//86 19//86 18//86
f 51//87 52//87 20//87
f 52//88 53//88 21//88
f 54//89 22//89 21//89
f 54//90 55//90 23//90
f 55//91 56//91 24//91
f 57//92 25//92 24//92
f 58//93 26//93 25//93
f 58//94 59//94 27//94
f 59//95 60//95 28//95
f 61//96 29//96 28//96
f 61//97 62//97 30//97
f 63//98 31//98 30//98
f 1//99 2//99 3//99
f 3//100 4//100 5//100
f 5//101 6//101 7//101
f 7//102 8//102 9//102
f 9//103 10//103 11//103
f 11//104 12//104 13//104
f 13//105 14//105 15//105
f 15//106 16//106 17//106
f 17//107 18//107 19//107
f 19//104 20//104 21//104
f 21//108 22//108 23//108
f 23//109 24//109 25//109
f 25//110 26//110 27//110
f 27//111 28//111 29//111
f 29//112 30//112 31//112
f 31//113 32//113 1//113
f 1//114 3//114 5//114
f 5//115 7//115 1//115
f 9//116 11//116 17//116
f 13//117 15//117 17//117
f 17//118 19//118 21//118
f 21//119 23//119 25//119
f 25//120 27//120 29//120
f 29//121 31//121 1//121
f 1//122 7//122 9//122
f 11//123 13//123 17//123
f 17//124 21//124 25//124
f 25//125 29//125 17//125
f 1//126 9//126 17//126
f 63//127 64//127 32//127
f 64//128 33//128 1//128
f 80//129 78//129 72//129
f 76//130 74//130 72//130
f 72//131 70//131 65//131
f 68//132 66//132 65//132
f 65//133 126//133 124//133
f 124//134 122//134 120//134
f 120//135 118//135 116//135
f 116//136 114//136 120//136
f 112//137 110//137 108//137
f 108//138 106//138 112//138
f 104//139 102//139 100//139
f 100//140 98//140 96//140
f 96//141 94//141 92//141
f 92//140 90//140 88//140
f 88//142 86//142 80//142
f 84//143 82//143 80//143
f 78//144 76//144 72//144
f 70//145 68//145 65//145
f 65//146 124//146 112//146
f 120//147 114//147 112//147
f 112//148 106//148 104//148
f 104//149 100//149 96//149
f 96//150 92//150 88//150
f 86//141 84//141 80//141
f 80//34 72//34 112//34
f 124//151 120//151 112//151
f 112//152 104//152 96//152
f 96//153 88//153 112//153
f 72//150 65//150 112//150
f 65//154 128//154 127//154
f 126//155 127//155 125//155
f 124//156 125//156 123//156
f 122//38 123//38 121//38
f 120//157 121//157 119//157
f 118//158 119//158 117//158
f 116//159 117//159 115//159
f 114//160 115//160 113//160
f 112//43 113//43 111//43
f 110//161 111//161 109//161
f 106//162 108//162 109//162
f 104//163 106//163 107//163
f 102//164 104//164 105//164
f 100//165 102//165 103//165
f 98//166 100//166 101//166
f 96//167 98//167 99//167
f 94//168 96//168 97//168
f 92//169 94//169 95//169
f 90//170 92//170 93//170
f 88//171 90//171 91//171
f 86//172 88//172 89//172
f 84//173 86//173 87//173
f 82//174 84//174 85//174
f 80//175 82//175 83//175
f 78//176 80//176 81//176
f 76//177 78//177 79//177
f 76//178 77//178 75//178
f 74//179 75//179 73//179
f 72//180 73//180 71//180
f 70//181 71//181 69//181
f 68//182 69//182 67//182
f 66//66 67//66 128//66
f 127//183 64//183 63//183
f 33//184 64//184 128//184
f 71//185 73//185 37//185
f 75//186 77//186 39//186
f 79//187 81//187 41//187
f 83//188 42//188 41//188
f 87//189 89//189 45//189
f 91//190 93//190 47//190
f 95//191 97//191 49//191
f 99//192 101//192 50//192
f 103//193 105//193 52//193
f 105//194 53//194 52//194
f 97//195 99//195 50//195
f 89//196 91//196 46//196
f 81//197 83//197 41//197
f 73//198 75//198 38//198
f 128//199 64//199 127//199
f 123//192 125//192 63//192
f 119//191 121//191 61//191
f 115//197 117//197 59//197
f 111//200 113//200 56//200
f 107//201 109//201 55//201
f 55//202 54//202 107//202
f 56//203 55//203 109//203
f 109//193 111//193 56//193
f 117//190 119//190 60//190
f 125//204 127//204 63//204
f 77//205 79//205 40//205
f 93//195 95//195 48//195
f 103//206 52//206 51//206
f 103//192 51//192 101//192
f 121//207 123//207 62//207
f 56//208 113//208 57//208
f 57//209 113//209 115//209
f 101//210 51//210 50//210
f 97//211 50//211 49//211
f 58//212 57//212 115//212
f 59//200 58//200 115//200
f 95//213 49//213 48//213
f 93//214 48//214 47//214
f 60//215 59//215 117//215
f 61//216 60//216 119//216
f 91//217 47//217 46//217
f 89//218 46//218 45//218
f 62//219 61//219 121//219
f 63//220 62//220 123//220
f 87//221 45//221 44//221
f 87//102 44//102 43//102
f 67//222 33//222 128//222
f 67//223 34//223 33//223
f 87//224 43//224 85//224
f 43//214 42//214 85//214
f 67//222 69//222 34//222
f 34//225 69//225 35//225
f 85//209 42//209 83//209
f 79//226 41//226 40//226
f 35//227 69//227 71//227
f 36//228 35//228 71//228
f 77//196 40//196 39//196
f 75//229 39//229 38//229
f 37//199 36//199 71//199
f 53//196 105//196 107//196
o Plane.005
v -3.217869 1.313886 -1.417154
v -3.240010 1.014823 -1.417154
v -3.217869 1.313886 -1.888311
v -3.240010 1.014823 -1.888311
v -3.222413 1.248772 -1.808083
v -3.222413 1.248772 -1.497382
v -3.235465 1.072485 -1.497382
v -3.235465 1.072485 -1.808083
v -3.217429 1.248402 -1.808083
v -3.217429 1.248402 -1.497382
v -3.230480 1.072116 -1.497382
v -3.230480 1.072116 -1.808083
v -3.212884 1.313516 -1.888311
v -3.212884 1.313516 -1.417154
v -3.235025 1.014454 -1.417154
v -3.235025 1.014454 -1.888311
vn 0.9973 -0.0738 0.0000
vn -0.0740 -0.9973 0.0000
vn 0.0740 0.9973 0.0000
vn 0.9976 -0.0696 0.0000
vn 0.9973 -0.0738 0.0034
vn -0.0001 0.0000 -1.0000
vn 0.0000 0.0000 1.0000
vn 0.0000 0.0000 -1.0000
vn 0.9973 -0.0738 -0.0034
vn 0.9969 -0.0786 0.0000
vn 0.0001 0.0000 -1.0000
vn -0.0001 0.0000 1.0000
usemtl None
s off
f 135//230 133//230 134//230
f 133//231 138//231 134//231
f 135//232 140//232 136//232
f 129//232 141//232 131//232
f 132//231 143//231 130//231
f 137//233 142//233 138//233
f 138//234 143//234 139//234
f 132//235 141//235 144//235
f 130//236 142//236 129//236
f 136//236 137//236 133//236
f 135//237 138//237 139//237
f 137//238 144//238 141//238
f 140//239 143//239 144//239
f 135//230 136//230 133//230
f 133//231 137//231 138//231
f 135//232 139//232 140//232
f 129//232 142//232 141//232
f 132//231 144//231 143//231
f 137//233 141//233 142//233
f 138//234 142//234 143//234
f 132//240 131//240 141//240
f 130//236 143//236 142//236
f 136//241 140//241 137//241
f 135//237 134//237 138//237
f 137//238 140//238 144//238
f 140//239 139//239 143//239
