# Blender v2.79 (sub 0) OBJ File: 'pokoj scalone sprzety.blend'
# www.blender.org
mtllib obraz nad lozkiem.mtl
o NurbsPath
v -2.999788 1.992116 0.058237
v -2.999352 1.990697 0.059722
v -2.998892 1.989284 0.058238
v -2.999328 1.990703 0.056752
v -2.841991 2.043514 0.059560
v -2.841530 2.042104 0.061046
v -2.841044 2.040699 0.059562
v -2.841506 2.042110 0.058076
v -2.743136 2.077801 0.060471
v -2.742653 2.076397 0.061957
v -2.742141 2.075002 0.060473
v -2.742624 2.076405 0.058987
v -2.682442 2.099952 0.061204
v -2.681952 2.098551 0.062690
v -2.681421 2.097162 0.061206
v -2.681912 2.098563 0.059720
v -2.645576 2.113498 0.061853
v -2.645118 2.112086 0.063339
v -2.644604 2.110691 0.061855
v -2.645061 2.112103 0.060369
v -2.623734 2.120600 0.062399
v -2.623452 2.119138 0.063881
v -2.623095 2.117699 0.062393
v -2.623377 2.119161 0.060911
v -2.609845 2.122240 0.062805
v -2.610014 2.120749 0.064275
v -2.610109 2.119282 0.062776
v -2.609939 2.120772 0.061306
v -2.597189 2.118384 0.063055
v -2.597793 2.117002 0.064517
v -2.598345 2.115649 0.063008
v -2.597741 2.117031 0.061547
v -2.578736 2.108253 0.063171
v -2.579475 2.106937 0.064632
v -2.580184 2.105660 0.063122
v -2.579445 2.106977 0.061662
v -2.540528 2.086564 0.063115
v -2.541259 2.085243 0.064575
v -2.541974 2.083970 0.063066
v -2.541244 2.085291 0.061605
v -2.449362 2.036714 0.062554
v -2.450074 2.035382 0.064014
v -2.450779 2.034103 0.062505
v -2.450068 2.035435 0.061044
v -2.250042 1.929405 0.060820
v -2.250746 1.928070 0.062280
v -2.251448 1.926789 0.060770
v -2.250744 1.928125 0.059310
vn -0.3187 0.9478 -0.0008
vn 0.0089 -0.0016 -0.9999
vn -0.3097 0.9508 -0.0005
vn -0.0066 -0.0055 0.9999
vn 0.3097 -0.9508 0.0005
vn -0.0067 -0.0061 0.9999
vn 0.0095 -0.0020 -0.9999
vn 0.0109 -0.0008 -0.9999
vn -0.0085 -0.0059 0.9999
vn 0.3352 -0.9421 0.0002
vn 0.3187 -0.9478 0.0005
vn -0.3352 0.9421 -0.0014
vn 0.0136 0.0034 -0.9999
vn -0.0132 -0.0044 0.9999
vn 0.3439 -0.9390 -0.0002
vn -0.3438 0.9390 -0.0021
vn 0.0165 0.0140 -0.9998
vn -0.0219 0.0020 0.9998
vn 0.3274 -0.9449 -0.0010
vn -0.3272 0.9449 -0.0022
vn 0.0165 0.0504 -0.9986
vn -0.0344 0.0350 0.9988
vn 0.2164 -0.9763 -0.0035
vn -0.2151 0.9766 0.0008
vn 0.0334 0.1002 -0.9944
vn -0.0170 0.0844 0.9963
vn -0.0888 -0.9960 -0.0083
vn 0.3889 0.9211 0.0179
vn 0.0887 0.9960 0.0112
vn -0.0001 0.0324 0.9995
vn 0.0348 0.0522 -0.9980
vn 0.4875 0.8729 0.0180
vn -0.3902 -0.9206 -0.0133
vn -0.0085 -0.0106 0.9999
vn 0.0113 0.0161 -0.9998
vn 0.4867 0.8734 0.0175
vn -0.4877 -0.8729 -0.0150
vn -0.0068 -0.0191 0.9998
vn 0.0034 0.0130 -0.9999
vn 0.0014 0.0164 -0.9998
vn -0.0028 -0.0190 0.9998
vn -0.4769 -0.8788 -0.0160
vn -0.4867 -0.8734 -0.0155
vn 0.4769 0.8787 0.0171
vn 0.0009 0.0179 -0.9998
vn -0.0013 -0.0186 0.9998
vn -0.4741 -0.8803 -0.0162
vn 0.4741 0.8803 0.0169
usemtl None
s 1
f 5//1 4//2 1//3
f 2//4 5//1 1//3
f 3//5 6//6 2//4
f 8//7 3//5 4//2
f 5//1 12//8 8//7
f 10//9 5//1 6//6
f 11//10 6//6 7//11
f 8//7 11//10 7//11
f 9//12 16//13 12//8
f 14//14 9//12 10//9
f 15//15 10//9 11//10
f 12//8 15//15 11//10
f 13//16 20//17 16//13
f 18//18 13//16 14//14
f 19//19 14//14 15//15
f 16//13 19//19 15//15
f 17//20 24//21 20//17
f 22//22 17//20 18//18
f 23//23 18//18 19//19
f 20//17 23//23 19//19
f 21//24 28//25 24//21
f 26//26 21//24 22//22
f 27//27 22//22 23//23
f 24//21 27//27 23//23
f 29//28 28//25 25//29
f 26//26 29//28 25//29
f 27//27 30//30 26//26
f 32//31 27//27 28//25
f 33//32 32//31 29//28
f 30//30 33//32 29//28
f 31//33 34//34 30//30
f 36//35 31//33 32//31
f 37//36 36//35 33//32
f 34//34 37//36 33//32
f 35//37 38//38 34//34
f 40//39 35//37 36//35
f 37//36 44//40 40//39
f 42//41 37//36 38//38
f 43//42 38//38 39//43
f 40//39 43//42 39//43
f 41//44 48//45 44//40
f 46//46 41//44 42//41
f 47//47 42//41 43//42
f 44//40 47//47 43//42
f 5//1 8//7 4//2
f 2//4 6//6 5//1
f 3//5 7//11 6//6
f 8//7 7//11 3//5
f 5//1 9//12 12//8
f 10//9 9//12 5//1
f 11//10 10//9 6//6
f 8//7 12//8 11//10
f 9//12 13//16 16//13
f 14//14 13//16 9//12
f 15//15 14//14 10//9
f 12//8 16//13 15//15
f 13//16 17//20 20//17
f 18//18 17//20 13//16
f 19//19 18//18 14//14
f 16//13 20//17 19//19
f 17//20 21//24 24//21
f 22//22 21//24 17//20
f 23//23 22//22 18//18
f 20//17 24//21 23//23
f 21//24 25//29 28//25
f 26//26 25//29 21//24
f 27//27 26//26 22//22
f 24//21 28//25 27//27
f 29//28 32//31 28//25
f 26//26 30//30 29//28
f 27//27 31//33 30//30
f 32//31 31//33 27//27
f 33//32 36//35 32//31
f 30//30 34//34 33//32
f 31//33 35//37 34//34
f 36//35 35//37 31//33
f 37//36 40//39 36//35
f 34//34 38//38 37//36
f 35//37 39//43 38//38
f 40//39 39//43 35//37
f 37//36 41//44 44//40
f 42//41 41//44 37//36
f 43//42 42//41 38//38
f 40//39 44//40 43//42
f 41//44 45//48 48//45
f 46//46 45//48 41//44
f 47//47 46//46 42//41
f 44//40 48//45 47//47
o Cylinder.015
v -2.611592 2.080624 0.130128
v -2.611872 2.080600 0.130115
v -2.612141 2.080529 0.130075
v -2.612390 2.080413 0.130010
v -2.612607 2.080258 0.129923
v -2.612785 2.080068 0.129817
v -2.612918 2.079851 0.129695
v -2.613000 2.079617 0.129564
v -2.613027 2.079372 0.129427
v -2.613000 2.079128 0.129290
v -2.612918 2.078893 0.129159
v -2.612785 2.078677 0.129037
v -2.612607 2.078487 0.128931
v -2.612390 2.078332 0.128844
v -2.612141 2.078216 0.128779
v -2.611872 2.078145 0.128739
v -2.611592 2.078121 0.128726
v -2.611312 2.078145 0.128739
v -2.611043 2.078216 0.128779
v -2.610795 2.078332 0.128844
v -2.610578 2.078487 0.128931
v -2.610399 2.078677 0.129037
v -2.610267 2.078893 0.129159
v -2.610185 2.079128 0.129290
v -2.610157 2.079372 0.129427
v -2.610185 2.079617 0.129564
v -2.610267 2.079851 0.129695
v -2.610399 2.080068 0.129817
v -2.610578 2.080258 0.129923
v -2.610795 2.080413 0.130010
v -2.611043 2.080529 0.130075
v -2.611312 2.080600 0.130115
v -2.611592 2.127505 0.046450
v -2.611872 2.127481 0.046436
v -2.612141 2.127409 0.046397
v -2.612389 2.127294 0.046332
v -2.612607 2.127138 0.046245
v -2.612785 2.126948 0.046138
v -2.612918 2.126732 0.046017
v -2.612999 2.126497 0.045885
v -2.613027 2.126253 0.045749
v -2.612999 2.126009 0.045612
v -2.612918 2.125774 0.045480
v -2.612785 2.125557 0.045359
v -2.612607 2.125368 0.045253
v -2.612389 2.125212 0.045166
v -2.612141 2.125096 0.045101
v -2.611872 2.125025 0.045061
v -2.611592 2.125001 0.045047
v -2.611312 2.125025 0.045061
v -2.611043 2.125096 0.045101
v -2.610795 2.125212 0.045166
v -2.610578 2.125368 0.045253
v -2.610399 2.125557 0.045359
v -2.610267 2.125774 0.045480
v -2.610185 2.126009 0.045612
v -2.610157 2.126253 0.045749
v -2.610185 2.126497 0.045885
v -2.610267 2.126732 0.046017
v -2.610399 2.126948 0.046138
v -2.610578 2.127138 0.046245
v -2.610795 2.127294 0.046332
v -2.611043 2.127409 0.046397
v -2.611312 2.127481 0.046436
v -2.611592 2.130918 0.047082
v -2.612513 2.130838 0.047038
v -2.612514 2.130292 0.048014
v -2.613399 2.130604 0.046907
v -2.613400 2.130057 0.047883
v -2.614215 2.130223 0.046694
v -2.614216 2.129677 0.047670
v -2.614930 2.129710 0.046407
v -2.614932 2.129164 0.047383
v -2.615517 2.129086 0.046058
v -2.615519 2.128540 0.047034
v -2.615954 2.128374 0.045659
v -2.615955 2.127828 0.046635
v -2.616222 2.127601 0.045226
v -2.616224 2.127055 0.046202
v -2.616313 2.126798 0.044775
v -2.616314 2.126252 0.045751
v -2.616222 2.125994 0.044325
v -2.616224 2.125448 0.045301
v -2.615954 2.125222 0.043891
v -2.615955 2.124676 0.044867
v -2.615517 2.124510 0.043492
v -2.615519 2.123964 0.044468
v -2.614930 2.123886 0.043142
v -2.614932 2.123340 0.044118
v -2.614215 2.123374 0.042854
v -2.614216 2.122828 0.043830
v -2.613399 2.122994 0.042640
v -2.613400 2.122448 0.043616
v -2.612513 2.122760 0.042508
v -2.612514 2.122214 0.043484
v -2.611592 2.122681 0.042463
v -2.611593 2.122135 0.043440
v -2.610671 2.122760 0.042507
v -2.610672 2.122214 0.043484
v -2.609785 2.122995 0.042638
v -2.609786 2.122449 0.043614
v -2.608968 2.123376 0.042851
v -2.608970 2.122830 0.043827
v -2.608253 2.123888 0.043138
v -2.608254 2.123342 0.044114
v -2.607666 2.124512 0.043488
v -2.607667 2.123966 0.044464
v -2.607230 2.125225 0.043887
v -2.607231 2.124678 0.044863
v -2.606961 2.125997 0.044320
v -2.606962 2.125451 0.045296
v -2.606870 2.126801 0.044770
v -2.606871 2.126255 0.045746
v -2.606961 2.127604 0.045221
v -2.606962 2.127058 0.046197
v -2.607230 2.128376 0.045654
v -2.607231 2.127831 0.046630
v -2.607666 2.129088 0.046053
v -2.607667 2.128542 0.047030
v -2.608253 2.129712 0.046404
v -2.608254 2.129166 0.047380
v -2.608968 2.130224 0.046691
v -2.608970 2.129678 0.047667
v -2.609785 2.130605 0.046905
v -2.609786 2.130059 0.047881
v -2.610671 2.130839 0.047037
v -2.610672 2.130292 0.048013
v -2.611593 2.130371 0.048058
vn 0.0981 -0.8683 -0.4862
vn 0.2906 -0.8346 -0.4680
vn 0.4717 -0.7691 -0.4313
vn 0.6337 -0.6753 -0.3774
vn 0.7733 -0.5528 -0.3106
vn 0.8823 -0.4105 -0.2304
vn 0.9570 -0.2530 -0.1417
vn 0.9951 -0.0862 -0.0481
vn 0.9952 0.0854 0.0480
vn 0.9575 0.2511 0.1418
vn 0.8815 0.4121 0.2304
vn 0.7732 0.5531 0.3103
vn 0.6347 0.6741 0.3780
vn 0.4711 0.7697 0.4307
vn 0.2904 0.8349 0.4676
vn 0.0982 0.8681 0.4865
vn -0.0980 0.8685 0.4859
vn -0.2901 0.8352 0.4672
vn -0.4711 0.7696 0.4311
vn -0.6349 0.6740 0.3777
vn -0.7723 0.5545 0.3099
vn -0.8823 0.4103 0.2306
vn -0.9565 0.2550 0.1420
vn -0.9951 0.0861 0.0476
vn -0.9952 -0.0851 -0.0477
vn -0.9567 -0.2540 -0.1421
vn -0.8819 -0.4115 -0.2303
vn -0.7726 -0.5539 -0.3103
vn -0.6354 -0.6734 -0.3780
vn -0.4708 -0.7698 -0.4309
vn -0.0001 0.4890 -0.8723
vn -0.2902 -0.8351 -0.4673
vn -0.0982 -0.8681 -0.4866
vn 0.0006 -0.4891 0.8722
vn -0.0980 -0.8684 -0.4861
vn -0.2904 -0.8350 -0.4675
vn -0.4714 -0.7694 -0.4311
vn -0.6343 -0.6744 -0.3780
vn -0.7729 -0.5534 -0.3103
vn -0.8820 -0.4109 -0.2308
vn -0.9570 -0.2526 -0.1427
vn -0.9951 -0.0855 -0.0488
vn -0.9952 0.0864 0.0470
vn -0.9569 0.2539 0.1411
vn -0.8819 0.4117 0.2295
vn -0.7732 0.5536 0.3093
vn -0.6340 0.6752 0.3770
vn -0.4712 0.7703 0.4297
vn -0.2903 0.8354 0.4668
vn -0.0980 0.8684 0.4861
vn 0.0980 0.8687 0.4855
vn 0.2903 0.8350 0.4674
vn 0.4713 0.7694 0.4313
vn 0.6344 0.6743 0.3779
vn 0.7733 0.5530 0.3101
vn 0.8822 0.4103 0.2310
vn 0.9571 0.2523 0.1426
vn 0.9952 0.0850 0.0488
vn 0.9951 -0.0868 -0.0470
vn 0.9569 -0.2541 -0.1407
vn 0.8819 -0.4120 -0.2291
vn 0.7733 -0.5536 -0.3092
vn 0.6343 -0.6749 -0.3770
vn 0.4713 -0.7701 -0.4299
vn 0.2903 -0.8353 -0.4669
vn 0.0980 -0.8685 -0.4860
vn -0.0006 0.4890 -0.8723
vn -0.0008 0.4894 -0.8720
vn 0.0973 -0.8686 -0.4859
vn 0.2904 -0.8349 -0.4676
vn 0.4706 -0.7701 -0.4307
vn 0.6352 -0.6735 -0.3779
vn 0.7727 -0.5539 -0.3101
vn 0.8821 -0.4109 -0.2303
vn 0.9568 -0.2538 -0.1421
vn 0.9952 -0.0852 -0.0477
vn 0.9952 0.0851 0.0477
vn 0.9564 0.2550 0.1420
vn 0.8820 0.4111 0.2303
vn 0.7728 0.5536 0.3104
vn 0.6352 0.6736 0.3779
vn 0.4709 0.7697 0.4310
vn 0.2906 0.8346 0.4680
vn 0.0981 0.8682 0.4864
vn -0.0981 0.8682 0.4865
vn -0.2907 0.8345 0.4682
vn -0.4716 0.7692 0.4312
vn -0.6347 0.6741 0.3780
vn -0.7728 0.5536 0.3104
vn -0.8821 0.4109 0.2303
vn -0.9576 0.2509 0.1418
vn -0.9952 0.0857 0.0481
vn -0.9951 -0.0862 -0.0481
vn -0.9575 -0.2512 -0.1418
vn -0.8817 -0.4118 -0.2302
vn -0.7726 -0.5541 -0.3100
vn -0.6342 -0.6747 -0.3777
vn -0.4715 -0.7693 -0.4311
vn 0.0008 0.4828 -0.8757
vn -0.0007 0.4842 -0.8749
vn -0.0007 0.4860 -0.8740
vn 0.0002 0.4904 -0.8715
vn 0.0005 0.4857 -0.8741
vn -0.0012 0.4855 -0.8742
vn 0.0014 0.4844 -0.8749
vn 0.0002 0.4860 -0.8740
vn -0.0001 0.4842 -0.8749
vn 0.0001 0.4835 -0.8753
vn -0.0002 0.4885 -0.8726
vn -0.0014 0.4872 -0.8733
vn 0.0014 0.4911 -0.8711
vn -0.0005 0.4917 -0.8708
vn -0.0002 0.4904 -0.8715
vn 0.0006 0.4917 -0.8708
vn 0.0001 0.4889 -0.8723
vn -0.0003 0.4871 -0.8733
vn 0.0001 0.4893 -0.8721
vn 0.0000 0.4883 -0.8727
vn 0.0000 0.4882 -0.8727
vn -0.0001 0.4895 -0.8720
vn -0.0001 0.4878 -0.8729
vn 0.0003 0.4875 -0.8731
vn -0.0002 0.4895 -0.8720
vn 0.0000 0.4890 -0.8723
vn 0.0000 0.4893 -0.8721
vn -0.0000 0.4886 -0.8725
vn 0.0000 0.4888 -0.8724
vn -0.2906 -0.8345 -0.4680
vn -0.0974 -0.8683 -0.4864
vn 0.0006 -0.4889 0.8723
vn 0.0006 -0.4904 0.8715
vn 0.0006 -0.4888 0.8724
vn 0.0010 -0.4891 0.8722
vn 0.0002 -0.4881 0.8728
vn 0.0008 -0.4872 0.8733
vn 0.0006 -0.4868 0.8735
vn 0.0006 -0.4890 0.8723
vn 0.0005 -0.4893 0.8721
vn 0.0006 -0.4895 0.8720
vn 0.0005 -0.4885 0.8725
vn 0.0009 -0.4892 0.8721
vn 0.0001 -0.4904 0.8715
vn 0.0008 -0.4891 0.8722
vn 0.0006 -0.4903 0.8715
vn 0.0005 -0.4887 0.8725
vn 0.0006 -0.4885 0.8726
vn 0.0007 -0.4891 0.8722
vn 0.0006 -0.4893 0.8721
vn 0.0006 -0.4894 0.8721
vn 0.0006 -0.4892 0.8722
vn 0.0008 -0.4890 0.8723
vn 0.0005 -0.4892 0.8722
vn -0.0981 -0.8686 -0.4857
vn -0.2902 -0.8350 -0.4675
vn -0.4715 -0.7694 -0.4309
vn -0.6342 -0.6745 -0.3779
vn -0.7735 -0.5526 -0.3104
vn -0.8820 -0.4107 -0.2312
vn -0.9570 -0.2527 -0.1422
vn -0.9951 -0.0855 -0.0489
vn -0.9951 0.0868 0.0470
vn -0.9570 0.2537 0.1406
vn -0.8820 0.4115 0.2295
vn -0.7730 0.5540 0.3090
vn -0.6343 0.6752 0.3764
vn -0.4714 0.7697 0.4305
vn -0.2903 0.8353 0.4669
vn -0.0980 0.8688 0.4853
vn 0.0978 0.8681 0.4866
vn 0.2904 0.8348 0.4678
vn 0.4713 0.7694 0.4312
vn 0.6344 0.6745 0.3777
vn 0.7729 0.5534 0.3105
vn 0.8818 0.4113 0.2309
vn 0.9569 0.2528 0.1428
vn 0.9951 0.0854 0.0488
vn 0.9952 -0.0863 -0.0470
vn 0.9570 -0.2537 -0.1409
vn 0.8820 -0.4116 -0.2295
vn 0.7728 -0.5545 -0.3087
vn 0.6343 -0.6750 -0.3769
vn 0.4714 -0.7700 -0.4299
vn 0.2903 -0.8352 -0.4672
vn 0.0980 -0.8683 -0.4863
vn -0.0006 0.4897 -0.8719
vn -0.0008 0.4891 -0.8722
vn -0.0007 0.4893 -0.8721
vn -0.0007 0.4892 -0.8722
vn -0.0006 0.4891 -0.8722
vn -0.0001 0.4888 -0.8724
vn -0.0009 0.4888 -0.8724
vn -0.0010 0.4897 -0.8719
vn -0.0009 0.4893 -0.8721
vn -0.0006 0.4893 -0.8721
vn -0.0005 0.4890 -0.8723
vn -0.0008 0.4889 -0.8723
vn -0.0009 0.4890 -0.8723
vn -0.0009 0.4892 -0.8722
vn -0.0007 0.4896 -0.8719
vn 0.0001 0.4884 -0.8726
vn -0.0006 0.4891 -0.8723
vn -0.0003 0.4893 -0.8721
vn 0.0001 0.4896 -0.8719
vn -0.0009 0.4886 -0.8725
vn -0.0003 0.4896 -0.8720
vn -0.0001 0.4900 -0.8717
vn -0.0009 0.4889 -0.8724
vn -0.0007 0.4889 -0.8723
vn -0.0006 0.4892 -0.8722
vn -0.0005 0.4889 -0.8723
vn -0.0006 0.4886 -0.8725
vn -0.0005 0.4884 -0.8726
vn -0.0001 0.4891 -0.8722
vn -0.0007 0.4891 -0.8722
vn -0.0004 0.4888 -0.8724
vn -0.0002 0.4884 -0.8726
vn 0.0000 0.4881 -0.8728
vn 0.0002 0.4885 -0.8725
vn 0.0001 0.4890 -0.8723
vn -0.0007 0.4883 -0.8727
vn -0.0009 0.4892 -0.8721
vn -0.0001 0.4898 -0.8718
vn -0.0003 0.4886 -0.8725
vn -0.0008 0.4892 -0.8722
vn -0.0006 0.4903 -0.8716
vn -0.0003 0.4895 -0.8720
vn -0.0007 0.4894 -0.8721
usemtl None
s off
f 49//49 82//49 81//49
f 50//50 83//50 82//50
f 51//51 84//51 83//51
f 84//52 53//52 85//52
f 85//53 54//53 86//53
f 54//54 87//54 86//54
f 87//55 56//55 88//55
f 88//56 57//56 89//56
f 57//57 90//57 89//57
f 58//58 91//58 90//58
f 91//59 60//59 92//59
f 60//60 93//60 92//60
f 93//61 62//61 94//61
f 94//62 63//62 95//62
f 63//63 96//63 95//63
f 64//64 97//64 96//64
f 97//65 66//65 98//65
f 98//66 67//66 99//66
f 99//67 68//67 100//67
f 68//68 101//68 100//68
f 69//69 102//69 101//69
f 70//70 103//70 102//70
f 71//71 104//71 103//71
f 104//72 73//72 105//72
f 105//73 74//73 106//73
f 106//74 75//74 107//74
f 75//75 108//75 107//75
f 76//76 109//76 108//76
f 77//77 110//77 109//77
f 78//78 111//78 110//78
f 67//79 55//79 51//79
f 79//80 112//80 111//80
f 80//81 81//81 112//81
f 144//82 152//82 168//82
f 175//83 113//83 174//83
f 173//84 174//84 172//84
f 171//85 172//85 170//85
f 169//86 170//86 168//86
f 167//87 168//87 166//87
f 165//88 166//88 164//88
f 163//89 164//89 162//89
f 161//90 162//90 160//90
f 159//91 160//91 158//91
f 157//92 158//92 156//92
f 155//93 156//93 154//93
f 152//94 155//94 154//94
f 150//95 153//95 152//95
f 148//96 151//96 150//96
f 146//97 149//97 148//97
f 144//98 147//98 146//98
f 142//99 145//99 144//99
f 140//100 143//100 142//100
f 138//101 141//101 140//101
f 136//102 139//102 138//102
f 134//103 137//103 136//103
f 132//104 135//104 134//104
f 130//105 133//105 132//105
f 128//106 131//106 130//106
f 126//107 129//107 128//107
f 124//108 127//108 126//108
f 122//109 125//109 124//109
f 121//110 122//110 120//110
f 119//111 120//111 118//111
f 117//112 118//112 116//112
f 115//113 116//113 114//113
f 176//114 114//114 113//114
f 85//115 119//115 84//115
f 101//116 155//116 153//116
f 49//117 50//117 82//117
f 50//118 51//118 83//118
f 51//119 52//119 84//119
f 84//120 52//120 53//120
f 85//121 53//121 54//121
f 54//122 55//122 87//122
f 87//123 55//123 56//123
f 88//124 56//124 57//124
f 57//125 58//125 90//125
f 58//126 59//126 91//126
f 91//127 59//127 60//127
f 60//128 61//128 93//128
f 93//129 61//129 62//129
f 94//130 62//130 63//130
f 63//131 64//131 96//131
f 64//132 65//132 97//132
f 97//133 65//133 66//133
f 98//134 66//134 67//134
f 99//135 67//135 68//135
f 68//136 69//136 101//136
f 69//137 70//137 102//137
f 70//138 71//138 103//138
f 71//139 72//139 104//139
f 104//140 72//140 73//140
f 105//141 73//141 74//141
f 106//142 74//142 75//142
f 75//143 76//143 108//143
f 76//144 77//144 109//144
f 77//145 78//145 110//145
f 78//146 79//146 111//146
f 51//147 50//147 49//147
f 49//148 80//148 79//148
f 79//149 78//149 77//149
f 77//150 76//150 75//150
f 75//151 74//151 73//151
f 73//152 72//152 71//152
f 71//153 70//153 69//153
f 69//154 68//154 67//154
f 67//155 66//155 65//155
f 65//156 64//156 63//156
f 63//157 62//157 61//157
f 61//158 60//158 59//158
f 59//159 58//159 57//159
f 57//160 56//160 55//160
f 55//161 54//161 53//161
f 53//162 52//162 51//162
f 51//163 49//163 75//163
f 79//164 77//164 75//164
f 75//165 73//165 71//165
f 71//166 69//166 75//166
f 67//167 65//167 63//167
f 63//168 61//168 59//168
f 59//169 57//169 55//169
f 55//170 53//170 51//170
f 49//171 79//171 75//171
f 75//172 69//172 67//172
f 67//173 63//173 59//173
f 59//174 55//174 67//174
f 51//175 75//175 67//175
f 79//176 80//176 112//176
f 80//177 49//177 81//177
f 168//178 170//178 113//178
f 172//179 174//179 113//179
f 113//82 114//82 116//82
f 116//180 118//180 113//180
f 120//181 122//181 124//181
f 124//182 126//182 128//182
f 128//183 130//183 132//183
f 132//184 134//184 136//184
f 136//185 138//185 140//185
f 140//186 142//186 136//186
f 144//187 146//187 152//187
f 148//188 150//188 152//188
f 152//189 154//189 160//189
f 156//190 158//190 160//190
f 160//191 162//191 164//191
f 164//192 166//192 168//192
f 170//193 172//193 113//193
f 113//194 118//194 120//194
f 120//195 124//195 136//195
f 128//196 132//196 136//196
f 136//197 142//197 144//197
f 146//198 148//198 152//198
f 154//199 156//199 160//199
f 160//198 164//198 152//198
f 168//185 113//185 136//185
f 124//200 128//200 136//200
f 136//82 144//82 168//82
f 152//185 164//185 168//185
f 113//82 120//82 136//82
f 175//201 176//201 113//201
f 173//202 175//202 174//202
f 171//203 173//203 172//203
f 169//204 171//204 170//204
f 167//205 169//205 168//205
f 165//206 167//206 166//206
f 163//207 165//207 164//207
f 161//208 163//208 162//208
f 159//209 161//209 160//209
f 157//210 159//210 158//210
f 155//211 157//211 156//211
f 152//212 153//212 155//212
f 150//213 151//213 153//213
f 148//214 149//214 151//214
f 146//215 147//215 149//215
f 144//216 145//216 147//216
f 142//217 143//217 145//217
f 140//218 141//218 143//218
f 138//219 139//219 141//219
f 136//220 137//220 139//220
f 134//221 135//221 137//221
f 132//222 133//222 135//222
f 130//223 131//223 133//223
f 128//224 129//224 131//224
f 126//225 127//225 129//225
f 124//226 125//226 127//226
f 122//227 123//227 125//227
f 121//228 123//228 122//228
f 119//229 121//229 120//229
f 117//230 119//230 118//230
f 115//231 117//231 116//231
f 176//232 115//232 114//232
f 100//233 101//233 153//233
f 153//234 151//234 100//234
f 149//235 147//235 98//235
f 145//236 143//236 97//236
f 141//237 96//237 143//237
f 94//238 95//238 139//238
f 133//234 131//234 90//234
f 129//239 127//239 88//239
f 125//240 87//240 88//240
f 86//241 87//241 123//241
f 117//235 115//235 82//235
f 176//242 175//242 112//242
f 173//243 171//243 110//243
f 169//238 109//238 110//238
f 165//244 163//244 106//244
f 161//245 159//245 104//245
f 157//246 155//246 103//246
f 155//247 102//247 103//247
f 163//245 161//245 105//245
f 171//115 169//115 110//115
f 115//242 176//242 81//242
f 123//245 87//245 125//245
f 131//246 129//246 89//246
f 95//248 96//248 141//248
f 147//249 145//249 97//249
f 100//236 151//236 149//236
f 99//250 100//250 149//250
f 143//251 96//251 97//251
f 127//246 125//246 88//246
f 175//236 173//236 111//236
f 159//246 157//246 103//246
f 159//252 103//252 104//252
f 98//253 99//253 149//253
f 97//254 98//254 147//254
f 161//255 104//255 105//255
f 163//256 105//256 106//256
f 139//257 95//257 141//257
f 137//258 94//258 139//258
f 165//259 106//259 107//259
f 165//260 107//260 108//260
f 137//261 93//261 94//261
f 137//257 135//257 93//257
f 165//262 108//262 167//262
f 108//263 109//263 167//263
f 93//264 135//264 92//264
f 92//244 135//244 133//244
f 167//237 109//237 169//237
f 173//265 110//265 111//265
f 91//242 92//242 133//242
f 90//259 91//259 133//259
f 175//266 111//266 112//266
f 176//267 112//267 81//267
f 89//268 90//268 131//268
f 88//269 89//269 129//269
f 115//270 81//270 82//270
f 117//271 82//271 83//271
f 121//272 86//272 123//272
f 121//273 85//273 86//273
f 117//274 83//274 84//274
f 117//275 84//275 119//275
f 121//272 119//272 85//272
f 101//255 102//255 155//255
o Plane.001_Plane
v -2.226668 1.941888 0.060090
v -2.269226 1.500501 0.109853
v -3.020268 2.017958 0.056126
v -3.062826 1.576571 0.105889
v -2.311202 1.546658 0.104916
v -2.276695 1.904550 0.064567
v -3.012799 1.613909 0.101412
v -2.978292 1.971802 0.061062
v -2.226722 1.940828 0.050640
v -2.269280 1.499441 0.100403
v -3.062880 1.575511 0.096439
v -3.024348 1.975151 0.051383
v -3.020323 2.016898 0.046676
v -2.276749 1.903490 0.055117
v -2.978346 1.970742 0.051613
v -3.058855 1.617258 0.091732
v -2.311256 1.545598 0.095467
v -3.012853 1.612849 0.091962
vn -0.9954 0.0954 -0.0050
vn -0.0954 -0.9892 0.1115
vn -0.0057 -0.1115 -0.9937
vn 0.0954 0.9892 -0.1115
vn 0.9954 -0.0954 0.0050
vn -0.0954 -0.9892 0.1116
usemtl None
s off
f 179//276 188//276 180//276
f 187//277 178//277 180//277
f 182//278 183//278 184//278
f 181//279 194//279 183//279
f 187//278 194//278 193//278
f 194//278 188//278 191//278
f 181//276 190//276 193//276
f 178//280 185//280 177//280
f 184//280 194//280 191//280
f 179//279 185//279 189//279
f 184//277 190//277 182//277
f 185//278 191//278 189//278
f 185//278 193//278 190//278
f 187//276 180//276 192//276
f 179//276 189//276 188//276
f 188//276 192//276 180//276
f 187//281 186//281 178//281
f 182//278 181//278 183//278
f 181//279 193//279 194//279
f 193//278 186//278 187//278
f 187//278 192//278 194//278
f 194//278 192//278 188//278
f 181//276 182//276 190//276
f 178//280 186//280 185//280
f 184//280 183//280 194//280
f 179//279 177//279 185//279
f 184//277 191//277 190//277
f 188//278 189//278 191//278
f 185//278 190//278 191//278
f 185//278 186//278 193//278
