# Blender v2.79 (sub 0) OBJ File: 'pokoj scalone sprzety.blend'
# www.blender.org
mtllib obraz2.mtl
o Plane.003
v -3.187602 2.336319 -0.442142
v -3.243634 1.755808 -0.442596
v -3.185369 2.336419 -0.891231
v -3.241401 1.755907 -0.891685
v -3.239962 1.789974 -0.479265
v -3.190913 2.304664 -0.478953
v -3.237989 1.790065 -0.854869
v -3.188940 2.304755 -0.854557
v -3.178008 2.335240 -0.442095
v -3.230494 1.788797 -0.442491
v -3.234040 1.754729 -0.442548
v -3.231807 1.754828 -0.891637
v -3.175775 2.335339 -0.891184
v -3.181315 2.303496 -0.478908
v -3.179342 2.303586 -0.854512
v -3.228261 1.788905 -0.891579
v -3.230364 1.788806 -0.479220
v -3.228391 1.788896 -0.854824
vt 0.889062 0.408592
vt 0.889323 0.007419
vt 0.899134 0.007308
vt 0.526926 0.727986
vt 0.517113 0.399793
vt 0.526926 0.399793
vt 0.486973 0.385139
vt 0.868734 0.007346
vt 0.868734 0.385177
vt 0.496786 0.727986
vt 0.486973 0.399793
vt 0.496786 0.399793
vt 0.587235 0.399796
vt 0.577408 0.674284
vt 0.577408 0.399793
vt 0.010164 0.433517
vt 0.047554 0.408476
vt 0.466613 0.433509
vt 0.466646 0.408478
vt 0.429254 0.030651
vt 0.466646 0.007308
vt 0.929533 0.433623
vt 0.919462 0.032345
vt 0.929533 0.007419
vt 0.949861 0.385142
vt 0.959685 0.007492
vt 0.959685 0.385327
vt 0.989836 0.385143
vt 0.980012 0.007492
vt 0.989836 0.007308
vt 0.557081 0.674284
vt 0.547254 0.399796
vt 0.557081 0.399793
vt 0.010196 0.408480
vt 0.047493 0.030645
vt 0.010196 0.007315
vt 0.899134 0.433512
vt 0.889323 0.433623
vt 0.517113 0.727986
vt 0.486973 0.007308
vt 0.486973 0.727986
vt 0.587235 0.674288
vt 0.429314 0.408482
vt 0.919722 0.007308
vt 0.919722 0.433511
vt 0.949861 0.007308
vt 0.980012 0.385327
vt 0.547253 0.674288
vn -0.0050 -0.0002 1.0000
vn 0.1118 0.9937 0.0008
vn 0.9955 -0.0949 0.0052
vn -0.1118 -0.9937 -0.0008
vn 0.1208 0.9927 0.0009
vn 0.9945 -0.1051 0.0049
vn 0.9954 -0.0956 -0.0070
vn 0.0080 0.0000 -1.0000
vn 0.0047 0.0002 -1.0000
vn -0.0047 -0.0002 1.0000
vn -0.1208 -0.9927 -0.0009
vn 0.9955 -0.0949 0.0035
vn 0.9944 -0.1057 0.0052
vn -0.0080 -0.0000 1.0000
vn -0.0051 -0.0012 1.0000
vn 0.9946 -0.1035 0.0035
vn 0.9948 -0.1017 0.0052
vn 0.0051 0.0012 -1.0000
vn 0.0050 0.0002 -1.0000
vn 0.9953 -0.0956 0.0140
vn 0.9940 -0.1093 0.0049
usemtl Material
s off
f 10/1/1 9/2/1 1/3/1
f 1/4/2 13/5/2 3/6/2
f 6/7/3 7/8/3 8/9/3
f 4/10/4 11/11/4 2/12/4
f 7/13/5 17/14/5 18/15/5
f 12/16/6 18/17/6 11/18/6
f 10/19/7 14/20/7 9/21/7
f 3/22/8 16/23/8 4/24/8
f 5/25/9 14/26/9 17/27/9
f 7/28/10 15/29/10 8/30/10
f 8/31/11 14/32/11 6/33/11
f 16/34/12 15/35/12 18/17/12
f 13/36/13 14/20/13 15/35/13
f 1/3/14 2/37/14 10/1/14
f 11/38/15 10/1/15 2/37/15
f 1/4/2 9/39/2 13/5/2
f 6/7/3 5/40/3 7/8/3
f 4/10/4 12/41/4 11/11/4
f 7/13/5 5/42/5 17/14/5
f 10/19/16 11/18/16 17/43/16
f 12/16/16 16/34/16 18/17/16
f 17/43/17 11/18/17 18/17/17
f 10/19/12 17/43/12 14/20/12
f 12/44/18 4/24/18 16/23/18
f 3/22/19 13/45/19 16/23/19
f 5/25/9 6/46/9 14/26/9
f 7/28/10 18/47/10 15/29/10
f 8/31/11 15/48/11 14/32/11
f 16/34/20 13/36/20 15/35/20
f 13/36/21 9/21/21 14/20/21
