# Blender v2.79 (sub 0) OBJ File: 'pokoj scalone sprzety.blend'
# www.blender.org
mtllib obraz5.mtl
o Plane.005
v -3.217869 1.313886 -1.417154
v -3.240010 1.014823 -1.417154
v -3.217869 1.313886 -1.888311
v -3.240010 1.014823 -1.888311
v -3.222413 1.248772 -1.808083
v -3.222413 1.248772 -1.497382
v -3.235465 1.072485 -1.497382
v -3.235465 1.072485 -1.808083
v -3.217429 1.248402 -1.808083
v -3.217429 1.248402 -1.497382
v -3.230480 1.072116 -1.497382
v -3.230480 1.072116 -1.808083
v -3.212884 1.313516 -1.888311
v -3.212884 1.313516 -1.417154
v -3.235025 1.014454 -1.417154
v -3.235025 1.014454 -1.888311
vt 0.715787 0.039066
vt 0.492494 0.443663
vt 0.492494 0.039066
vt 0.498808 0.926393
vt 0.492494 0.521796
vt 0.498808 0.521796
vt 0.580914 0.926393
vt 0.574600 0.521796
vt 0.580914 0.521796
vt 0.879999 0.652610
vt 0.873685 0.039066
vt 0.879999 0.039066
vt 0.797893 0.652610
vt 0.791579 0.039066
vt 0.797893 0.039066
vt 0.120346 0.548137
vt 0.037896 0.039066
vt 0.120346 0.143540
vt 0.416703 0.039066
vt 0.343639 0.143540
vt 0.663019 0.521797
vt 0.656705 0.912303
vt 0.656705 0.521796
vt 0.962104 0.429574
vt 0.955790 0.039067
vt 0.962104 0.039066
vt 0.126315 0.960933
vt 0.120001 0.730743
vt 0.126315 0.730743
vt 0.044210 0.730743
vt 0.037896 0.960933
vt 0.037896 0.730743
vt 0.416703 0.652610
vt 0.037896 0.652610
vt 0.343639 0.548137
vt 0.715788 0.443663
vt 0.492494 0.926393
vt 0.574600 0.926393
vt 0.873685 0.652610
vt 0.791579 0.652610
vt 0.663019 0.912304
vt 0.955790 0.429574
vt 0.120001 0.960934
vt 0.044210 0.960934
vn 0.9973 -0.0738 0.0000
vn -0.0740 -0.9973 0.0000
vn 0.0740 0.9973 0.0000
vn 0.9976 -0.0696 0.0000
vn 0.9973 -0.0738 0.0034
vn -0.0001 0.0000 -1.0000
vn 0.0000 0.0000 1.0000
vn 0.0000 0.0000 -1.0000
vn 0.9973 -0.0738 -0.0034
vn 0.9969 -0.0786 0.0000
vn 0.0001 0.0000 -1.0000
vn -0.0001 0.0000 1.0000
usemtl None
s off
f 7/1/1 5/2/1 6/3/1
f 5/4/2 10/5/2 6/6/2
f 7/7/3 12/8/3 8/9/3
f 1/10/3 13/11/3 3/12/3
f 4/13/2 15/14/2 2/15/2
f 9/16/4 14/17/4 10/18/4
f 10/18/5 15/19/5 11/20/5
f 4/21/6 13/22/6 16/23/6
f 2/24/7 14/25/7 1/26/7
f 8/27/7 9/28/7 5/29/7
f 7/30/8 10/31/8 11/32/8
f 9/16/9 16/33/9 13/34/9
f 12/35/10 15/19/10 16/33/10
f 7/1/1 8/36/1 5/2/1
f 5/4/2 9/37/2 10/5/2
f 7/7/3 11/38/3 12/8/3
f 1/10/3 14/39/3 13/11/3
f 4/13/2 16/40/2 15/14/2
f 9/16/4 13/34/4 14/17/4
f 10/18/5 14/17/5 15/19/5
f 4/21/11 3/41/11 13/22/11
f 2/24/7 15/42/7 14/25/7
f 8/27/12 12/43/12 9/28/12
f 7/30/8 6/44/8 10/31/8
f 9/16/9 12/35/9 16/33/9
f 12/35/10 11/20/10 15/19/10
