# Blender v2.79 (sub 0) OBJ File: 'pokoj scalone sprzety.blend'
# www.blender.org
mtllib obraz nad lozkiem3.mtl
o Plane.004
v -3.188084 2.312718 -1.438369
v -3.238349 1.735282 -1.502976
v -3.186348 2.362469 -1.884696
v -3.236614 1.785033 -1.949303
v -3.189475 2.330981 -1.888250
v -3.235058 1.773326 -1.535645
v -3.191122 2.285294 -1.478453
v -3.233500 1.814945 -1.908938
v -3.189564 2.326912 -1.851746
v -3.178480 2.311736 -1.438441
v -3.225537 1.768187 -1.499226
v -3.228745 1.734300 -1.503049
v -3.227009 1.784051 -1.949375
v -3.179866 2.329911 -1.888331
v -3.176744 2.361487 -1.884768
v -3.181513 2.284224 -1.478537
v -3.179955 2.325842 -1.851830
v -3.223802 1.817946 -1.945552
v -3.225448 1.772256 -1.535730
v -3.223891 1.813875 -1.909023
vt 0.000000 0.000000
vt 0.000000 0.000000
vt 0.000000 0.000000
vt 0.001272 0.998222
vt 0.999790 0.000692
vt 1.000008 0.998495
vt 0.000000 0.000000
vt 0.000000 0.000000
vt 0.000000 0.000000
vt 0.000000 0.000000
vt 0.000000 0.000000
vt 0.000000 0.000000
vt 0.000000 0.000000
vt 0.000000 0.000000
vt 0.000000 0.000000
vt 0.000000 0.000000
vt 0.000000 0.000000
vt 0.000000 0.000000
vt 0.000000 0.000000
vt 0.000000 0.000000
vt 0.000000 0.000000
vt 0.000000 0.000000
vt 0.001055 0.000419
vt 0.000000 0.000000
vn -0.1019 -0.9886 -0.1106
vn 0.9964 -0.0849 -0.0053
vn 0.1110 0.9877 0.1106
vn 0.0070 0.1105 -0.9938
vn 0.9955 -0.0950 -0.0067
vn 0.9964 -0.0847 -0.0070
vn 0.1019 0.9886 0.1106
vn 0.0036 0.1107 -0.9938
vn -0.0069 -0.1106 0.9938
vn -0.0036 -0.1107 0.9938
vn 0.0040 0.1118 -0.9937
vn -0.1110 -0.9877 -0.1106
vn 0.9954 -0.0957 -0.0065
vn 0.0040 0.1117 -0.9937
vn 0.0039 0.1107 -0.9938
vn 0.9956 -0.0933 -0.0080
vn 0.9958 -0.0917 -0.0061
vn 0.9963 -0.0843 -0.0175
vn -0.0039 -0.1108 0.9938
vn -0.0039 -0.1117 0.9937
vn -0.1109 -0.9877 -0.1106
vn 0.9950 -0.0992 -0.0072
vn 0.9952 -0.0975 -0.0084
usemtl Material
s off
f 13/1/1 2/2/1 4/3/1
f 7/4/2 8/5/2 9/6/2
f 8/7/3 19/8/3 20/9/3
f 5/10/4 18/11/4 4/3/4
f 13/1/5 20/9/5 12/12/5
f 16/13/6 11/14/6 19/8/6
f 1/15/7 15/16/7 3/17/7
f 6/18/8 16/13/8 19/8/8
f 2/2/9 11/14/9 1/15/9
f 8/7/10 17/19/10 9/20/10
f 5/10/11 15/16/11 14/21/11
f 9/20/12 16/13/12 7/22/12
f 15/16/13 16/13/13 17/19/13
f 17/19/6 20/9/6 14/21/6
f 13/1/1 12/12/1 2/2/1
f 7/4/2 6/23/2 8/5/2
f 8/7/3 6/18/3 19/8/3
f 13/1/14 4/3/14 18/11/14
f 5/10/15 14/21/15 18/11/15
f 11/14/16 12/12/16 19/8/16
f 13/1/16 18/11/16 20/9/16
f 19/8/17 12/12/17 20/9/17
f 16/13/18 10/24/18 11/14/18
f 1/15/7 10/24/7 15/16/7
f 6/18/8 7/22/8 16/13/8
f 10/24/19 1/15/19 11/14/19
f 2/2/20 12/12/20 11/14/20
f 8/7/10 20/9/10 17/19/10
f 5/10/11 3/17/11 15/16/11
f 9/20/21 17/19/21 16/13/21
f 15/16/22 10/24/22 16/13/22
f 18/11/6 14/21/6 20/9/6
f 15/16/23 17/19/23 14/21/23
o Cylinder.018
v -3.254285 2.438870 -1.646279
v -3.254272 2.438820 -1.646556
v -3.254232 2.438723 -1.646817
v -3.254167 2.438585 -1.647053
v -3.254080 2.438409 -1.647254
v -3.253974 2.438203 -1.647414
v -3.253852 2.437975 -1.647525
v -3.253721 2.437734 -1.647584
v -3.253584 2.437488 -1.647588
v -3.253447 2.437247 -1.647538
v -3.253316 2.437021 -1.647434
v -3.253195 2.436819 -1.647282
v -3.253088 2.436647 -1.647086
v -3.253001 2.436512 -1.646855
v -3.252936 2.436421 -1.646597
v -3.252896 2.436376 -1.646322
v -3.252883 2.436378 -1.646041
v -3.252896 2.436429 -1.645765
v -3.252936 2.436526 -1.645504
v -3.253001 2.436664 -1.645268
v -3.253088 2.436840 -1.645066
v -3.253195 2.437046 -1.644906
v -3.253316 2.437274 -1.644795
v -3.253447 2.437515 -1.644736
v -3.253584 2.437761 -1.644732
v -3.253721 2.438001 -1.644783
v -3.253852 2.438227 -1.644886
v -3.253974 2.438430 -1.645039
v -3.254080 2.438602 -1.645234
v -3.254167 2.438736 -1.645466
v -3.254232 2.438828 -1.645724
v -3.254272 2.438873 -1.645998
v -3.170607 2.485538 -1.650742
v -3.170594 2.485487 -1.651019
v -3.170554 2.485391 -1.651280
v -3.170489 2.485252 -1.651516
v -3.170402 2.485076 -1.651717
v -3.170295 2.484871 -1.651877
v -3.170174 2.484643 -1.651988
v -3.170043 2.484401 -1.652047
v -3.169906 2.484155 -1.652051
v -3.169769 2.483915 -1.652001
v -3.169637 2.483689 -1.651897
v -3.169516 2.483486 -1.651744
v -3.169410 2.483314 -1.651549
v -3.169323 2.483180 -1.651317
v -3.169258 2.483088 -1.651059
v -3.169218 2.483043 -1.650785
v -3.169204 2.483046 -1.650504
v -3.169218 2.483096 -1.650227
v -3.169258 2.483193 -1.649966
v -3.169323 2.483332 -1.649730
v -3.169410 2.483507 -1.649529
v -3.169516 2.483713 -1.649369
v -3.169637 2.483941 -1.649258
v -3.169769 2.484183 -1.649199
v -3.169906 2.484428 -1.649195
v -3.170043 2.484669 -1.649245
v -3.170174 2.484895 -1.649349
v -3.170295 2.485098 -1.649502
v -3.170402 2.485270 -1.649697
v -3.170489 2.485404 -1.649928
v -3.170554 2.485495 -1.650186
v -3.170594 2.485541 -1.650461
v -3.171239 2.488935 -1.651066
v -3.171195 2.488769 -1.651976
v -3.172171 2.488225 -1.651925
v -3.171064 2.488451 -1.652835
v -3.172040 2.487907 -1.652784
v -3.170851 2.487994 -1.653612
v -3.171827 2.487450 -1.653561
v -3.170564 2.487416 -1.654275
v -3.171540 2.486872 -1.654224
v -3.170215 2.486739 -1.654800
v -3.171191 2.486195 -1.654749
v -3.169816 2.485988 -1.655167
v -3.170792 2.485445 -1.655116
v -3.169383 2.485193 -1.655360
v -3.170359 2.484650 -1.655310
v -3.168932 2.484385 -1.655374
v -3.169908 2.483841 -1.655324
v -3.168482 2.483594 -1.655208
v -3.169458 2.483050 -1.655157
v -3.168048 2.482851 -1.654867
v -3.169024 2.482307 -1.654816
v -3.167649 2.482183 -1.654364
v -3.168625 2.481640 -1.654314
v -3.167299 2.481618 -1.653720
v -3.168275 2.481075 -1.653670
v -3.167011 2.481177 -1.652960
v -3.167987 2.480633 -1.652909
v -3.166797 2.480876 -1.652111
v -3.167773 2.480332 -1.652060
v -3.166665 2.480727 -1.651207
v -3.167642 2.480183 -1.651156
v -3.166620 2.480736 -1.650282
v -3.167597 2.480193 -1.650231
v -3.166664 2.480903 -1.649373
v -3.167641 2.480359 -1.649322
v -3.166795 2.481221 -1.648514
v -3.167772 2.480677 -1.648463
v -3.167008 2.481678 -1.647737
v -3.167984 2.481134 -1.647686
v -3.167295 2.482256 -1.647074
v -3.168271 2.481712 -1.647023
v -3.167645 2.482933 -1.646549
v -3.168621 2.482389 -1.646498
v -3.168044 2.483684 -1.646182
v -3.169020 2.483140 -1.646131
v -3.168477 2.484478 -1.645988
v -3.169453 2.483934 -1.645937
v -3.168927 2.485287 -1.645974
v -3.169904 2.484743 -1.645924
v -3.169378 2.486078 -1.646141
v -3.170354 2.485534 -1.646090
v -3.169811 2.486821 -1.646482
v -3.170787 2.486278 -1.646431
v -3.170211 2.487488 -1.646984
v -3.171187 2.486945 -1.646934
v -3.170561 2.488054 -1.647628
v -3.171537 2.487510 -1.647577
v -3.170848 2.488495 -1.648389
v -3.171824 2.487951 -1.648338
v -3.171062 2.488796 -1.649238
v -3.172038 2.488252 -1.649187
v -3.171194 2.488945 -1.650142
v -3.172170 2.488401 -1.650091
v -3.172215 2.488392 -1.651016
vn -0.4868 0.8546 -0.1810
vn -0.4676 0.8031 -0.3694
vn -0.4313 0.7210 -0.5424
vn -0.3785 0.6111 -0.6951
vn -0.3103 0.4777 -0.8219
vn -0.2309 0.3254 -0.9170
vn -0.1420 0.1609 -0.9767
vn -0.0475 -0.0096 -0.9988
vn 0.0477 -0.1795 -0.9826
vn 0.1424 -0.3435 -0.9283
vn 0.2302 -0.4931 -0.8390
vn 0.3099 -0.6246 -0.7168
vn 0.3777 -0.7315 -0.5677
vn 0.4313 -0.8107 -0.3959
vn 0.4679 -0.8587 -0.2088
vn 0.4861 -0.8738 -0.0155
vn 0.4862 -0.8551 0.1801
vn 0.4670 -0.8032 0.3699
vn 0.4316 -0.7214 0.5416
vn 0.3781 -0.6112 0.6953
vn 0.3099 -0.4768 0.8225
vn 0.2309 -0.3253 0.9170
vn 0.1412 -0.1611 0.9768
vn 0.0481 0.0094 0.9988
vn -0.0481 0.1803 0.9824
vn -0.1423 0.3434 0.9284
vn -0.2309 0.4934 0.8386
vn -0.3096 0.6240 0.7175
vn -0.3777 0.7320 0.5670
vn -0.4313 0.8107 0.3959
vn -0.8724 -0.4866 0.0465
vn -0.4676 0.8583 0.2114
vn -0.4865 0.8736 0.0141
vn 0.8723 0.4868 -0.0472
vn -0.4857 0.8740 0.0153
vn -0.4678 0.8586 0.2097
vn -0.4308 0.8107 0.3965
vn -0.3782 0.7317 0.5671
vn -0.3105 0.6241 0.7170
vn -0.2309 0.4929 0.8389
vn -0.1424 0.3429 0.9285
vn -0.0488 0.1794 0.9826
vn 0.0466 0.0090 0.9989
vn 0.1412 -0.1617 0.9767
vn 0.2292 -0.3260 0.9172
vn 0.3093 -0.4778 0.8222
vn 0.3767 -0.6115 0.6958
vn 0.4302 -0.7218 0.5422
vn 0.4669 -0.8039 0.3685
vn 0.4855 -0.8554 0.1805
vn 0.4860 -0.8738 -0.0149
vn 0.4674 -0.8589 -0.2094
vn 0.4308 -0.8109 -0.3961
vn 0.3778 -0.7317 -0.5673
vn 0.3104 -0.6240 -0.7171
vn 0.2307 -0.4928 -0.8390
vn 0.1423 -0.3428 -0.9286
vn 0.0483 -0.1792 -0.9826
vn -0.0468 -0.0091 -0.9989
vn -0.1410 0.1617 -0.9767
vn -0.2291 0.3260 -0.9172
vn -0.3091 0.4781 -0.8221
vn -0.3767 0.6110 -0.6963
vn -0.4303 0.7216 -0.5423
vn -0.4671 0.8038 -0.3684
vn -0.4859 0.8552 -0.1804
vn -0.8729 -0.4856 0.0472
vn -0.8716 -0.4879 0.0476
vn -0.4861 0.8552 -0.1799
vn -0.4681 0.8039 -0.3669
vn -0.4307 0.7212 -0.5426
vn -0.3776 0.6103 -0.6964
vn -0.3097 0.4771 -0.8225
vn -0.2301 0.3257 -0.9171
vn -0.1418 0.1608 -0.9768
vn -0.0480 -0.0098 -0.9988
vn 0.0475 -0.1799 -0.9825
vn 0.1415 -0.3433 -0.9285
vn 0.2307 -0.4933 -0.8387
vn 0.3103 -0.6246 -0.7167
vn 0.3775 -0.7314 -0.5679
vn 0.4309 -0.8111 -0.3956
vn 0.4677 -0.8586 -0.2099
vn 0.4867 -0.8734 -0.0144
vn 0.4864 -0.8549 0.1801
vn 0.4680 -0.8032 0.3685
vn 0.4308 -0.7207 0.5432
vn 0.3779 -0.6113 0.6953
vn 0.3097 -0.4772 0.8224
vn 0.2308 -0.3258 0.9168
vn 0.1425 -0.1610 0.9766
vn 0.0474 0.0096 0.9988
vn -0.0477 0.1799 0.9825
vn -0.1413 0.3429 0.9287
vn -0.2304 0.4938 0.8385
vn -0.3100 0.6239 0.7174
vn -0.3782 0.7324 0.5662
vn -0.4307 0.8107 0.3965
vn -0.8714 -0.4883 0.0479
vn -0.8752 -0.4808 0.0526
vn -0.8739 -0.4843 0.0416
vn -0.8723 -0.4857 0.0566
vn -0.8701 -0.4897 0.0565
vn -0.8729 -0.4858 0.0455
vn -0.8704 -0.4899 0.0490
vn -0.8802 -0.4724 0.0462
vn -0.8793 -0.4741 0.0449
vn -0.8718 -0.4873 0.0495
vn -0.8711 -0.4890 0.0458
vn -0.8729 -0.4854 0.0489
vn -0.8745 -0.4829 0.0456
vn -0.8777 -0.4767 0.0492
vn -0.8738 -0.4842 0.0454
vn -0.8717 -0.4879 0.0455
vn -0.8724 -0.4867 0.0461
vn -0.8721 -0.4874 0.0437
vn -0.8722 -0.4870 0.0456
vn -0.8724 -0.4866 0.0463
vn -0.8725 -0.4864 0.0469
vn -0.8724 -0.4866 0.0466
vn -0.8730 -0.4856 0.0465
vn -0.8731 -0.4853 0.0466
vn -0.8722 -0.4869 0.0477
vn -0.8724 -0.4865 0.0465
vn -0.8723 -0.4869 0.0456
vn -0.8713 -0.4886 0.0456
vn -0.8725 -0.4864 0.0466
vn -0.4679 0.8590 0.2077
vn -0.4863 0.8736 0.0166
vn 0.8723 0.4867 -0.0465
vn 0.8709 0.4891 -0.0474
vn 0.8724 0.4866 -0.0466
vn 0.8733 0.4849 -0.0476
vn 0.8728 0.4858 -0.0475
vn 0.8744 0.4829 -0.0475
vn 0.8719 0.4875 -0.0474
vn 0.8718 0.4876 -0.0475
vn 0.8723 0.4867 -0.0470
vn 0.8737 0.4842 -0.0466
vn 0.8754 0.4811 -0.0468
vn 0.8720 0.4872 -0.0480
vn 0.8719 0.4873 -0.0475
vn 0.8706 0.4896 -0.0480
vn 0.8720 0.4871 -0.0475
vn 0.8722 0.4869 -0.0474
vn 0.8724 0.4865 -0.0471
vn 0.8722 0.4868 -0.0468
vn 0.8713 0.4885 -0.0470
vn 0.8722 0.4868 -0.0469
vn 0.8719 0.4872 -0.0484
vn 0.8719 0.4875 -0.0470
vn 0.8730 0.4854 -0.0466
vn 0.8720 0.4873 -0.0461
vn 0.8721 0.4871 -0.0472
vn 0.8722 0.4869 -0.0471
vn 0.8723 0.4867 -0.0472
vn -0.4861 0.8738 0.0148
vn -0.4673 0.8590 0.2093
vn -0.4314 0.8106 0.3961
vn -0.3780 0.7317 0.5672
vn -0.3105 0.6246 0.7166
vn -0.2310 0.4935 0.8385
vn -0.1428 0.3428 0.9285
vn 0.0470 0.0091 0.9989
vn 0.1406 -0.1618 0.9768
vn 0.2294 -0.3261 0.9171
vn 0.3088 -0.4782 0.8222
vn 0.3771 -0.6111 0.6959
vn 0.4302 -0.7213 0.5428
vn 0.4669 -0.8038 0.3687
vn 0.4856 -0.8555 0.1799
vn 0.4859 -0.8739 -0.0153
vn 0.4674 -0.8588 -0.2096
vn 0.3780 -0.7317 -0.5672
vn 0.3105 -0.6242 -0.7169
vn 0.2311 -0.4934 -0.8385
vn 0.1429 -0.3430 -0.9284
vn 0.0491 -0.1794 -0.9825
vn -0.0469 -0.0091 -0.9989
vn -0.1407 0.1615 -0.9768
vn -0.2292 0.3259 -0.9172
vn -0.3092 0.4784 -0.8219
vn -0.3768 0.6114 -0.6958
vn -0.4302 0.7217 -0.5423
vn -0.4665 0.8041 -0.3685
vn -0.4860 0.8552 -0.1803
vn -0.8722 -0.4871 0.0458
vn -0.8719 -0.4873 0.0476
vn -0.8720 -0.4871 0.0474
vn -0.8725 -0.4862 0.0476
vn -0.8725 -0.4862 0.0474
vn -0.8716 -0.4879 0.0474
vn -0.8723 -0.4867 0.0472
vn -0.8723 -0.4866 0.0474
vn -0.8721 -0.4870 0.0474
vn -0.8722 -0.4869 0.0475
vn -0.8720 -0.4873 0.0474
vn -0.8725 -0.4862 0.0477
vn -0.8721 -0.4870 0.0471
vn -0.8721 -0.4871 0.0470
vn -0.8724 -0.4866 0.0474
vn -0.8721 -0.4871 0.0472
vn -0.8723 -0.4867 0.0471
vn -0.8721 -0.4870 0.0472
vn -0.8723 -0.4867 0.0475
vn -0.8725 -0.4863 0.0475
vn -0.8725 -0.4864 0.0476
vn -0.8717 -0.4877 0.0471
vn -0.8717 -0.4877 0.0473
vn -0.8720 -0.4873 0.0475
vn -0.8723 -0.4867 0.0474
vn -0.8723 -0.4866 0.0471
vn -0.8724 -0.4865 0.0476
vn -0.8722 -0.4869 0.0474
vn -0.8707 -0.4895 0.0472
vn -0.8725 -0.4864 0.0473
vn -0.8720 -0.4874 0.0458
vn -0.8722 -0.4869 0.0470
vn -0.8719 -0.4875 0.0470
vn -0.8726 -0.4861 0.0472
vn -0.8724 -0.4867 0.0459
vn -0.8724 -0.4867 0.0465
vn -0.8726 -0.4862 0.0466
vn -0.8729 -0.4858 0.0466
vn -0.8722 -0.4870 0.0463
vn -0.8732 -0.4851 0.0463
vn -0.8727 -0.4860 0.0466
vn -0.8725 -0.4863 0.0465
vn -0.8717 -0.4878 0.0472
vn -0.8727 -0.4859 0.0473
vn -0.8722 -0.4870 0.0471
vn -0.8722 -0.4869 0.0463
vn -0.8721 -0.4871 0.0474
vn -0.8723 -0.4866 0.0476
vn -0.8714 -0.4882 0.0473
vn -0.8720 -0.4872 0.0474
vn -0.8720 -0.4872 0.0471
vn -0.8718 -0.4876 0.0473
vn -0.8723 -0.4867 0.0476
vn -0.8720 -0.4872 0.0472
usemtl None
s off
f 54//24 21//24 53//24
f 54//25 23//25 22//25
f 56//26 23//26 55//26
f 57//27 24//27 56//27
f 57//28 26//28 25//28
f 59//29 26//29 58//29
f 60//30 27//30 59//30
f 61//31 28//31 60//31
f 61//32 30//32 29//32
f 62//33 31//33 30//33
f 64//34 31//34 63//34
f 64//35 33//35 32//35
f 66//36 33//36 65//36
f 66//37 35//37 34//37
f 68//38 35//38 67//38
f 69//39 36//39 68//39
f 70//40 37//40 69//40
f 71//41 38//41 70//41
f 72//42 39//42 71//42
f 73//43 40//43 72//43
f 73//44 42//44 41//44
f 75//45 42//45 74//45
f 75//46 44//46 43//46
f 77//47 44//47 76//47
f 78//48 45//48 77//48
f 78//49 47//49 46//49
f 80//50 47//50 79//50
f 81//51 48//51 80//51
f 81//52 50//52 49//52
f 82//53 51//53 50//53
f 37//54 45//54 29//54
f 83//55 52//55 51//55
f 84//56 21//56 52//56
f 124//57 116//57 100//57
f 85//58 147//58 146//58
f 146//59 145//59 144//59
f 144//60 143//60 142//60
f 142//61 141//61 140//61
f 140//62 139//62 138//62
f 138//63 137//63 136//63
f 136//64 135//64 134//64
f 134//65 133//65 132//65
f 132//66 131//66 130//66
f 130//67 129//67 128//67
f 128//68 127//68 126//68
f 124//69 127//69 125//69
f 122//70 125//70 123//70
f 120//71 123//71 121//71
f 118//72 121//72 119//72
f 116//73 119//73 117//73
f 114//74 117//74 115//74
f 112//75 115//75 113//75
f 110//76 113//76 111//76
f 108//77 111//77 109//77
f 106//78 109//78 107//78
f 104//79 107//79 105//79
f 102//80 105//80 103//80
f 100//81 103//81 101//81
f 98//82 101//82 99//82
f 96//83 99//83 97//83
f 94//84 97//84 95//84
f 94//85 93//85 92//85
f 92//86 91//86 90//86
f 90//87 89//87 88//87
f 88//88 87//88 86//88
f 86//89 148//89 85//89
f 93//90 58//90 57//90
f 73//91 127//91 74//91
f 54//92 22//92 21//92
f 54//93 55//93 23//93
f 56//94 24//94 23//94
f 57//95 25//95 24//95
f 57//96 58//96 26//96
f 59//97 27//97 26//97
f 60//98 28//98 27//98
f 61//99 29//99 28//99
f 61//100 62//100 30//100
f 62//101 63//101 31//101
f 64//102 32//102 31//102
f 64//103 65//103 33//103
f 66//104 34//104 33//104
f 66//105 67//105 35//105
f 68//106 36//106 35//106
f 69//107 37//107 36//107
f 70//108 38//108 37//108
f 71//109 39//109 38//109
f 72//110 40//110 39//110
f 73//111 41//111 40//111
f 73//112 74//112 42//112
f 75//113 43//113 42//113
f 75//114 76//114 44//114
f 77//115 45//115 44//115
f 78//116 46//116 45//116
f 78//117 79//117 47//117
f 80//118 48//118 47//118
f 81//119 49//119 48//119
f 81//120 82//120 50//120
f 82//121 83//121 51//121
f 21//122 22//122 23//122
f 23//123 24//123 25//123
f 25//124 26//124 27//124
f 27//125 28//125 29//125
f 29//126 30//126 31//126
f 31//127 32//127 33//127
f 33//128 34//128 35//128
f 35//129 36//129 37//129
f 37//130 38//130 39//130
f 39//131 40//131 41//131
f 41//132 42//132 43//132
f 43//133 44//133 45//133
f 45//134 46//134 47//134
f 47//135 48//135 49//135
f 49//136 50//136 51//136
f 51//137 52//137 21//137
f 21//138 23//138 29//138
f 25//139 27//139 29//139
f 29//140 31//140 33//140
f 33//141 35//141 29//141
f 37//142 39//142 45//142
f 41//143 43//143 45//143
f 45//144 47//144 21//144
f 49//145 51//145 21//145
f 23//146 25//146 29//146
f 29//147 35//147 37//147
f 39//148 41//148 45//148
f 47//149 49//149 21//149
f 21//150 29//150 45//150
f 83//151 84//151 52//151
f 84//152 53//152 21//152
f 100//153 98//153 92//153
f 96//154 94//154 92//154
f 92//155 90//155 88//155
f 88//156 86//156 85//156
f 85//157 146//157 140//157
f 144//158 142//158 140//158
f 140//159 138//159 136//159
f 136//160 134//160 132//160
f 132//161 130//161 124//161
f 128//162 126//162 124//162
f 124//163 122//163 120//163
f 120//164 118//164 124//164
f 116//165 114//165 108//165
f 112//166 110//166 108//166
f 108//167 106//167 100//167
f 104//168 102//168 100//168
f 98//169 96//169 92//169
f 92//170 88//170 100//170
f 146//171 144//171 140//171
f 140//172 136//172 85//172
f 130//173 128//173 124//173
f 124//174 118//174 116//174
f 114//175 112//175 108//175
f 106//176 104//176 100//176
f 100//177 88//177 85//177
f 85//178 136//178 132//178
f 132//179 124//179 100//179
f 116//178 108//178 100//178
f 100//57 85//57 132//57
f 85//180 148//180 147//180
f 146//181 147//181 145//181
f 144//182 145//182 143//182
f 142//183 143//183 141//183
f 140//184 141//184 139//184
f 138//185 139//185 137//185
f 136//186 137//186 135//186
f 134//65 135//65 133//65
f 132//187 133//187 131//187
f 130//188 131//188 129//188
f 128//189 129//189 127//189
f 124//190 126//190 127//190
f 122//191 124//191 125//191
f 120//192 122//192 123//192
f 118//193 120//193 121//193
f 116//194 118//194 119//194
f 114//195 116//195 117//195
f 112//196 114//196 115//196
f 110//76 112//76 113//76
f 108//197 110//197 111//197
f 106//198 108//198 109//198
f 104//199 106//199 107//199
f 102//200 104//200 105//200
f 100//201 102//201 103//201
f 98//202 100//202 101//202
f 96//203 98//203 99//203
f 94//204 96//204 97//204
f 94//205 95//205 93//205
f 92//206 93//206 91//206
f 90//207 91//207 89//207
f 88//208 89//208 87//208
f 86//209 87//209 148//209
f 147//210 84//210 83//210
f 53//211 84//211 148//211
f 91//212 93//212 57//212
f 95//213 97//213 59//213
f 99//214 101//214 61//214
f 103//215 62//215 61//215
f 107//216 109//216 65//216
f 111//217 113//217 67//217
f 115//218 117//218 69//218
f 119//219 121//219 70//219
f 123//220 125//220 72//220
f 125//221 73//221 72//221
f 117//222 119//222 70//222
f 109//223 111//223 66//223
f 101//224 103//224 61//224
f 93//225 95//225 58//225
f 148//226 84//226 147//226
f 143//219 145//219 83//219
f 139//227 141//227 81//227
f 135//228 137//228 79//228
f 131//229 133//229 76//229
f 127//230 129//230 75//230
f 75//231 74//231 127//231
f 76//232 75//232 129//232
f 129//233 131//233 76//233
f 137//234 139//234 80//234
f 145//235 147//235 83//235
f 97//236 99//236 60//236
f 113//222 115//222 68//222
f 123//143 72//143 71//143
f 123//237 71//237 121//237
f 141//227 143//227 82//227
f 76//238 133//238 77//238
f 77//239 133//239 135//239
f 121//240 71//240 70//240
f 117//241 70//241 69//241
f 78//242 77//242 135//242
f 79//243 78//243 135//243
f 115//244 69//244 68//244
f 113//245 68//245 67//245
f 80//246 79//246 137//246
f 81//247 80//247 139//247
f 111//248 67//248 66//248
f 109//249 66//249 65//249
f 82//250 81//250 141//250
f 83//251 82//251 143//251
f 107//252 65//252 64//252
f 107//253 64//253 63//253
f 87//254 53//254 148//254
f 87//255 54//255 53//255
f 107//235 63//235 105//235
f 63//246 62//246 105//246
f 87//256 89//256 54//256
f 54//250 89//250 55//250
f 105//257 62//257 103//257
f 99//258 61//258 60//258
f 55//259 89//259 91//259
f 56//231 55//231 91//231
f 97//260 60//260 59//260
f 95//261 59//261 58//261
f 57//262 56//262 91//262
f 73//263 125//263 127//263
o NurbsPath.003
v -3.190705 2.343804 -1.874214
v -3.192184 2.342510 -1.873471
v -3.190692 2.341256 -1.872688
v -3.189214 2.342550 -1.873430
v -3.192552 2.396169 -1.787384
v -3.194031 2.394880 -1.786633
v -3.192540 2.393630 -1.785842
v -3.191061 2.394919 -1.786593
v -3.193808 2.430731 -1.730862
v -3.195287 2.429443 -1.730109
v -3.193796 2.428198 -1.729310
v -3.192317 2.429486 -1.730063
v -3.194763 2.452873 -1.694772
v -3.196241 2.451576 -1.694035
v -3.194750 2.450330 -1.693238
v -3.193272 2.451627 -1.693975
v -3.195549 2.466358 -1.672016
v -3.197025 2.465022 -1.671345
v -3.195532 2.463750 -1.670593
v -3.194056 2.465086 -1.671263
v -3.196170 2.473439 -1.657808
v -3.197635 2.471992 -1.657397
v -3.196133 2.470618 -1.656878
v -3.194668 2.472066 -1.657290
v -3.196606 2.475092 -1.648026
v -3.198046 2.473580 -1.648256
v -3.196518 2.472143 -1.648374
v -3.195078 2.473655 -1.648143
v -3.196826 2.471267 -1.639081
v -3.198251 2.469958 -1.639898
v -3.196708 2.468732 -1.640624
v -3.195283 2.470041 -1.639806
v -3.196846 2.461488 -1.627103
v -3.198270 2.460314 -1.628106
v -3.196726 2.459238 -1.629039
v -3.195302 2.460412 -1.628036
v -3.196586 2.441085 -1.604545
v -3.198010 2.439934 -1.605574
v -3.196466 2.438895 -1.606548
v -3.195042 2.440046 -1.605519
v -3.195567 2.395292 -1.554925
v -3.196991 2.394146 -1.555959
v -3.195448 2.393122 -1.556950
v -3.194024 2.394268 -1.555915
v -3.192861 2.298118 -1.451524
v -3.194286 2.296978 -1.452565
v -3.192743 2.295965 -1.453568
v -3.191319 2.297105 -1.452527
vn -0.0040 0.8547 -0.5191
vn 0.9998 0.0121 0.0142
vn -0.0043 0.8563 -0.5164
vn -0.9998 -0.0144 -0.0130
vn -0.9998 -0.0140 -0.0127
vn 0.0041 -0.8562 0.5166
vn 0.0043 -0.8547 0.5190
vn 0.9998 0.0140 0.0157
vn 0.9998 0.0119 0.0144
vn -0.9998 -0.0148 -0.0154
vn 0.0050 -0.8527 0.5224
vn -0.0032 0.8527 -0.5224
vn 0.9996 0.0200 0.0184
vn -0.9996 -0.0141 -0.0219
vn 0.0059 -0.8562 0.5166
vn -0.0025 0.8563 -0.5164
vn 0.9991 0.0355 0.0201
vn -0.9993 -0.0071 -0.0351
vn 0.0078 -0.8776 0.4793
vn -0.0034 0.8780 -0.4787
vn 0.9961 0.0865 0.0171
vn -0.9978 0.0369 -0.0551
vn 0.0145 -0.9487 0.3157
vn -0.0108 0.9500 -0.3121
vn 0.9869 0.1522 0.0526
vn -0.9945 0.1016 -0.0227
vn 0.0281 -0.9927 -0.1173
vn -0.0418 0.8539 0.5188
vn -0.0305 0.9926 0.1171
vn -0.9997 0.0253 -0.0002
vn 0.9948 0.0808 0.0618
vn -0.0421 0.7573 0.6516
vn 0.0372 -0.8520 -0.5222
vn -0.9995 -0.0244 -0.0165
vn 0.9987 0.0416 0.0307
vn -0.0416 0.7373 0.6742
vn 0.0386 -0.7571 -0.6522
vn -0.9992 -0.0360 -0.0169
vn 0.9990 0.0393 0.0199
vn -0.0408 0.7307 0.6814
vn -0.9991 -0.0394 -0.0134
vn 0.0388 -0.7374 -0.6743
vn 0.0392 -0.7307 -0.6815
vn -0.0404 0.7276 0.6848
vn 0.9990 0.0425 0.0162
vn -0.9991 -0.0408 -0.0121
vn 0.0395 -0.7277 -0.6847
vn 0.9989 0.0435 0.0147
usemtl None
s 1
f 153//264 152//265 149//266
f 154//267 149//266 150//268
f 151//269 154//267 150//268
f 152//265 155//270 151//269
f 153//264 160//271 156//272
f 158//273 153//264 154//267
f 159//274 154//267 155//270
f 156//272 159//274 155//270
f 157//275 164//276 160//271
f 162//277 157//275 158//273
f 163//278 158//273 159//274
f 160//271 163//278 159//274
f 161//279 168//280 164//276
f 166//281 161//279 162//277
f 167//282 162//277 163//278
f 164//276 167//282 163//278
f 165//283 172//284 168//280
f 170//285 165//283 166//281
f 171//286 166//281 167//282
f 168//280 171//286 167//282
f 169//287 176//288 172//284
f 174//289 169//287 170//285
f 175//290 170//285 171//286
f 172//284 175//290 171//286
f 177//291 176//288 173//292
f 174//289 177//291 173//292
f 175//290 178//293 174//289
f 180//294 175//290 176//288
f 181//295 180//294 177//291
f 178//293 181//295 177//291
f 179//296 182//297 178//293
f 184//298 179//296 180//294
f 185//299 184//298 181//295
f 182//297 185//299 181//295
f 183//300 186//301 182//297
f 188//302 183//300 184//298
f 189//303 188//302 185//299
f 190//304 185//299 186//301
f 187//305 190//304 186//301
f 188//302 191//306 187//305
f 193//307 192//308 189//303
f 194//309 189//303 190//304
f 191//306 194//309 190//304
f 192//308 195//310 191//306
f 153//264 156//272 152//265
f 154//267 153//264 149//266
f 151//269 155//270 154//267
f 152//265 156//272 155//270
f 153//264 157//275 160//271
f 158//273 157//275 153//264
f 159//274 158//273 154//267
f 156//272 160//271 159//274
f 157//275 161//279 164//276
f 162//277 161//279 157//275
f 163//278 162//277 158//273
f 160//271 164//276 163//278
f 161//279 165//283 168//280
f 166//281 165//283 161//279
f 167//282 166//281 162//277
f 164//276 168//280 167//282
f 165//283 169//287 172//284
f 170//285 169//287 165//283
f 171//286 170//285 166//281
f 168//280 172//284 171//286
f 169//287 173//292 176//288
f 174//289 173//292 169//287
f 175//290 174//289 170//285
f 172//284 176//288 175//290
f 177//291 180//294 176//288
f 174//289 178//293 177//291
f 175//290 179//296 178//293
f 180//294 179//296 175//290
f 181//295 184//298 180//294
f 178//293 182//297 181//295
f 179//296 183//300 182//297
f 184//298 183//300 179//296
f 185//299 188//302 184//298
f 182//297 186//301 185//299
f 183//300 187//305 186//301
f 188//302 187//305 183//300
f 189//303 192//308 188//302
f 190//304 189//303 185//299
f 187//305 191//306 190//304
f 188//302 192//308 191//306
f 193//307 196//311 192//308
f 194//309 193//307 189//303
f 191//306 195//310 194//309
f 192//308 196//311 195//310
