# Blender v2.79 (sub 0) OBJ File: 'pokoj scalone sprzety.blend'
# www.blender.org
mtllib obraz nad lozkiem4.mtl
o Cylinder.020
v -3.254285 1.348288 -0.664504
v -3.254272 1.348237 -0.664780
v -3.254232 1.348141 -0.665041
v -3.254167 1.348002 -0.665277
v -3.254080 1.347826 -0.665479
v -3.253974 1.347620 -0.665638
v -3.253852 1.347392 -0.665750
v -3.253721 1.347151 -0.665809
v -3.253584 1.346905 -0.665813
v -3.253447 1.346665 -0.665762
v -3.253316 1.346439 -0.665658
v -3.253195 1.346236 -0.665506
v -3.253088 1.346064 -0.665310
v -3.253001 1.345930 -0.665079
v -3.252936 1.345838 -0.664821
v -3.252896 1.345793 -0.664546
v -3.252883 1.345796 -0.664265
v -3.252896 1.345846 -0.663989
v -3.252936 1.345943 -0.663728
v -3.253001 1.346081 -0.663492
v -3.168434 1.393469 -0.667805
v -3.253088 1.346257 -0.663290
v -3.253195 1.346463 -0.663131
v -3.253316 1.346691 -0.663019
v -3.253447 1.346933 -0.662960
v -3.253584 1.347178 -0.662956
v -3.253721 1.347419 -0.663007
v -3.253852 1.347645 -0.663110
v -3.253974 1.347848 -0.663263
v -3.254080 1.348019 -0.663459
v -3.169513 1.395365 -0.668205
v -3.254167 1.348154 -0.663690
v -3.254232 1.348245 -0.663948
v -3.254272 1.348290 -0.664223
v -3.170607 1.394955 -0.668966
v -3.170594 1.394905 -0.669243
v -3.170554 1.394808 -0.669504
v -3.170489 1.394669 -0.669740
v -3.170402 1.394494 -0.669941
v -3.170295 1.394288 -0.670101
v -3.170174 1.394060 -0.670212
v -3.170043 1.393818 -0.670271
v -3.169906 1.393573 -0.670276
v -3.169769 1.393332 -0.670225
v -3.169637 1.393106 -0.670121
v -3.169516 1.392903 -0.669969
v -3.169410 1.392731 -0.669773
v -3.169323 1.392597 -0.669542
v -3.169258 1.392506 -0.669284
v -3.169218 1.392460 -0.669009
v -3.169204 1.392463 -0.668728
v -3.169218 1.392514 -0.668452
v -3.169258 1.392610 -0.668190
v -3.169323 1.392749 -0.667955
v -3.169410 1.392925 -0.667753
v -3.169516 1.393130 -0.667593
v -3.169637 1.393358 -0.667482
v -3.169769 1.393600 -0.667423
v -3.169906 1.393846 -0.667419
v -3.170043 1.394086 -0.667470
v -3.170174 1.394312 -0.667573
v -3.170295 1.394515 -0.667726
v -3.170402 1.394687 -0.667921
v -3.170489 1.394821 -0.668153
v -3.170554 1.394913 -0.668411
v -3.170594 1.394958 -0.668685
v -3.171239 1.398353 -0.669291
v -3.171195 1.398186 -0.670200
v -3.172171 1.397642 -0.670149
v -3.171064 1.397868 -0.671059
v -3.172040 1.397324 -0.671009
v -3.170851 1.397411 -0.671836
v -3.171827 1.396868 -0.671785
v -3.170564 1.396833 -0.672499
v -3.171540 1.396289 -0.672448
v -3.170215 1.396156 -0.673024
v -3.171191 1.395612 -0.672973
v -3.169816 1.395406 -0.673391
v -3.170792 1.394862 -0.673340
v -3.169383 1.394611 -0.673585
v -3.170359 1.394067 -0.673534
v -3.168932 1.393802 -0.673599
v -3.169908 1.393259 -0.673548
v -3.168482 1.393011 -0.673432
v -3.169458 1.392467 -0.673381
v -3.168048 1.392268 -0.673091
v -3.169024 1.391724 -0.673040
v -3.167649 1.391601 -0.672589
v -3.168625 1.391057 -0.672538
v -3.167299 1.391036 -0.671945
v -3.168275 1.390492 -0.671894
v -3.167011 1.390594 -0.671184
v -3.167987 1.390050 -0.671133
v -3.166797 1.390293 -0.670335
v -3.167773 1.389749 -0.670284
v -3.166665 1.390144 -0.669431
v -3.167642 1.389601 -0.669380
v -3.166620 1.390154 -0.668507
v -3.167597 1.389610 -0.668456
v -3.166664 1.390320 -0.667597
v -3.167641 1.389777 -0.667546
v -3.166795 1.390638 -0.666738
v -3.167772 1.390094 -0.666687
v -3.167008 1.391095 -0.665962
v -3.167984 1.390551 -0.665911
v -3.167295 1.391673 -0.665298
v -3.168271 1.391129 -0.665247
v -3.167645 1.392350 -0.664773
v -3.168621 1.391807 -0.664722
v -3.168044 1.393101 -0.664406
v -3.169020 1.392557 -0.664356
v -3.168477 1.393896 -0.664213
v -3.169453 1.393352 -0.664162
v -3.168927 1.394704 -0.664199
v -3.169904 1.394160 -0.664148
v -3.169378 1.395495 -0.664365
v -3.170354 1.394951 -0.664315
v -3.169811 1.396239 -0.664706
v -3.170787 1.395695 -0.664656
v -3.170211 1.396906 -0.665209
v -3.171187 1.396362 -0.665158
v -3.170561 1.397471 -0.665852
v -3.171537 1.396927 -0.665802
v -3.170848 1.397912 -0.666613
v -3.171824 1.397369 -0.666563
v -3.171062 1.398213 -0.667462
v -3.172038 1.397669 -0.667411
v -3.171194 1.398362 -0.668366
v -3.172170 1.397818 -0.668315
v -3.172215 1.397809 -0.669240
vn -0.4865 0.8548 -0.1806
vn -0.4677 0.8036 -0.3681
vn -0.4312 0.7210 -0.5425
vn -0.3779 0.6110 -0.6956
vn -0.3096 0.4771 -0.8225
vn -0.2307 0.3257 -0.9169
vn -0.1417 0.1611 -0.9767
vn -0.0480 -0.0096 -0.9988
vn 0.0477 -0.1798 -0.9825
vn 0.1420 -0.3433 -0.9284
vn 0.2303 -0.4933 -0.8388
vn 0.3102 -0.6247 -0.7166
vn 0.3780 -0.7320 -0.5668
vn 0.4311 -0.8107 -0.3962
vn 0.4675 -0.8587 -0.2099
vn 0.4864 -0.8736 -0.0151
vn 0.4864 -0.8551 0.1795
vn 0.4679 -0.8037 0.3677
vn 0.4311 -0.7210 0.5426
vn 0.3781 -0.6112 0.6953
vn 0.3106 -0.4777 0.8218
vn 0.2305 -0.3255 0.9170
vn 0.1418 -0.1609 0.9767
vn 0.0477 0.0097 0.9988
vn -0.0480 0.1798 0.9825
vn -0.1420 0.3434 0.9284
vn -0.2304 0.4932 0.8388
vn -0.3098 0.6243 0.7171
vn -0.3779 0.7320 0.5668
vn -0.4312 0.8109 0.3957
vn -0.8723 -0.4867 0.0465
vn -0.4678 0.8587 0.2093
vn -0.4863 0.8737 0.0143
vn -0.4859 0.8739 0.0148
vn -0.4677 0.8587 0.2095
vn -0.4308 0.8109 0.3959
vn -0.3781 0.7315 0.5674
vn -0.3104 0.6240 0.7171
vn -0.2310 0.4929 0.8389
vn -0.1428 0.3431 0.9284
vn -0.0488 0.1792 0.9826
vn 0.0471 0.0091 0.9989
vn 0.1407 -0.1617 0.9768
vn 0.2295 -0.3261 0.9170
vn 0.3091 -0.4780 0.8222
vn 0.3769 -0.6117 0.6955
vn 0.4301 -0.7215 0.5426
vn 0.4670 -0.8039 0.3683
vn 0.4857 -0.8553 0.1804
vn 0.4859 -0.8739 -0.0152
vn 0.4675 -0.8588 -0.2096
vn 0.4309 -0.8108 -0.3960
vn 0.3781 -0.7314 -0.5675
vn 0.3103 -0.6245 -0.7168
vn 0.2310 -0.4930 -0.8388
vn 0.1427 -0.3427 -0.9286
vn 0.0487 -0.1793 -0.9826
vn -0.0469 -0.0091 -0.9989
vn -0.1409 0.1616 -0.9768
vn -0.2294 0.3263 -0.9170
vn -0.3090 0.4778 -0.8223
vn -0.3768 0.6112 -0.6960
vn -0.4301 0.7216 -0.5426
vn -0.4670 0.8037 -0.3688
vn -0.4858 0.8553 -0.1802
vn 0.8724 0.4865 -0.0470
vn 0.8725 0.4863 -0.0473
vn -0.8730 -0.4853 0.0473
vn -0.8711 -0.4888 0.0469
vn -0.4864 0.8548 -0.1811
vn -0.4676 0.8035 -0.3685
vn -0.4310 0.7211 -0.5425
vn -0.3780 0.6113 -0.6953
vn -0.3098 0.4770 -0.8225
vn -0.2305 0.3254 -0.9171
vn -0.1419 0.1610 -0.9767
vn -0.0478 -0.0095 -0.9988
vn 0.0481 -0.1801 -0.9825
vn 0.1418 -0.3431 -0.9285
vn 0.2304 -0.4932 -0.8388
vn 0.3100 -0.6240 -0.7173
vn 0.3778 -0.7317 -0.5673
vn 0.4311 -0.8108 -0.3960
vn 0.4676 -0.8588 -0.2093
vn 0.4866 -0.8735 -0.0138
vn 0.4864 -0.8550 0.1802
vn 0.4676 -0.8031 0.3693
vn 0.4311 -0.7210 0.5424
vn 0.3774 -0.6105 0.6963
vn 0.3097 -0.4771 0.8224
vn 0.2304 -0.3255 0.9170
vn 0.1423 -0.1613 0.9766
vn 0.0481 0.0097 0.9988
vn -0.0477 0.1796 0.9826
vn -0.2304 0.4935 0.8387
vn -0.3099 0.6244 0.7170
vn -0.3778 0.7317 0.5674
vn -0.4310 0.8106 0.3965
vn -0.8702 -0.4903 0.0486
vn -0.8738 -0.4837 0.0501
vn -0.8736 -0.4840 0.0511
vn -0.8736 -0.4843 0.0471
vn -0.8718 -0.4879 0.0435
vn -0.8735 -0.4845 0.0473
vn -0.8705 -0.4899 0.0462
vn -0.8806 -0.4715 0.0475
vn -0.8808 -0.4713 0.0456
vn -0.8714 -0.4883 0.0470
vn -0.8739 -0.4843 0.0416
vn -0.8727 -0.4861 0.0469
vn -0.8731 -0.4859 0.0399
vn -0.8742 -0.4834 0.0453
vn -0.8748 -0.4824 0.0452
vn -0.8706 -0.4899 0.0459
vn -0.8723 -0.4868 0.0461
vn -0.8720 -0.4874 0.0451
vn -0.8722 -0.4869 0.0465
vn -0.8721 -0.4871 0.0467
vn -0.8720 -0.4872 0.0466
vn -0.8730 -0.4856 0.0460
vn -0.8728 -0.4857 0.0469
vn -0.8728 -0.4858 0.0465
vn -0.8723 -0.4866 0.0474
vn -0.8730 -0.4855 0.0469
vn -0.8727 -0.4861 0.0465
vn -0.8717 -0.4878 0.0463
vn -0.8724 -0.4865 0.0466
vn -0.4677 0.8586 0.2097
vn -0.4864 0.8736 0.0160
vn -0.4859 0.8739 0.0147
vn -0.4674 0.8589 0.2095
vn -0.4313 0.8105 0.3963
vn -0.3104 0.6246 0.7166
vn -0.2311 0.4932 0.8387
vn -0.1427 0.3425 0.9286
vn -0.0488 0.1795 0.9825
vn 0.0468 0.0091 0.9989
vn 0.1410 -0.1616 0.9767
vn 0.2293 -0.3259 0.9172
vn 0.3089 -0.4779 0.8223
vn 0.3767 -0.6114 0.6959
vn 0.4300 -0.7218 0.5423
vn 0.4670 -0.8037 0.3689
vn 0.4858 -0.8552 0.1804
vn 0.4860 -0.8738 -0.0148
vn 0.4676 -0.8588 -0.2094
vn 0.4308 -0.8109 -0.3960
vn 0.3779 -0.7319 -0.5671
vn 0.3106 -0.6242 -0.7169
vn 0.2310 -0.4929 -0.8389
vn 0.1426 -0.3429 -0.9285
vn 0.0488 -0.1794 -0.9826
vn -0.1408 0.1616 -0.9768
vn -0.2294 0.3260 -0.9171
vn -0.3090 0.4780 -0.8222
vn -0.3768 0.6117 -0.6956
vn -0.4302 0.7215 -0.5425
vn -0.4667 0.8043 -0.3679
vn 0.8719 0.4873 -0.0471
vn 0.8725 0.4863 -0.0471
vn 0.8726 0.4862 -0.0471
vn 0.8723 0.4867 -0.0472
vn 0.8722 0.4868 -0.0473
vn 0.8721 0.4870 -0.0474
vn 0.8721 0.4870 -0.0470
vn 0.8719 0.4873 -0.0470
vn 0.8722 0.4869 -0.0471
vn 0.8722 0.4869 -0.0472
vn 0.8721 0.4870 -0.0471
vn 0.8723 0.4868 -0.0470
vn 0.8723 0.4866 -0.0471
vn 0.8720 0.4873 -0.0471
vn 0.8723 0.4868 -0.0471
vn 0.8722 0.4868 -0.0470
vn 0.8721 0.4870 -0.0469
vn 0.8722 0.4869 -0.0470
vn 0.8726 0.4862 -0.0472
vn 0.8724 0.4865 -0.0474
vn 0.8721 0.4871 -0.0474
vn 0.8721 0.4871 -0.0471
vn 0.8721 0.4870 -0.0472
vn 0.8719 0.4874 -0.0472
vn 0.8719 0.4874 -0.0474
vn -0.8722 -0.4869 0.0460
vn -0.8722 -0.4869 0.0470
vn -0.8721 -0.4871 0.0473
vn -0.8726 -0.4862 0.0475
vn -0.8726 -0.4861 0.0474
vn -0.8718 -0.4875 0.0473
vn -0.8723 -0.4867 0.0473
vn -0.8723 -0.4867 0.0472
vn -0.8721 -0.4870 0.0471
vn -0.8722 -0.4868 0.0472
vn -0.8725 -0.4863 0.0473
vn -0.8717 -0.4878 0.0477
vn -0.8722 -0.4869 0.0472
vn -0.8720 -0.4871 0.0474
vn -0.8721 -0.4871 0.0474
vn -0.8722 -0.4868 0.0471
vn -0.8722 -0.4869 0.0471
vn -0.8723 -0.4868 0.0474
vn -0.8722 -0.4868 0.0474
vn -0.8725 -0.4863 0.0475
vn -0.8717 -0.4878 0.0473
vn -0.8723 -0.4867 0.0474
vn -0.8723 -0.4867 0.0471
vn -0.8723 -0.4866 0.0475
vn -0.8723 -0.4867 0.0470
vn -0.8725 -0.4864 0.0474
vn -0.8718 -0.4876 0.0464
vn -0.8726 -0.4862 0.0474
vn -0.8726 -0.4861 0.0473
vn -0.8724 -0.4867 0.0463
vn -0.8720 -0.4872 0.0469
vn -0.8728 -0.4859 0.0467
vn -0.8726 -0.4862 0.0471
vn -0.8722 -0.4869 0.0466
vn -0.8731 -0.4854 0.0462
vn -0.8727 -0.4860 0.0468
vn -0.8717 -0.4878 0.0466
vn -0.8727 -0.4859 0.0475
vn -0.8722 -0.4869 0.0467
vn -0.8723 -0.4866 0.0472
vn -0.8736 -0.4843 0.0469
vn -0.8720 -0.4872 0.0471
vn -0.8726 -0.4861 0.0476
vn -0.8712 -0.4886 0.0474
vn -0.8720 -0.4871 0.0473
vn -0.8717 -0.4877 0.0471
vn -0.8720 -0.4872 0.0473
vn -0.8716 -0.4879 0.0473
vn -0.8722 -0.4870 0.0471
vn -0.8722 -0.4868 0.0473
usemtl None
s off
f 36//1 1//1 35//1
f 36//2 3//2 2//2
f 37//3 4//3 3//3
f 38//4 5//4 4//4
f 39//5 6//5 5//5
f 41//6 6//6 40//6
f 41//7 8//7 7//7
f 42//8 9//8 8//8
f 43//9 10//9 9//9
f 45//10 10//10 44//10
f 46//11 11//11 45//11
f 46//12 13//12 12//12
f 47//13 14//13 13//13
f 48//14 15//14 14//14
f 50//15 15//15 49//15
f 50//16 17//16 16//16
f 52//17 17//17 51//17
f 52//18 19//18 18//18
f 53//19 20//19 19//19
f 55//20 20//20 54//20
f 56//21 22//21 55//21
f 57//22 23//22 56//22
f 57//23 25//23 24//23
f 58//24 26//24 25//24
f 60//25 26//25 59//25
f 60//26 28//26 27//26
f 61//27 29//27 28//27
f 63//28 29//28 62//28
f 64//29 30//29 63//29
f 64//30 33//30 32//30
f 17//31 26//31 1//31
f 66//32 33//32 65//32
f 66//33 1//33 34//33
f 67//34 129//34 128//34
f 128//35 127//35 126//35
f 126//36 125//36 124//36
f 124//37 123//37 122//37
f 122//38 121//38 120//38
f 120//39 119//39 118//39
f 118//40 117//40 116//40
f 116//41 115//41 114//41
f 114//42 113//42 112//42
f 112//43 111//43 110//43
f 108//44 111//44 109//44
f 108//45 107//45 106//45
f 104//46 107//46 105//46
f 102//47 105//47 103//47
f 100//48 103//48 101//48
f 98//49 101//49 99//49
f 96//50 99//50 97//50
f 94//51 97//51 95//51
f 92//52 95//52 93//52
f 90//53 93//53 91//53
f 88//54 91//54 89//54
f 86//55 89//55 87//55
f 84//56 87//56 85//56
f 82//57 85//57 83//57
f 80//58 83//58 81//58
f 78//59 81//59 79//59
f 76//60 79//60 77//60
f 76//61 75//61 74//61
f 74//62 73//62 72//62
f 72//63 71//63 70//63
f 70//64 69//64 68//64
f 68//65 130//65 67//65
f 21//66 84//66 82//66
f 21//67 31//67 114//67
f 75//68 40//68 39//68
f 107//69 56//69 55//69
f 36//70 2//70 1//70
f 36//71 37//71 3//71
f 37//72 38//72 4//72
f 38//73 39//73 5//73
f 39//74 40//74 6//74
f 41//75 7//75 6//75
f 41//76 42//76 8//76
f 42//77 43//77 9//77
f 43//78 44//78 10//78
f 45//79 11//79 10//79
f 46//80 12//80 11//80
f 46//81 47//81 13//81
f 47//82 48//82 14//82
f 48//83 49//83 15//83
f 50//84 16//84 15//84
f 50//85 51//85 17//85
f 52//86 18//86 17//86
f 52//87 53//87 19//87
f 53//88 54//88 20//88
f 55//89 22//89 20//89
f 56//90 23//90 22//90
f 57//91 24//91 23//91
f 57//92 58//92 25//92
f 58//93 59//93 26//93
f 60//94 27//94 26//94
f 60//26 61//26 28//26
f 61//95 62//95 29//95
f 63//96 30//96 29//96
f 64//97 32//97 30//97
f 64//98 65//98 33//98
f 1//99 2//99 3//99
f 3//100 4//100 5//100
f 5//101 6//101 7//101
f 7//102 8//102 9//102
f 9//103 10//103 11//103
f 11//104 12//104 13//104
f 13//105 14//105 15//105
f 15//106 16//106 17//106
f 17//107 18//107 19//107
f 19//108 20//108 22//108
f 22//109 23//109 24//109
f 24//110 25//110 26//110
f 26//111 27//111 28//111
f 28//112 29//112 30//112
f 30//113 32//113 33//113
f 33//114 34//114 1//114
f 1//115 3//115 9//115
f 5//116 7//116 9//116
f 9//117 11//117 17//117
f 13//118 15//118 17//118
f 17//119 19//119 22//119
f 22//120 24//120 17//120
f 26//121 28//121 1//121
f 30//122 33//122 1//122
f 3//123 5//123 9//123
f 11//124 13//124 17//124
f 17//125 24//125 26//125
f 28//126 30//126 1//126
f 1//127 9//127 17//127
f 66//128 34//128 33//128
f 66//129 35//129 1//129
f 67//130 130//130 129//130
f 128//131 129//131 127//131
f 126//132 127//132 125//132
f 124//37 125//37 123//37
f 122//133 123//133 121//133
f 120//134 121//134 119//134
f 118//135 119//135 117//135
f 116//136 117//136 115//136
f 114//137 115//137 113//137
f 112//138 113//138 111//138
f 108//139 110//139 111//139
f 108//140 109//140 107//140
f 104//141 106//141 107//141
f 102//142 104//142 105//142
f 100//143 102//143 103//143
f 98//144 100//144 101//144
f 96//145 98//145 99//145
f 94//146 96//146 97//146
f 92//147 94//147 95//147
f 90//148 92//148 93//148
f 88//149 90//149 91//149
f 86//150 88//150 89//150
f 84//151 86//151 87//151
f 82//152 84//152 85//152
f 80//58 82//58 83//58
f 78//153 80//153 81//153
f 76//154 78//154 79//154
f 76//155 77//155 75//155
f 74//156 75//156 73//156
f 72//157 73//157 71//157
f 70//158 71//158 69//158
f 68//65 69//65 130//65
f 82//159 80//159 31//159
f 78//160 76//160 31//160
f 74//161 72//161 31//161
f 70//162 68//162 31//162
f 67//163 128//163 31//163
f 126//162 124//162 31//162
f 21//164 106//164 104//164
f 128//165 126//165 31//165
f 21//166 104//166 102//166
f 67//167 31//167 68//167
f 72//168 70//168 31//168
f 80//169 78//169 31//169
f 86//170 84//170 21//170
f 90//171 88//171 21//171
f 94//172 92//172 21//172
f 98//173 96//173 21//173
f 102//163 100//163 21//163
f 74//169 31//169 76//169
f 21//164 100//164 98//164
f 96//174 94//174 21//174
f 88//175 86//175 21//175
f 82//66 31//66 21//66
f 21//176 92//176 90//176
f 118//177 116//177 31//177
f 114//164 112//164 21//164
f 110//178 108//178 21//178
f 106//179 21//179 108//179
f 31//180 124//180 122//180
f 122//181 120//181 31//181
f 116//182 114//182 31//182
f 110//183 21//183 112//183
f 31//181 120//181 118//181
f 129//184 66//184 65//184
f 35//185 66//185 130//185
f 73//186 75//186 39//186
f 77//187 79//187 41//187
f 81//188 83//188 43//188
f 85//189 44//189 43//189
f 89//190 91//190 47//190
f 93//191 95//191 49//191
f 97//192 99//192 51//192
f 101//193 103//193 52//193
f 105//194 107//194 55//194
f 105//195 55//195 54//195
f 99//192 101//192 52//192
f 91//196 93//196 48//196
f 83//197 85//197 43//197
f 75//198 77//198 40//198
f 130//199 66//199 129//199
f 125//193 127//193 65//193
f 121//200 123//200 63//200
f 117//201 119//201 61//201
f 113//202 115//202 58//202
f 109//203 111//203 57//203
f 57//204 56//204 109//204
f 58//195 57//195 111//195
f 111//205 113//205 58//205
f 119//206 121//206 62//206
f 127//206 129//206 65//206
f 79//207 81//207 42//207
f 95//199 97//199 50//199
f 105//208 54//208 53//208
f 105//202 53//202 103//202
f 123//196 125//196 64//196
f 58//189 115//189 59//189
f 59//209 115//209 117//209
f 103//210 53//210 52//210
f 99//199 52//199 51//199
f 60//211 59//211 117//211
f 61//212 60//212 117//212
f 97//213 51//213 50//213
f 95//214 50//214 49//214
f 62//215 61//215 119//215
f 63//216 62//216 121//216
f 93//217 49//217 48//217
f 91//218 48//218 47//218
f 64//219 63//219 123//219
f 65//217 64//217 125//217
f 89//220 47//220 46//220
f 89//221 46//221 45//221
f 69//196 35//196 130//196
f 69//222 36//222 35//222
f 89//223 45//223 87//223
f 45//224 44//224 87//224
f 69//225 71//225 36//225
f 36//226 71//226 37//226
f 87//123 44//123 85//123
f 81//227 43//227 42//227
f 37//228 71//228 73//228
f 38//229 37//229 73//229
f 79//230 42//230 41//230
f 77//231 41//231 40//231
f 39//232 38//232 73//232
f 107//233 109//233 56//233
o Plane.006
v -3.213196 1.406603 -0.570520
v -3.241132 1.034504 -0.507880
v -3.213197 1.357006 -0.865141
v -3.241132 0.984907 -0.802501
v -3.217811 1.304978 -0.798702
v -3.217811 1.335690 -0.616263
v -3.236517 1.086532 -0.574320
v -3.236517 1.055820 -0.756758
v -3.212715 1.304606 -0.798639
v -3.212715 1.335318 -0.616201
v -3.231421 1.086161 -0.574257
v -3.231421 1.055448 -0.756696
v -3.208100 1.356634 -0.865079
v -3.208100 1.406231 -0.570458
v -3.236036 1.034132 -0.507818
v -3.236036 0.984535 -0.802439
vn 0.9973 -0.0728 0.0123
vn -0.0738 -0.9834 0.1656
vn 0.0738 0.9834 -0.1656
vn -0.0738 -0.9834 0.1655
vn -0.0000 -0.1660 -0.9861
vn -0.0000 0.1660 0.9861
usemtl None
s off
f 136//234 138//234 135//234
f 136//235 139//235 140//235
f 138//236 141//236 142//236
f 133//236 144//236 143//236
f 134//237 145//237 132//237
f 139//234 144//234 140//234
f 141//234 144//234 145//234
f 133//238 146//238 134//238
f 131//239 145//239 144//239
f 135//239 142//239 139//239
f 136//238 141//238 137//238
f 142//234 143//234 139//234
f 142//234 145//234 146//234
f 136//234 137//234 138//234
f 136//235 135//235 139//235
f 138//236 137//236 141//236
f 133//236 131//236 144//236
f 134//235 146//235 145//235
f 139//234 143//234 144//234
f 141//234 140//234 144//234
f 133//238 143//238 146//238
f 131//239 132//239 145//239
f 135//239 138//239 142//239
f 136//238 140//238 141//238
f 142//234 146//234 143//234
f 142//234 141//234 145//234
