# Blender v2.79 (sub 0) OBJ File: 'pokoj scalone sprzety.blend'
# www.blender.org
mtllib obraz nad lozkiem2.mtl
o NurbsPath.002
v -3.189912 2.319071 -0.878755
v -3.191404 2.317882 -0.877876
v -3.189925 2.316707 -0.876957
v -3.188434 2.317895 -0.877836
v -3.191236 2.380727 -0.798247
v -3.192728 2.379543 -0.797360
v -3.191249 2.378374 -0.796433
v -3.189758 2.379557 -0.797320
v -3.192147 2.421335 -0.745892
v -3.193638 2.420153 -0.745003
v -3.192160 2.418988 -0.744070
v -3.190668 2.420170 -0.744958
v -3.192880 2.447338 -0.712471
v -3.194371 2.446145 -0.711596
v -3.192893 2.444979 -0.710665
v -3.191401 2.446172 -0.711539
v -3.193531 2.463262 -0.691345
v -3.195020 2.462023 -0.690533
v -3.193540 2.460827 -0.689643
v -3.192051 2.462066 -0.690455
v -3.194082 2.471876 -0.678007
v -3.195561 2.470497 -0.677440
v -3.194073 2.469175 -0.676772
v -3.192593 2.470554 -0.677339
v -3.194501 2.474604 -0.668468
v -3.195956 2.473090 -0.668532
v -3.194443 2.471634 -0.668488
v -3.192988 2.473148 -0.668424
v -3.194759 2.471794 -0.659155
v -3.196197 2.470417 -0.659825
v -3.194667 2.469102 -0.660409
v -3.193229 2.470479 -0.659739
v -3.194877 2.463398 -0.646170
v -3.196312 2.462135 -0.647039
v -3.194779 2.460948 -0.647845
v -3.193344 2.462211 -0.646977
v -3.194820 2.445612 -0.621496
v -3.196256 2.444369 -0.622392
v -3.194723 2.443213 -0.623244
v -3.193287 2.444457 -0.622347
v -3.194259 2.405576 -0.567118
v -3.195695 2.404337 -0.568021
v -3.194162 2.403194 -0.568890
v -3.192726 2.404433 -0.567987
v -3.192525 2.320403 -0.453609
v -3.193961 2.319169 -0.454518
v -3.192428 2.318036 -0.455401
v -3.190992 2.319270 -0.454492
vn 0.0045 0.7920 -0.6104
vn 0.9999 0.0032 0.0138
vn 0.0043 0.7939 -0.6079
vn -0.9999 -0.0058 -0.0125
vn -0.9999 -0.0056 -0.0122
vn -0.0044 -0.7941 0.6077
vn -0.0042 -0.7920 0.6104
vn 0.9998 0.0057 0.0152
vn 0.9999 0.0036 0.0141
vn -0.9998 -0.0063 -0.0148
vn -0.0036 -0.7897 0.6135
vn 0.0053 0.7897 -0.6134
vn 0.9998 0.0120 0.0172
vn -0.9997 -0.0065 -0.0213
vn -0.0027 -0.7939 0.6080
vn 0.0060 0.7940 -0.6079
vn 0.9995 0.0276 0.0172
vn -0.9994 -0.0012 -0.0352
vn -0.0009 -0.8193 0.5734
vn 0.0053 0.8196 -0.5728
vn 0.9969 0.0779 0.0085
vn -0.9974 0.0405 -0.0599
vn 0.0051 -0.9081 0.4186
vn -0.0012 0.9098 -0.4151
vn 0.9884 0.1473 0.0365
vn -0.9935 0.1085 -0.0349
vn 0.0183 -0.9998 -0.0068
vn -0.0333 0.9063 0.4213
vn -0.0205 0.9998 0.0066
vn -0.9994 0.0349 -0.0041
vn 0.9955 0.0773 0.0536
vn -0.0346 0.8251 0.5639
vn 0.0287 -0.9048 -0.4249
vn -0.9998 -0.0162 -0.0148
vn 0.9990 0.0348 0.0270
vn -0.0342 0.8077 0.5886
vn 0.0310 -0.8249 -0.5644
vn -0.9995 -0.0276 -0.0139
vn 0.9994 0.0313 0.0165
vn -0.0336 0.8018 0.5965
vn -0.9995 -0.0308 -0.0100
vn 0.0313 -0.8077 -0.5887
vn 0.0319 -0.8019 -0.5965
vn -0.0332 0.7992 0.6002
vn 0.9993 0.0340 0.0126
vn -0.9994 -0.0320 -0.0088
vn 0.0322 -0.7992 -0.6002
vn 0.9993 0.0349 0.0110
usemtl None
s 1
f 5//1 4//2 1//3
f 6//4 1//3 2//5
f 3//6 6//4 2//5
f 4//2 7//7 3//6
f 5//1 12//8 8//9
f 10//10 5//1 6//4
f 11//11 6//4 7//7
f 8//9 11//11 7//7
f 9//12 16//13 12//8
f 14//14 9//12 10//10
f 15//15 10//10 11//11
f 12//8 15//15 11//11
f 13//16 20//17 16//13
f 18//18 13//16 14//14
f 19//19 14//14 15//15
f 16//13 19//19 15//15
f 17//20 24//21 20//17
f 22//22 17//20 18//18
f 23//23 18//18 19//19
f 20//17 23//23 19//19
f 21//24 28//25 24//21
f 26//26 21//24 22//22
f 27//27 22//22 23//23
f 24//21 27//27 23//23
f 29//28 28//25 25//29
f 26//26 29//28 25//29
f 27//27 30//30 26//26
f 32//31 27//27 28//25
f 33//32 32//31 29//28
f 30//30 33//32 29//28
f 31//33 34//34 30//30
f 36//35 31//33 32//31
f 37//36 36//35 33//32
f 34//34 37//36 33//32
f 35//37 38//38 34//34
f 40//39 35//37 36//35
f 41//40 40//39 37//36
f 42//41 37//36 38//38
f 39//42 42//41 38//38
f 40//39 43//43 39//42
f 45//44 44//45 41//40
f 46//46 41//40 42//41
f 43//43 46//46 42//41
f 44//45 47//47 43//43
f 5//1 8//9 4//2
f 6//4 5//1 1//3
f 3//6 7//7 6//4
f 4//2 8//9 7//7
f 5//1 9//12 12//8
f 10//10 9//12 5//1
f 11//11 10//10 6//4
f 8//9 12//8 11//11
f 9//12 13//16 16//13
f 14//14 13//16 9//12
f 15//15 14//14 10//10
f 12//8 16//13 15//15
f 13//16 17//20 20//17
f 18//18 17//20 13//16
f 19//19 18//18 14//14
f 16//13 20//17 19//19
f 17//20 21//24 24//21
f 22//22 21//24 17//20
f 23//23 22//22 18//18
f 20//17 24//21 23//23
f 21//24 25//29 28//25
f 26//26 25//29 21//24
f 27//27 26//26 22//22
f 24//21 28//25 27//27
f 29//28 32//31 28//25
f 26//26 30//30 29//28
f 27//27 31//33 30//30
f 32//31 31//33 27//27
f 33//32 36//35 32//31
f 30//30 34//34 33//32
f 31//33 35//37 34//34
f 36//35 35//37 31//33
f 37//36 40//39 36//35
f 34//34 38//38 37//36
f 35//37 39//42 38//38
f 40//39 39//42 35//37
f 41//40 44//45 40//39
f 42//41 41//40 37//36
f 39//42 43//43 42//41
f 40//39 44//45 43//43
f 45//44 48//48 44//45
f 46//46 45//44 41//40
f 43//43 47//47 46//46
f 44//45 48//48 47//47
o Cylinder.017
v -3.254285 2.438870 -0.664504
v -3.254272 2.438820 -0.664780
v -3.254232 2.438723 -0.665041
v -3.254167 2.438585 -0.665277
v -3.254080 2.438409 -0.665479
v -3.253974 2.438203 -0.665638
v -3.253852 2.437975 -0.665750
v -3.253721 2.437734 -0.665809
v -3.253584 2.437488 -0.665813
v -3.253447 2.437247 -0.665762
v -3.253316 2.437021 -0.665658
v -3.253195 2.436819 -0.665506
v -3.253088 2.436647 -0.665310
v -3.253001 2.436512 -0.665079
v -3.252936 2.436421 -0.664821
v -3.252896 2.436376 -0.664546
v -3.252883 2.436378 -0.664265
v -3.252896 2.436429 -0.663989
v -3.252936 2.436526 -0.663728
v -3.253001 2.436664 -0.663492
v -3.253088 2.436840 -0.663290
v -3.253195 2.437046 -0.663131
v -3.253316 2.437274 -0.663019
v -3.253447 2.437515 -0.662960
v -3.253584 2.437761 -0.662956
v -3.253721 2.438001 -0.663007
v -3.253852 2.438227 -0.663110
v -3.253974 2.438430 -0.663263
v -3.254080 2.438602 -0.663459
v -3.254167 2.438736 -0.663690
v -3.254232 2.438828 -0.663948
v -3.254272 2.438873 -0.664223
v -3.170607 2.485538 -0.668966
v -3.170594 2.485487 -0.669243
v -3.170554 2.485391 -0.669504
v -3.170489 2.485252 -0.669740
v -3.170402 2.485076 -0.669941
v -3.170295 2.484871 -0.670101
v -3.170174 2.484643 -0.670212
v -3.170043 2.484401 -0.670271
v -3.169906 2.484155 -0.670276
v -3.169769 2.483915 -0.670225
v -3.169637 2.483689 -0.670121
v -3.169516 2.483486 -0.669969
v -3.169410 2.483314 -0.669773
v -3.169323 2.483180 -0.669542
v -3.169258 2.483088 -0.669284
v -3.169218 2.483043 -0.669009
v -3.169204 2.483046 -0.668728
v -3.169218 2.483096 -0.668452
v -3.169258 2.483193 -0.668190
v -3.169323 2.483332 -0.667955
v -3.169410 2.483507 -0.667753
v -3.169516 2.483713 -0.667593
v -3.169637 2.483941 -0.667482
v -3.169769 2.484183 -0.667423
v -3.169906 2.484428 -0.667419
v -3.170043 2.484669 -0.667470
v -3.170174 2.484895 -0.667573
v -3.170295 2.485098 -0.667726
v -3.170402 2.485270 -0.667921
v -3.170489 2.485404 -0.668153
v -3.170554 2.485495 -0.668411
v -3.170594 2.485541 -0.668685
v -3.171239 2.488935 -0.669291
v -3.171195 2.488769 -0.670200
v -3.172171 2.488225 -0.670149
v -3.171064 2.488451 -0.671059
v -3.172040 2.487907 -0.671009
v -3.170851 2.487994 -0.671836
v -3.171827 2.487450 -0.671785
v -3.170564 2.487416 -0.672499
v -3.171540 2.486872 -0.672448
v -3.170215 2.486739 -0.673024
v -3.171191 2.486195 -0.672973
v -3.169816 2.485988 -0.673391
v -3.170792 2.485445 -0.673340
v -3.169383 2.485193 -0.673585
v -3.170359 2.484650 -0.673534
v -3.168932 2.484385 -0.673599
v -3.169908 2.483841 -0.673548
v -3.168482 2.483594 -0.673432
v -3.169458 2.483050 -0.673381
v -3.168048 2.482851 -0.673091
v -3.169024 2.482307 -0.673040
v -3.167649 2.482183 -0.672589
v -3.168625 2.481640 -0.672538
v -3.167299 2.481618 -0.671945
v -3.168275 2.481075 -0.671894
v -3.167011 2.481177 -0.671184
v -3.167987 2.480633 -0.671133
v -3.166797 2.480876 -0.670335
v -3.167773 2.480332 -0.670284
v -3.166665 2.480727 -0.669431
v -3.167642 2.480183 -0.669380
v -3.166620 2.480736 -0.668507
v -3.167597 2.480193 -0.668456
v -3.166664 2.480903 -0.667597
v -3.167641 2.480359 -0.667546
v -3.166795 2.481221 -0.666738
v -3.167772 2.480677 -0.666687
v -3.167008 2.481678 -0.665962
v -3.167984 2.481134 -0.665911
v -3.167295 2.482256 -0.665298
v -3.168271 2.481712 -0.665247
v -3.167645 2.482933 -0.664773
v -3.168621 2.482389 -0.664722
v -3.168044 2.483684 -0.664406
v -3.169020 2.483140 -0.664356
v -3.168477 2.484478 -0.664213
v -3.169453 2.483934 -0.664162
v -3.168927 2.485287 -0.664199
v -3.169904 2.484743 -0.664148
v -3.169378 2.486078 -0.664365
v -3.170354 2.485534 -0.664315
v -3.169811 2.486821 -0.664706
v -3.170787 2.486278 -0.664656
v -3.170211 2.487488 -0.665209
v -3.171187 2.486945 -0.665158
v -3.170561 2.488054 -0.665852
v -3.171537 2.487510 -0.665802
v -3.170848 2.488495 -0.666613
v -3.171824 2.487951 -0.666563
v -3.171062 2.488796 -0.667462
v -3.172038 2.488252 -0.667411
v -3.171194 2.488945 -0.668366
v -3.172170 2.488401 -0.668315
v -3.172215 2.488392 -0.669240
vn -0.4864 0.8547 -0.1811
vn -0.4674 0.8031 -0.3695
vn -0.4311 0.7210 -0.5424
vn -0.3779 0.6114 -0.6952
vn -0.3101 0.4779 -0.8219
vn -0.2306 0.3255 -0.9170
vn -0.1419 0.1612 -0.9767
vn -0.0480 -0.0096 -0.9988
vn 0.0476 -0.1796 -0.9826
vn 0.1419 -0.3433 -0.9285
vn 0.2303 -0.4931 -0.8389
vn 0.3103 -0.6247 -0.7166
vn 0.3777 -0.7315 -0.5677
vn 0.4310 -0.8108 -0.3960
vn 0.4677 -0.8589 -0.2088
vn 0.4866 -0.8735 -0.0155
vn 0.4864 -0.8550 0.1801
vn 0.4676 -0.8029 0.3698
vn 0.4314 -0.7215 0.5416
vn 0.3781 -0.6111 0.6954
vn 0.3102 -0.4770 0.8223
vn 0.2304 -0.3253 0.9171
vn 0.1424 -0.1615 0.9765
vn 0.0476 0.0098 0.9988
vn -0.0479 0.1799 0.9825
vn -0.1420 0.3432 0.9285
vn -0.2301 0.4929 0.8391
vn -0.3097 0.6241 0.7174
vn -0.3778 0.7320 0.5670
vn -0.4310 0.8106 0.3964
vn -0.8723 -0.4867 0.0464
vn -0.4676 0.8584 0.2109
vn -0.4864 0.8736 0.0141
vn 0.8723 0.4868 -0.0472
vn -0.4859 0.8739 0.0153
vn -0.4678 0.8586 0.2097
vn -0.4308 0.8107 0.3965
vn -0.3781 0.7316 0.5672
vn -0.3103 0.6240 0.7172
vn -0.2309 0.4929 0.8389
vn -0.1426 0.3431 0.9284
vn -0.0490 0.1792 0.9826
vn 0.0470 0.0091 0.9989
vn 0.1408 -0.1618 0.9767
vn 0.2294 -0.3262 0.9171
vn 0.3092 -0.4779 0.8222
vn 0.3768 -0.6115 0.6958
vn 0.4303 -0.7216 0.5423
vn 0.4669 -0.8039 0.3685
vn 0.4856 -0.8553 0.1805
vn 0.4860 -0.8738 -0.0149
vn 0.4675 -0.8588 -0.2094
vn 0.4309 -0.8108 -0.3961
vn 0.3780 -0.7315 -0.5675
vn 0.3102 -0.6243 -0.7170
vn 0.2309 -0.4928 -0.8390
vn 0.1425 -0.3426 -0.9286
vn 0.0487 -0.1792 -0.9826
vn -0.0469 -0.0091 -0.9989
vn -0.1408 0.1616 -0.9768
vn -0.2293 0.3262 -0.9171
vn -0.3092 0.4781 -0.8221
vn -0.3766 0.6109 -0.6964
vn -0.4301 0.7219 -0.5421
vn -0.4671 0.8038 -0.3684
vn -0.4859 0.8552 -0.1804
vn -0.8729 -0.4856 0.0473
vn -0.8717 -0.4878 0.0476
vn -0.4866 0.8549 -0.1798
vn -0.4679 0.8039 -0.3670
vn -0.4311 0.7211 -0.5423
vn -0.3777 0.6101 -0.6965
vn -0.3098 0.4770 -0.8225
vn -0.2305 0.3254 -0.9170
vn -0.1417 0.1607 -0.9768
vn -0.0478 -0.0095 -0.9988
vn 0.0482 -0.1801 -0.9825
vn 0.1421 -0.3437 -0.9283
vn 0.2302 -0.4931 -0.8390
vn 0.3101 -0.6245 -0.7168
vn 0.3777 -0.7313 -0.5679
vn 0.4313 -0.8109 -0.3955
vn 0.4675 -0.8587 -0.2099
vn 0.4864 -0.8736 -0.0144
vn 0.4864 -0.8550 0.1800
vn 0.4675 -0.8034 0.3687
vn 0.4308 -0.7207 0.5432
vn 0.3778 -0.6113 0.6954
vn 0.3098 -0.4771 0.8224
vn 0.2304 -0.3256 0.9170
vn 0.1420 -0.1609 0.9767
vn 0.0479 0.0096 0.9988
vn -0.0478 0.1799 0.9825
vn -0.1420 0.3431 0.9285
vn -0.2309 0.4944 0.8380
vn -0.3098 0.6240 0.7173
vn -0.3783 0.7324 0.5662
vn -0.4311 0.8108 0.3959
vn -0.8714 -0.4883 0.0479
vn -0.8746 -0.4820 0.0527
vn -0.8739 -0.4843 0.0416
vn -0.8732 -0.4841 0.0565
vn -0.8717 -0.4868 0.0566
vn -0.8740 -0.4838 0.0454
vn -0.8704 -0.4899 0.0490
vn -0.8802 -0.4724 0.0462
vn -0.8800 -0.4729 0.0448
vn -0.8738 -0.4842 0.0454
vn -0.8726 -0.4860 0.0488
vn -0.8743 -0.4829 0.0490
vn -0.8739 -0.4840 0.0454
vn -0.8716 -0.4880 0.0455
vn -0.8722 -0.4869 0.0461
vn -0.8720 -0.4875 0.0437
vn -0.8721 -0.4872 0.0456
vn -0.8725 -0.4865 0.0463
vn -0.8716 -0.4880 0.0472
vn -0.8730 -0.4854 0.0464
vn -0.8728 -0.4859 0.0465
vn -0.8730 -0.4854 0.0466
vn -0.8723 -0.4866 0.0477
vn -0.8725 -0.4864 0.0465
vn -0.8727 -0.4861 0.0465
vn -0.8720 -0.4874 0.0456
vn -0.8724 -0.4865 0.0467
vn -0.4679 0.8589 0.2081
vn -0.4863 0.8736 0.0166
vn 0.8727 0.4861 -0.0460
vn 0.8724 0.4865 -0.0474
vn 0.8721 0.4870 -0.0466
vn 0.8734 0.4847 -0.0476
vn 0.8719 0.4874 -0.0475
vn 0.8731 0.4852 -0.0474
vn 0.8720 0.4872 -0.0475
vn 0.8723 0.4867 -0.0474
vn 0.8720 0.4875 -0.0446
vn 0.8723 0.4867 -0.0471
vn 0.8720 0.4871 -0.0471
vn 0.8734 0.4846 -0.0473
vn 0.8719 0.4873 -0.0475
vn 0.8719 0.4873 -0.0480
vn 0.8729 0.4854 -0.0488
vn 0.8723 0.4866 -0.0473
vn 0.8723 0.4868 -0.0470
vn 0.8718 0.4876 -0.0471
vn 0.8730 0.4854 -0.0470
vn 0.8723 0.4865 -0.0480
vn 0.8721 0.4870 -0.0476
vn 0.8712 0.4887 -0.0476
vn 0.8729 0.4856 -0.0466
vn 0.8722 0.4869 -0.0471
vn 0.8723 0.4867 -0.0470
vn 0.8723 0.4867 -0.0472
vn 0.8722 0.4869 -0.0472
vn -0.4860 0.8738 0.0148
vn -0.4672 0.8590 0.2093
vn -0.4314 0.8106 0.3961
vn -0.3782 0.7315 0.5674
vn -0.3105 0.6248 0.7164
vn -0.2310 0.4933 0.8386
vn -0.1426 0.3425 0.9287
vn -0.0487 0.1794 0.9826
vn 0.1411 -0.1617 0.9767
vn 0.2294 -0.3260 0.9171
vn 0.3089 -0.4782 0.8222
vn 0.3768 -0.6114 0.6958
vn 0.4300 -0.7216 0.5426
vn 0.4671 -0.8036 0.3688
vn 0.4858 -0.8554 0.1800
vn 0.4859 -0.8739 -0.0153
vn 0.4676 -0.8587 -0.2096
vn 0.4307 -0.8110 -0.3960
vn 0.3778 -0.7319 -0.5671
vn 0.3104 -0.6242 -0.7170
vn 0.2312 -0.4933 -0.8386
vn 0.1426 -0.3431 -0.9284
vn 0.0488 -0.1794 -0.9826
vn -0.1408 0.1615 -0.9768
vn -0.2293 0.3260 -0.9171
vn -0.3092 0.4782 -0.8220
vn -0.3768 0.6114 -0.6958
vn -0.4303 0.7215 -0.5425
vn -0.4665 0.8041 -0.3685
vn -0.4859 0.8552 -0.1803
vn -0.8722 -0.4869 0.0458
vn -0.8721 -0.4870 0.0476
vn -0.8721 -0.4871 0.0474
vn -0.8725 -0.4862 0.0476
vn -0.8725 -0.4862 0.0474
vn -0.8717 -0.4877 0.0474
vn -0.8723 -0.4867 0.0472
vn -0.8723 -0.4867 0.0474
vn -0.8721 -0.4870 0.0474
vn -0.8722 -0.4868 0.0475
vn -0.8722 -0.4868 0.0474
vn -0.8726 -0.4861 0.0477
vn -0.8721 -0.4870 0.0471
vn -0.8722 -0.4869 0.0471
vn -0.8721 -0.4871 0.0472
vn -0.8722 -0.4868 0.0471
vn -0.8721 -0.4870 0.0472
vn -0.8724 -0.4864 0.0476
vn -0.8718 -0.4877 0.0470
vn -0.8717 -0.4878 0.0473
vn -0.8723 -0.4867 0.0471
vn -0.8724 -0.4865 0.0476
vn -0.8723 -0.4867 0.0466
vn -0.8722 -0.4869 0.0472
vn -0.8716 -0.4879 0.0473
vn -0.8725 -0.4863 0.0473
vn -0.8718 -0.4876 0.0459
vn -0.8723 -0.4868 0.0470
vn -0.8727 -0.4860 0.0471
vn -0.8727 -0.4860 0.0472
vn -0.8724 -0.4867 0.0459
vn -0.8721 -0.4872 0.0465
vn -0.8726 -0.4862 0.0466
vn -0.8727 -0.4860 0.0466
vn -0.8722 -0.4870 0.0463
vn -0.8732 -0.4851 0.0463
vn -0.8727 -0.4861 0.0466
vn -0.8723 -0.4867 0.0465
vn -0.8715 -0.4881 0.0472
vn -0.8729 -0.4857 0.0473
vn -0.8723 -0.4866 0.0471
vn -0.8736 -0.4843 0.0466
vn -0.8720 -0.4871 0.0474
vn -0.8723 -0.4866 0.0476
vn -0.8713 -0.4884 0.0473
vn -0.8720 -0.4872 0.0474
vn -0.8718 -0.4876 0.0470
vn -0.8721 -0.4871 0.0471
vn -0.8721 -0.4869 0.0476
vn -0.8719 -0.4875 0.0472
usemtl None
s off
f 82//49 49//49 81//49
f 82//50 51//50 50//50
f 84//51 51//51 83//51
f 85//52 52//52 84//52
f 85//53 54//53 53//53
f 87//54 54//54 86//54
f 87//55 56//55 55//55
f 88//56 57//56 56//56
f 89//57 58//57 57//57
f 91//58 58//58 90//58
f 91//59 60//59 59//59
f 92//60 61//60 60//60
f 94//61 61//61 93//61
f 94//62 63//62 62//62
f 95//63 64//63 63//63
f 97//64 64//64 96//64
f 97//65 66//65 65//65
f 99//66 66//66 98//66
f 100//67 67//67 99//67
f 100//68 69//68 68//68
f 102//69 69//69 101//69
f 103//70 70//70 102//70
f 104//71 71//71 103//71
f 105//72 72//72 104//72
f 106//73 73//73 105//73
f 106//74 75//74 74//74
f 107//75 76//75 75//75
f 109//76 76//76 108//76
f 109//77 78//77 77//77
f 111//78 78//78 110//78
f 65//79 73//79 49//79
f 112//80 79//80 111//80
f 112//81 49//81 80//81
f 152//82 144//82 128//82
f 113//83 175//83 174//83
f 174//84 173//84 172//84
f 172//85 171//85 170//85
f 170//86 169//86 168//86
f 168//87 167//87 166//87
f 166//88 165//88 164//88
f 164//89 163//89 162//89
f 162//90 161//90 160//90
f 160//91 159//91 158//91
f 158//92 157//92 156//92
f 154//93 157//93 155//93
f 152//94 155//94 153//94
f 150//95 153//95 151//95
f 148//96 151//96 149//96
f 146//97 149//97 147//97
f 144//98 147//98 145//98
f 142//99 145//99 143//99
f 140//100 143//100 141//100
f 138//101 141//101 139//101
f 136//102 139//102 137//102
f 134//103 137//103 135//103
f 132//104 135//104 133//104
f 130//105 133//105 131//105
f 128//106 131//106 129//106
f 126//107 129//107 127//107
f 124//108 127//108 125//108
f 122//109 125//109 123//109
f 122//110 121//110 120//110
f 120//111 119//111 118//111
f 118//112 117//112 116//112
f 116//113 115//113 114//113
f 114//114 176//114 113//114
f 121//115 86//115 85//115
f 101//116 155//116 102//116
f 82//117 50//117 49//117
f 82//118 83//118 51//118
f 84//119 52//119 51//119
f 85//120 53//120 52//120
f 85//121 86//121 54//121
f 87//122 55//122 54//122
f 87//123 88//123 56//123
f 88//124 89//124 57//124
f 89//125 90//125 58//125
f 91//126 59//126 58//126
f 91//127 92//127 60//127
f 92//128 93//128 61//128
f 94//129 62//129 61//129
f 94//130 95//130 63//130
f 95//131 96//131 64//131
f 97//132 65//132 64//132
f 97//133 98//133 66//133
f 99//134 67//134 66//134
f 100//135 68//135 67//135
f 100//136 101//136 69//136
f 102//137 70//137 69//137
f 103//138 71//138 70//138
f 104//139 72//139 71//139
f 105//140 73//140 72//140
f 106//141 74//141 73//141
f 106//142 107//142 75//142
f 107//143 108//143 76//143
f 109//144 77//144 76//144
f 109//145 110//145 78//145
f 111//146 79//146 78//146
f 49//147 50//147 51//147
f 51//148 52//148 53//148
f 53//149 54//149 55//149
f 55//150 56//150 57//150
f 57//151 58//151 59//151
f 59//152 60//152 61//152
f 61//153 62//153 63//153
f 63//154 64//154 65//154
f 65//155 66//155 67//155
f 67//153 68//153 69//153
f 69//156 70//156 71//156
f 71//157 72//157 73//157
f 73//156 74//156 75//156
f 75//158 76//158 77//158
f 77//159 78//159 79//159
f 79//160 80//160 49//160
f 49//161 51//161 57//161
f 53//162 55//162 57//162
f 57//163 59//163 61//163
f 61//164 63//164 57//164
f 65//165 67//165 69//165
f 69//166 71//166 65//166
f 73//167 75//167 49//167
f 77//168 79//168 49//168
f 51//169 53//169 57//169
f 57//170 63//170 65//170
f 65//171 71//171 73//171
f 75//172 77//172 49//172
f 49//173 57//173 65//173
f 112//174 80//174 79//174
f 112//175 81//175 49//175
f 128//176 126//176 124//176
f 124//177 122//177 120//177
f 120//178 118//178 116//178
f 116//179 114//179 113//179
f 113//180 174//180 168//180
f 172//181 170//181 168//181
f 168//182 166//182 160//182
f 164//183 162//183 160//183
f 160//184 158//184 156//184
f 156//185 154//185 160//185
f 152//186 150//186 144//186
f 148//187 146//187 144//187
f 144//188 142//188 136//188
f 140//189 138//189 136//189
f 136//190 134//190 132//190
f 132//191 130//191 128//191
f 128//192 124//192 113//192
f 120//193 116//193 113//193
f 174//194 172//194 168//194
f 166//195 164//195 160//195
f 160//196 154//196 152//196
f 150//197 148//197 144//197
f 142//198 140//198 136//198
f 136//199 132//199 144//199
f 124//199 120//199 113//199
f 113//200 168//200 160//200
f 160//201 152//201 128//201
f 144//199 132//199 128//199
f 128//202 113//202 160//202
f 113//203 176//203 175//203
f 174//204 175//204 173//204
f 172//205 173//205 171//205
f 170//206 171//206 169//206
f 168//207 169//207 167//207
f 166//208 167//208 165//208
f 164//209 165//209 163//209
f 162//210 163//210 161//210
f 160//91 161//91 159//91
f 158//211 159//211 157//211
f 154//212 156//212 157//212
f 152//213 154//213 155//213
f 150//214 152//214 153//214
f 148//215 150//215 151//215
f 146//216 148//216 149//216
f 144//217 146//217 147//217
f 142//218 144//218 145//218
f 140//219 142//219 143//219
f 138//220 140//220 141//220
f 136//221 138//221 139//221
f 134//222 136//222 137//222
f 132//223 134//223 135//223
f 130//224 132//224 133//224
f 128//225 130//225 131//225
f 126//107 128//107 129//107
f 124//226 126//226 127//226
f 122//227 124//227 125//227
f 122//228 123//228 121//228
f 120//229 121//229 119//229
f 118//230 119//230 117//230
f 116//231 117//231 115//231
f 114//232 115//232 176//232
f 175//233 112//233 111//233
f 81//234 112//234 176//234
f 119//235 121//235 85//235
f 123//236 125//236 87//236
f 127//237 129//237 89//237
f 131//238 90//238 89//238
f 135//239 137//239 93//239
f 139//240 141//240 95//240
f 143//241 145//241 97//241
f 147//242 149//242 98//242
f 151//243 153//243 100//243
f 153//244 101//244 100//244
f 145//245 147//245 98//245
f 137//246 139//246 94//246
f 129//241 131//241 89//241
f 121//247 123//247 86//247
f 176//248 112//248 175//248
f 171//242 173//242 111//242
f 167//249 169//249 109//249
f 163//242 165//242 107//242
f 159//242 161//242 104//242
f 155//250 157//250 103//250
f 103//251 102//251 155//251
f 104//252 103//252 157//252
f 157//242 159//242 104//242
f 165//240 167//240 108//240
f 173//253 175//253 111//253
f 125//254 127//254 88//254
f 141//248 143//248 96//248
f 151//255 100//255 99//255
f 151//243 99//243 149//243
f 169//256 171//256 110//256
f 104//257 161//257 105//257
f 105//258 161//258 163//258
f 149//259 99//259 98//259
f 145//260 98//260 97//260
f 106//261 105//261 163//261
f 107//262 106//262 163//262
f 143//263 97//263 96//263
f 141//264 96//264 95//264
f 108//265 107//265 165//265
f 109//266 108//266 167//266
f 139//267 95//267 94//267
f 137//268 94//268 93//268
f 110//269 109//269 169//269
f 111//270 110//270 171//270
f 135//271 93//271 92//271
f 135//272 92//272 91//272
f 115//246 81//246 176//246
f 115//267 82//267 81//267
f 135//273 91//273 133//273
f 91//274 90//274 133//274
f 115//275 117//275 82//275
f 82//269 117//269 83//269
f 133//276 90//276 131//276
f 127//277 89//277 88//277
f 83//278 117//278 119//278
f 84//279 83//279 119//279
f 125//280 88//280 87//280
f 123//252 87//252 86//252
f 85//281 84//281 119//281
f 101//282 153//282 155//282
o Plane.003
v -3.187602 2.336319 -0.442142
v -3.243634 1.755808 -0.442596
v -3.185369 2.336419 -0.891231
v -3.241401 1.755907 -0.891685
v -3.239962 1.789974 -0.479265
v -3.190913 2.304664 -0.478953
v -3.237989 1.790065 -0.854869
v -3.188940 2.304755 -0.854557
v -3.178008 2.335240 -0.442095
v -3.230494 1.788797 -0.442491
v -3.234040 1.754729 -0.442548
v -3.231807 1.754828 -0.891637
v -3.175775 2.335339 -0.891184
v -3.181315 2.303496 -0.478908
v -3.179342 2.303586 -0.854512
v -3.228261 1.788905 -0.891579
v -3.230364 1.788806 -0.479220
v -3.228391 1.788896 -0.854824
vt 0.000000 0.000000
vt 0.000000 0.000000
vt 0.000000 0.000000
vt 0.000000 0.000000
vt 0.000000 0.000000
vt 0.000767 0.999956
vt 0.999497 0.000706
vt 0.999718 0.999940
vt 0.000000 0.000000
vt 0.000000 0.000000
vt 0.000000 0.000000
vt 0.000000 0.000000
vt 0.000000 0.000000
vt 0.000000 0.000000
vt 0.000000 0.000000
vt 0.000000 0.000000
vt 0.000000 0.000000
vt 0.000000 0.000000
vt 0.000000 0.000000
vt 0.000000 0.000000
vt 0.000000 0.000000
vt 0.000546 0.000722
vn -0.0050 -0.0002 1.0000
vn 0.1118 0.9937 0.0008
vn 0.9955 -0.0949 0.0052
vn -0.1118 -0.9937 -0.0008
vn 0.1208 0.9927 0.0009
vn 0.9945 -0.1051 0.0049
vn 0.9954 -0.0956 -0.0070
vn 0.0080 0.0000 -1.0000
vn 0.0047 0.0002 -1.0000
vn -0.0047 -0.0002 1.0000
vn -0.1208 -0.9927 -0.0009
vn 0.9955 -0.0949 0.0035
vn 0.9944 -0.1057 0.0052
vn -0.0080 -0.0000 1.0000
vn -0.0051 -0.0012 1.0000
vn 0.9946 -0.1035 0.0035
vn 0.9948 -0.1017 0.0052
vn 0.0051 0.0012 -1.0000
vn 0.0050 0.0002 -1.0000
vn 0.9953 -0.0956 0.0140
vn 0.9940 -0.1093 0.0049
usemtl Material
s off
f 186/1/283 185/2/283 177/3/283
f 177/3/284 189/4/284 179/5/284
f 182/6/285 183/7/285 184/8/285
f 180/9/286 187/10/286 178/11/286
f 183/12/287 193/13/287 194/14/287
f 188/15/288 194/14/288 187/10/288
f 186/1/289 190/16/289 185/2/289
f 179/5/290 192/17/290 180/9/290
f 181/18/291 190/16/291 193/13/291
f 183/12/292 191/19/292 184/20/292
f 184/20/293 190/16/293 182/21/293
f 192/17/294 191/19/294 194/14/294
f 189/4/295 190/16/295 191/19/295
f 177/3/296 178/11/296 186/1/296
f 187/10/297 186/1/297 178/11/297
f 177/3/284 185/2/284 189/4/284
f 182/6/285 181/22/285 183/7/285
f 180/9/286 188/15/286 187/10/286
f 183/12/287 181/18/287 193/13/287
f 186/1/298 187/10/298 193/13/298
f 188/15/298 192/17/298 194/14/298
f 193/13/299 187/10/299 194/14/299
f 186/1/294 193/13/294 190/16/294
f 188/15/300 180/9/300 192/17/300
f 179/5/301 189/4/301 192/17/301
f 181/18/291 182/21/291 190/16/291
f 183/12/292 194/14/292 191/19/292
f 184/20/293 191/19/293 190/16/293
f 192/17/302 189/4/302 191/19/302
f 189/4/303 185/2/303 190/16/303
