# Blender v2.79 (sub 0) OBJ File: 'pokoj scalone sprzety.blend'
# www.blender.org
mtllib okno.mtl
o Cube.046_Cube.048
v -1.258003 0.971965 0.139321
v -1.258003 1.036782 0.139321
v -1.258003 0.971965 0.078700
v -1.258003 1.036782 0.078700
v -0.379669 0.971965 0.139321
v -0.379669 1.036782 0.139321
v -0.379669 0.971965 0.078700
v -0.379669 1.036782 0.078700
v -1.258313 1.030043 0.136864
v -0.378679 1.030043 0.136864
v -1.258313 2.588021 0.136864
v -0.378679 2.588021 0.136864
v -1.206843 2.529329 0.136864
v -1.206843 1.078789 0.136864
v -0.430149 1.078789 0.136864
v -0.430149 2.529329 0.136864
v -1.258313 1.030043 0.095785
v -0.378679 1.030043 0.095785
v -1.258313 2.588021 0.095785
v -0.378679 2.588021 0.095785
v -1.206843 2.529329 0.095785
v -1.206843 1.078789 0.095785
v -0.430149 1.078789 0.095785
v -0.430149 2.529329 0.095785
vn -1.0000 0.0000 0.0000
vn 0.0000 0.0000 -1.0000
vn 1.0000 0.0000 0.0000
vn 0.0000 0.0000 1.0000
vn 0.0000 -1.0000 0.0000
vn 0.0000 1.0000 0.0000
usemtl rama_okna
s off
f 2//1 3//1 1//1
f 4//2 7//2 3//2
f 8//3 5//3 7//3
f 6//4 1//4 5//4
f 7//5 1//5 3//5
f 4//6 6//6 8//6
f 21//5 16//5 13//5
f 13//4 9//4 14//4
f 14//4 10//4 15//4
f 16//4 10//4 12//4
f 16//4 11//4 13//4
f 23//6 14//6 15//6
f 17//2 21//2 22//2
f 18//2 22//2 23//2
f 24//2 18//2 23//2
f 21//2 20//2 24//2
f 11//1 17//1 9//1
f 9//5 18//5 10//5
f 10//3 20//3 12//3
f 12//6 19//6 11//6
f 22//3 13//3 14//3
f 24//1 15//1 16//1
f 2//1 4//1 3//1
f 4//2 8//2 7//2
f 8//3 6//3 5//3
f 6//4 2//4 1//4
f 7//5 5//5 1//5
f 4//6 2//6 6//6
f 21//5 24//5 16//5
f 13//4 11//4 9//4
f 14//4 9//4 10//4
f 16//4 15//4 10//4
f 16//4 12//4 11//4
f 23//6 22//6 14//6
f 17//2 19//2 21//2
f 18//2 17//2 22//2
f 24//2 20//2 18//2
f 21//2 19//2 20//2
f 11//1 19//1 17//1
f 9//5 17//5 18//5
f 10//3 18//3 20//3
f 12//6 20//6 19//6
f 22//3 21//3 13//3
f 24//1 23//1 15//1
o Cube.045_Cube.047
v -1.189782 1.447402 0.102035
v -1.190647 1.474506 0.102715
v -1.193079 1.447402 0.097838
v -1.193944 1.474506 0.098518
v -0.916854 1.461491 -0.112373
v -0.917719 1.488595 -0.111693
v -0.920151 1.461491 -0.116570
v -0.921016 1.488595 -0.115890
v -1.198290 1.080262 0.127622
v -0.892305 1.080262 -0.112754
v -1.198290 2.527512 0.127622
v -0.892305 2.527512 -0.112754
v -1.159007 2.464900 0.096763
v -1.159007 1.142875 0.096763
v -0.931587 1.142875 -0.081894
v -0.931587 2.464900 -0.081894
v -1.207452 1.080262 0.115959
v -0.901468 1.080262 -0.124417
v -1.207452 2.527512 0.115959
v -0.901468 2.527512 -0.124417
v -1.168170 2.464900 0.085099
v -1.168170 1.142875 0.085099
v -0.940750 1.142875 -0.093558
v -0.940750 2.464900 -0.093558
v -1.163098 2.464900 0.091555
v -1.163098 1.142875 0.091555
v -0.935679 1.142875 -0.087102
v -0.935679 2.464900 -0.087102
v -1.163900 2.464900 0.090534
v -1.163900 1.142875 0.090534
v -0.936481 1.142875 -0.088123
v -0.936481 2.464900 -0.088123
v -1.190304 1.792788 0.102445
v -1.190304 1.828521 0.102445
v -1.193601 1.792788 0.098248
v -1.193601 1.828521 0.098248
v -0.917197 1.792788 -0.112103
v -0.917197 1.819919 -0.112103
v -0.920494 1.792788 -0.116300
v -0.920494 1.819919 -0.116300
v -1.190304 2.131143 0.102445
v -1.190304 2.158274 0.102445
v -1.193601 2.131143 0.098248
v -1.193601 2.158274 0.098248
v -0.917197 2.131143 -0.112103
v -0.917197 2.158273 -0.112103
v -0.920494 2.131143 -0.116300
v -0.920494 2.158273 -0.116300
vn -0.7857 -0.0406 0.6173
vn -0.6178 0.0000 -0.7864
vn 0.7857 0.0406 -0.6173
vn 0.6178 0.0000 0.7864
vn 0.0319 -0.9992 -0.0250
vn -0.0319 0.9992 0.0250
vn 0.0000 -1.0000 0.0000
vn -0.7864 0.0000 0.6178
vn 0.7864 0.0000 -0.6178
vn 0.0000 1.0000 0.0000
vn 0.0000 -1.0000 -0.0001
vn 0.0195 0.9997 -0.0153
vn 0.7857 0.0406 -0.6172
vn 0.0319 -0.9992 -0.0251
vn -0.0319 0.9992 0.0251
vn -0.6177 0.0000 -0.7864
usemtl rama_okna
s off
f 25//7 28//7 27//7
f 28//8 31//8 27//8
f 32//9 29//9 31//9
f 29//10 26//10 25//10
f 27//11 29//11 25//11
f 32//12 26//12 30//12
f 40//13 53//13 56//13
f 38//10 35//10 33//10
f 39//10 33//10 34//10
f 39//10 36//10 40//10
f 40//10 35//10 37//10
f 47//14 52//14 48//14
f 46//8 43//8 45//8
f 47//8 41//8 46//8
f 44//8 47//8 48//8
f 45//8 44//8 48//8
f 35//14 41//14 33//14
f 33//13 42//13 34//13
f 34//15 44//15 36//15
f 36//16 43//16 35//16
f 45//15 50//15 46//15
f 45//17 52//17 49//17
f 46//16 51//16 47//16
f 39//16 54//16 38//16
f 40//14 55//14 39//14
f 38//15 53//15 37//15
f 58//14 59//14 57//14
f 59//8 64//8 63//8
f 64//15 61//15 63//15
f 62//10 57//10 61//10
f 63//13 57//13 59//13
f 60//18 62//18 64//18
f 66//14 67//14 65//14
f 68//8 71//8 67//8
f 72//15 69//15 71//15
f 70//10 65//10 69//10
f 71//13 65//13 67//13
f 72//16 66//16 70//16
f 25//7 26//7 28//7
f 28//8 32//8 31//8
f 32//19 30//19 29//19
f 29//10 30//10 26//10
f 27//20 31//20 29//20
f 32//21 28//21 26//21
f 40//13 37//13 53//13
f 38//10 37//10 35//10
f 39//10 38//10 33//10
f 39//10 34//10 36//10
f 40//10 36//10 35//10
f 47//14 51//14 52//14
f 46//8 41//8 43//8
f 47//8 42//8 41//8
f 44//8 42//8 47//8
f 45//8 43//8 44//8
f 35//14 43//14 41//14
f 33//13 41//13 42//13
f 34//15 42//15 44//15
f 36//16 44//16 43//16
f 45//15 49//15 50//15
f 45//13 48//13 52//13
f 46//16 50//16 51//16
f 39//16 55//16 54//16
f 40//14 56//14 55//14
f 38//15 54//15 53//15
f 58//14 60//14 59//14
f 59//8 60//8 64//8
f 64//15 62//15 61//15
f 62//10 58//10 57//10
f 63//13 61//13 57//13
f 60//18 58//18 62//18
f 66//14 68//14 67//14
f 68//22 72//22 71//22
f 72//15 70//15 69//15
f 70//10 66//10 65//10
f 71//13 69//13 65//13
f 72//16 68//16 66//16
usemtl szyba
f 51//10 49//10 50//10
f 53//8 55//8 54//8
f 51//10 52//10 49//10
f 53//8 56//8 55//8
o Cube.043
v -0.783739 2.120380 0.032461
v -0.785380 2.147450 0.032081
v -0.782536 2.120380 0.027261
v -0.784178 2.147450 0.026881
v -0.445897 2.141967 0.110608
v -0.447539 2.169036 0.110228
v -0.444695 2.141967 0.105408
v -0.446336 2.169036 0.105028
v -0.784818 1.792788 0.032211
v -0.784818 1.819919 0.032211
v -0.783615 1.792788 0.027011
v -0.783615 1.819919 0.027011
v -0.446460 1.792788 0.110478
v -0.446460 1.819919 0.110478
v -0.445257 1.792788 0.105278
v -0.445257 1.819919 0.105278
v -0.784818 1.446634 0.032211
v -0.784818 1.481564 0.032211
v -0.783615 1.446634 0.027011
v -0.783615 1.481564 0.027011
v -0.446460 1.454433 0.110478
v -0.446460 1.481564 0.110478
v -0.445257 1.454433 0.105278
v -0.445257 1.481564 0.105278
v -0.809029 1.080262 0.041934
v -0.429937 1.080262 0.129623
v -0.809029 2.527512 0.041934
v -0.429937 2.527512 0.129623
v -0.760361 2.464899 0.053192
v -0.760361 1.142875 0.053192
v -0.478605 1.142875 0.118366
v -0.478605 2.464899 0.118366
v -0.805687 1.080262 0.027483
v -0.426594 1.080262 0.115172
v -0.805687 2.527512 0.027483
v -0.426594 2.527512 0.115172
v -0.757019 2.464899 0.038741
v -0.757019 1.142875 0.038741
v -0.475262 1.142875 0.103915
v -0.475262 2.464899 0.103915
v -0.758869 2.464899 0.046739
v -0.758869 1.142875 0.046739
v -0.477113 1.142875 0.111913
v -0.477113 2.464899 0.111913
v -0.758576 2.464899 0.045474
v -0.758576 1.142875 0.045474
v -0.476820 1.142875 0.110648
v -0.476820 2.464899 0.110648
vn -0.9724 -0.0621 -0.2249
vn 0.2254 0.0000 -0.9743
vn 0.9724 0.0621 0.2249
vn -0.2254 0.0000 0.9743
vn 0.0605 -0.9981 0.0140
vn -0.0605 0.9981 -0.0140
vn -0.9743 0.0000 -0.2254
vn 0.9743 0.0000 0.2254
vn 0.0000 -1.0000 0.0000
vn 0.0000 1.0000 -0.0000
vn 0.0219 -0.9997 0.0051
vn -0.0000 1.0000 0.0001
vn 0.0000 -1.0000 0.0001
vn 0.0219 -0.9997 0.0050
usemtl rama_okna
s off
f 73//23 76//23 75//23
f 76//24 79//24 75//24
f 80//25 77//25 79//25
f 77//26 74//26 73//26
f 79//27 73//27 75//27
f 80//28 74//28 78//28
f 82//29 83//29 81//29
f 83//24 88//24 87//24
f 88//30 85//30 87//30
f 86//26 81//26 85//26
f 87//31 81//31 83//31
f 84//32 86//32 88//32
f 90//29 91//29 89//29
f 92//24 95//24 91//24
f 96//30 93//30 95//30
f 93//26 90//26 89//26
f 91//33 93//33 89//33
f 96//34 90//34 94//34
f 104//31 117//31 120//31
f 101//26 97//26 102//26
f 103//26 97//26 98//26
f 103//26 100//26 104//26
f 101//26 100//26 99//26
f 112//29 115//29 116//29
f 105//24 109//24 110//24
f 111//24 105//24 110//24
f 108//24 111//24 112//24
f 107//24 112//24 109//24
f 99//29 105//29 97//29
f 97//31 106//31 98//31
f 98//30 108//30 100//30
f 100//32 107//32 99//32
f 109//30 114//30 110//30
f 109//35 116//35 113//35
f 111//32 114//32 115//32
f 102//32 119//32 118//32
f 104//29 119//29 103//29
f 102//30 117//30 101//30
f 73//23 74//23 76//23
f 76//24 80//24 79//24
f 80//25 78//25 77//25
f 77//26 78//26 74//26
f 79//27 77//27 73//27
f 80//28 76//28 74//28
f 82//29 84//29 83//29
f 83//24 84//24 88//24
f 88//30 86//30 85//30
f 86//26 82//26 81//26
f 87//31 85//31 81//31
f 84//32 82//32 86//32
f 90//29 92//29 91//29
f 92//24 96//24 95//24
f 96//30 94//30 93//30
f 93//26 94//26 90//26
f 91//36 95//36 93//36
f 96//32 92//32 90//32
f 104//31 101//31 117//31
f 101//26 99//26 97//26
f 103//26 102//26 97//26
f 103//26 98//26 100//26
f 101//26 104//26 100//26
f 112//29 111//29 115//29
f 105//24 107//24 109//24
f 111//24 106//24 105//24
f 108//24 106//24 111//24
f 107//24 108//24 112//24
f 99//29 107//29 105//29
f 97//31 105//31 106//31
f 98//30 106//30 108//30
f 100//32 108//32 107//32
f 109//30 113//30 114//30
f 109//31 112//31 116//31
f 111//32 110//32 114//32
f 102//32 103//32 119//32
f 104//29 120//29 119//29
f 102//30 118//30 117//30
usemtl szyba
f 115//26 113//26 114//26
f 118//24 120//24 119//24
f 115//26 116//26 113//26
f 118//24 117//24 120//24
