# Blender v2.79 (sub 0) OBJ File: 'pokoj scalone sprzety.blend'
# www.blender.org
mtllib posciel.mtl
o Cube.039_Cube.041
v -2.720765 0.529145 -1.225117
v -3.198802 0.463468 -1.289940
v -2.882327 0.543341 -1.228089
v -3.028075 0.538612 -1.242174
v -3.132119 0.523581 -1.262754
v -3.198802 0.463468 -2.064616
v -2.720765 0.556832 -2.064616
v -3.132119 0.540179 -2.064616
v -3.028075 0.560721 -2.064616
v -2.882327 0.559393 -2.064616
v -2.163773 0.478621 -1.161836
v -2.642826 0.529145 -1.213843
v -2.235890 0.554659 -1.165397
v -2.335515 0.551461 -1.180712
v -2.481263 0.538482 -1.194042
v -2.642826 0.558374 -2.064616
v -2.166530 0.478621 -2.064616
v -2.481263 0.583621 -2.064616
v -2.335515 0.574030 -2.064616
v -2.235890 0.554659 -2.064616
v -3.192833 0.399773 -1.289940
v -3.120454 0.352345 -1.289940
v -3.193039 0.377055 -1.289940
v -3.182023 0.359747 -1.289940
v -3.120454 0.352345 -2.064616
v -3.192833 0.399773 -2.064616
v -3.182023 0.359747 -2.064616
v -3.193039 0.377055 -2.064616
v -2.243136 0.365585 -1.180237
v -2.155030 0.436064 -1.164230
v -2.181567 0.304935 -1.193299
v -2.159752 0.400075 -1.168179
v -2.165669 0.436064 -2.064616
v -2.243136 0.423143 -2.064616
v -2.158142 0.393771 -2.064616
v -2.170562 0.367285 -2.064616
v -3.177555 0.522975 -1.282974
v -3.191922 0.494504 -1.289940
v -3.191922 0.494504 -2.064616
v -3.177555 0.522975 -2.064616
v -2.164030 0.508001 -1.161375
v -2.181932 0.530580 -1.161818
v -2.181932 0.530580 -2.064616
v -2.166306 0.508001 -2.064616
v -2.720765 0.556832 -1.677278
v -2.882327 0.559393 -1.677278
v -3.028075 0.560721 -1.677278
v -3.132119 0.540179 -1.677278
v -3.198802 0.463468 -1.677278
v -2.642826 0.558374 -1.677278
v -2.481263 0.555423 -1.677278
v -2.335515 0.545832 -1.677278
v -2.235890 0.554659 -1.677278
v -2.162084 0.478621 -1.677278
v -3.120454 0.352345 -1.677278
v -3.182023 0.328970 -1.677278
v -3.193039 0.353863 -1.677278
v -3.192833 0.399773 -1.677278
v -2.243136 0.365585 -1.677278
v -2.176461 0.365775 -1.677278
v -2.165477 0.400075 -1.677278
v -2.163388 0.436064 -1.677278
v -3.191922 0.494504 -1.677278
v -3.177555 0.522975 -1.677278
v -2.164030 0.508001 -1.677278
v -2.181932 0.530580 -1.677278
v -2.882327 0.556473 -1.483609
v -3.028075 0.560721 -1.483609
v -3.132119 0.540179 -1.483609
v -3.198802 0.463468 -1.483609
v -2.642826 0.549758 -1.483609
v -3.120454 0.352345 -1.483609
v -2.178287 0.341490 -1.464379
v -2.159752 0.400075 -1.459490
v -2.155030 0.436064 -1.458791
v -3.191922 0.494504 -1.483609
v -2.181932 0.530580 -1.459936
v -2.720765 0.547022 -1.483609
v -2.481263 0.543760 -1.483609
v -2.335515 0.557608 -1.464236
v -2.235890 0.554659 -1.458259
v -2.160980 0.478621 -1.459776
v -3.182023 0.328970 -1.483609
v -3.193039 0.353863 -1.483609
v -3.192833 0.399773 -1.483609
v -2.243136 0.365585 -1.466710
v -3.177555 0.522975 -1.483609
v -2.164030 0.508001 -1.449878
vn -0.0110 0.9970 0.0762
vn 0.9904 0.1385 0.0000
vn 0.0159 0.9999 0.0000
vn 0.0091 1.0000 0.0000
vn -0.1937 0.9811 0.0000
vn -0.9763 0.2165 0.0000
vn 0.4075 0.9132 0.0000
vn 0.0370 0.9964 0.0761
vn -0.0970 0.9951 0.0181
vn 0.0283 0.9994 0.0217
vn 0.9949 0.1002 0.0093
vn 0.0000 0.0000 -1.0000
vn -0.9956 -0.0933 0.0000
vn 0.3511 -0.9247 0.1470
vn -0.9126 -0.4039 0.0642
vn -1.0000 0.0045 -0.0005
vn 0.0028 -1.0000 -0.0039
vn 0.9523 -0.3049 0.0133
vn 0.9983 -0.0580 -0.0059
vn 0.0151 -0.9999 0.0000
vn -0.8928 0.4505 0.0000
vn -0.3541 0.9352 0.0000
vn 0.7836 0.6213 -0.0046
vn -0.1683 -0.1657 0.9717
vn 0.7836 0.6213 0.0000
vn 0.9909 -0.1293 -0.0379
vn 0.9537 -0.2996 -0.0260
vn -0.3428 -0.9330 -0.1094
vn -1.0000 0.0091 0.0000
vn -0.8432 -0.5367 -0.0321
vn -0.1194 -0.9929 0.0000
vn 1.0000 -0.0076 -0.0059
vn 0.1904 0.9791 0.0713
vn 0.0655 0.9952 0.0725
vn -0.1540 0.9855 0.0717
vn 0.0291 0.9995 0.0151
vn 0.0583 0.9970 0.0505
vn 0.9998 0.0202 -0.0059
vn -0.0198 0.9998 0.0000
vn 0.0861 0.9939 0.0687
vn -0.0373 0.9980 0.0513
vn -0.1598 0.9830 0.0900
vn -0.7018 -0.7124 0.0000
vn 0.9747 -0.2235 0.0000
vn 0.9915 -0.1301 0.0000
vn -0.0466 0.9961 0.0749
vn -1.0000 0.0045 0.0000
vn -0.9144 -0.4047 0.0000
vn 0.3549 -0.9349 0.0000
vn 0.9978 0.0661 -0.0051
vn -0.0881 0.9946 -0.0550
vn 0.0655 0.9960 0.0600
vn 0.0182 0.9988 0.0444
vn 0.9898 0.1375 -0.0379
vn -0.0198 0.9988 0.0444
vn -0.0350 0.9970 0.0690
vn 0.9796 0.2007 0.0092
vn -0.9763 0.2164 0.0000
vn -0.0599 0.9980 0.0182
vn -0.0906 0.9956 0.0216
vn -0.0321 0.9995 0.0000
vn 1.0000 0.0088 0.0000
vn -0.8419 -0.5359 0.0642
vn -0.6057 -0.7870 -0.1169
vn 0.9051 -0.4244 0.0240
vn 0.9844 0.1752 0.0158
vn 0.8223 0.5691 0.0000
vn -0.0379 -0.2470 0.9683
vn -0.1039 -0.0950 0.9900
vn -0.0450 -0.0161 0.9989
vn -0.0785 -0.0278 0.9965
vn -0.1493 -0.0717 0.9862
vn -0.1162 -0.0796 0.9900
vn -0.1431 -0.0392 0.9889
vn 0.0000 0.0000 1.0000
vn -0.4517 0.1001 0.8865
vn -0.1257 -0.0728 0.9894
vn -0.0874 -0.0409 0.9953
vn -0.0407 -0.2615 0.9643
vn -0.1166 -0.0816 0.9898
vn -0.1068 -0.1630 0.9808
vn -0.4063 -0.0185 0.9135
vn -0.0875 -0.2065 0.9745
vn -0.3517 -0.0330 0.9355
vn -0.1221 -0.0954 0.9879
vn 0.0796 -0.9860 -0.1465
vn 0.9980 -0.0579 -0.0262
vn 0.9521 -0.3049 -0.0250
vn 0.0028 -1.0000 0.0000
vn -1.0000 0.0045 0.0003
vn -0.9140 -0.4045 -0.0321
vn 0.3540 -0.9323 -0.0741
vn 0.9977 0.0661 -0.0115
vn -0.0883 0.9961 0.0000
vn 0.0183 0.9998 0.0000
vn 0.0158 0.9998 0.0151
vn 0.9995 -0.0306 -0.0115
vn 0.0583 0.9970 0.0512
vn 0.0290 0.9954 0.0912
vn -0.1932 0.9784 0.0735
vn -0.3413 -0.9310 -0.1297
vn 0.9537 -0.2993 -0.0288
vn 0.9947 0.1032 0.0000
vn 0.0296 0.9996 0.0000
vn -0.0872 0.9947 -0.0550
vn 0.0370 0.9975 0.0601
vn 0.9995 -0.0306 -0.0051
vn -0.0350 0.9981 0.0506
usemtl None
s off
f 71//1 1//1 12//1
f 82//2 30//2 75//2
f 7//3 46//3 45//3
f 10//4 47//4 46//4
f 9//5 48//5 47//5
f 39//6 49//6 63//6
f 13//7 77//7 81//7
f 12//8 79//8 71//8
f 15//9 80//9 79//9
f 14//10 81//10 80//10
f 88//11 11//11 82//11
f 20//12 43//12 34//12
f 49//13 26//13 58//13
f 72//14 24//14 83//14
f 24//15 84//15 83//15
f 23//16 85//16 84//16
f 59//17 36//17 60//17
f 36//18 61//18 60//18
f 61//19 33//19 62//19
f 86//20 22//20 72//20
f 38//21 87//21 76//21
f 8//22 64//22 48//22
f 44//23 66//23 65//23
f 4//24 5//24 22//24
f 65//25 77//25 88//25
f 48//22 87//22 69//22
f 63//21 40//21 39//21
f 25//20 59//20 55//20
f 74//26 62//26 75//26
f 60//27 74//27 73//27
f 86//28 60//28 73//28
f 28//29 58//29 26//29
f 27//30 57//30 28//30
f 55//31 27//31 25//31
f 70//13 58//13 85//13
f 65//32 17//32 44//32
f 52//33 20//33 19//33
f 51//34 19//34 18//34
f 16//35 51//35 18//35
f 53//7 43//7 20//7
f 63//6 70//6 76//6
f 47//5 69//5 68//5
f 46//36 68//36 67//36
f 45//37 67//37 78//37
f 17//38 62//38 33//38
f 7//39 50//39 16//39
f 78//40 3//40 1//40
f 67//41 4//41 3//41
f 68//42 5//42 4//42
f 76//6 2//6 38//6
f 2//13 85//13 21//13
f 86//43 31//43 29//43
f 31//44 74//44 32//44
f 32//45 75//45 30//45
f 69//46 37//46 5//46
f 88//25 42//25 41//25
f 76//21 64//21 63//21
f 59//20 72//20 55//20
f 84//47 58//47 57//47
f 83//48 57//48 56//48
f 72//49 56//49 55//49
f 65//50 82//50 54//50
f 80//51 53//51 52//51
f 79//52 52//52 51//52
f 71//53 51//53 50//53
f 53//7 77//7 66//7
f 62//54 82//54 75//54
f 45//55 71//55 50//55
f 71//56 78//56 1//56
f 82//57 11//57 30//57
f 7//3 10//3 46//3
f 10//4 9//4 47//4
f 9//5 8//5 48//5
f 39//58 6//58 49//58
f 13//7 42//7 77//7
f 12//59 15//59 79//59
f 15//60 14//60 80//60
f 14//61 13//61 81//61
f 88//62 41//62 11//62
f 34//12 25//12 16//12
f 27//12 28//12 26//12
f 26//12 6//12 25//12
f 39//12 40//12 8//12
f 8//12 9//12 25//12
f 9//12 10//12 25//12
f 6//12 39//12 8//12
f 25//12 27//12 26//12
f 35//12 36//12 34//12
f 33//12 35//12 34//12
f 25//12 7//12 16//12
f 10//12 7//12 25//12
f 16//12 18//12 34//12
f 19//12 20//12 34//12
f 43//12 44//12 17//12
f 17//12 33//12 34//12
f 6//12 8//12 25//12
f 18//12 19//12 34//12
f 43//12 17//12 34//12
f 49//13 6//13 26//13
f 72//31 22//31 24//31
f 24//63 23//63 84//63
f 23//29 21//29 85//29
f 59//64 34//64 36//64
f 36//65 35//65 61//65
f 61//66 35//66 33//66
f 86//20 29//20 22//20
f 38//21 37//21 87//21
f 8//22 40//22 64//22
f 44//67 43//67 66//67
f 29//68 31//68 32//68
f 32//69 30//69 29//69
f 11//70 41//70 42//70
f 42//71 13//71 11//71
f 13//72 14//72 29//72
f 30//73 11//73 29//73
f 22//74 12//74 1//74
f 23//75 24//75 21//75
f 38//76 2//76 5//76
f 21//75 24//75 22//75
f 29//77 11//77 13//77
f 14//78 15//78 29//78
f 1//79 3//79 22//79
f 15//80 12//80 29//80
f 21//81 22//81 5//81
f 37//82 38//82 5//82
f 3//83 4//83 22//83
f 5//84 2//84 21//84
f 29//85 12//85 22//85
f 65//25 66//25 77//25
f 48//22 64//22 87//22
f 63//21 64//21 40//21
f 25//86 34//86 59//86
f 74//87 61//87 62//87
f 60//88 61//88 74//88
f 86//89 59//89 60//89
f 28//90 57//90 58//90
f 27//91 56//91 57//91
f 55//92 56//92 27//92
f 70//13 49//13 58//13
f 65//93 54//93 17//93
f 52//94 53//94 20//94
f 51//34 52//34 19//34
f 16//95 50//95 51//95
f 53//7 66//7 43//7
f 63//58 49//58 70//58
f 47//5 48//5 69//5
f 46//4 47//4 68//4
f 45//96 46//96 67//96
f 17//97 54//97 62//97
f 7//39 45//39 50//39
f 78//98 67//98 3//98
f 67//99 68//99 4//99
f 68//100 69//100 5//100
f 76//58 70//58 2//58
f 2//13 70//13 85//13
f 86//101 73//101 31//101
f 31//102 73//102 74//102
f 32//45 74//45 75//45
f 69//22 87//22 37//22
f 88//25 77//25 42//25
f 76//21 87//21 64//21
f 59//20 86//20 72//20
f 84//47 85//47 58//47
f 83//48 84//48 57//48
f 72//49 83//49 56//49
f 65//103 88//103 82//103
f 80//104 81//104 53//104
f 79//105 80//105 52//105
f 71//106 79//106 51//106
f 53//7 81//7 77//7
f 62//107 54//107 82//107
f 45//108 78//108 71//108
