# Blender v2.79 (sub 0) OBJ File: 'pokoj scalone sprzety.blend'
# www.blender.org
mtllib szczotka.mtl
o Cube.048_Cube.044
v -0.918864 0.790063 -0.766376
v -0.933578 0.790063 -0.758393
v -0.933578 0.818944 -0.758393
v -0.918864 0.818944 -0.766376
v -0.976838 0.790063 -0.792823
v -0.972361 0.790063 -0.808953
v -0.972361 0.818944 -0.808953
v -0.976838 0.818944 -0.792823
v -0.833282 0.790063 -0.884412
v -0.837759 0.790063 -0.868281
v -0.837759 0.818944 -0.868281
v -0.833282 0.818944 -0.884412
v -0.891256 0.790063 -0.910859
v -0.876543 0.790063 -0.918842
v -0.876543 0.818944 -0.918842
v -0.891256 0.818944 -0.910859
v -0.922479 0.811457 -0.775863
v -0.912950 0.815982 -0.768279
v -0.940345 0.814611 -0.753415
v -0.917721 0.812105 -0.772076
v -0.931400 0.811168 -0.764654
v -0.926466 0.811794 -0.761501
v -0.923144 0.815018 -0.758082
v -0.914223 0.813756 -0.769292
v -0.924003 0.812940 -0.759541
v -0.937958 0.812461 -0.756414
v -0.933200 0.814648 -0.752627
v -0.931083 0.812639 -0.755700
v -0.912950 0.834424 -0.768279
v -0.922479 0.838781 -0.775863
v -0.940345 0.832814 -0.753415
v -0.914223 0.836602 -0.769292
v -0.923144 0.833341 -0.758082
v -0.924003 0.835460 -0.759541
v -0.931400 0.837114 -0.764654
v -0.917721 0.838200 -0.772076
v -0.926466 0.836585 -0.761501
v -0.933200 0.832883 -0.752627
v -0.937958 0.835058 -0.756414
v -0.931083 0.835086 -0.755700
v -0.962304 0.811457 -0.807559
v -0.980170 0.814611 -0.785111
v -0.971834 0.815982 -0.815143
v -0.971226 0.811168 -0.796350
v -0.967063 0.812105 -0.811346
v -0.975405 0.811794 -0.800451
v -0.982542 0.814648 -0.791897
v -0.977783 0.812461 -0.788110
v -0.980022 0.812639 -0.794650
v -0.970561 0.813756 -0.814130
v -0.979482 0.815018 -0.802921
v -0.977868 0.812940 -0.802411
v -0.962304 0.838781 -0.807559
v -0.971834 0.834424 -0.815143
v -0.980170 0.832814 -0.785111
v -0.967063 0.838200 -0.811346
v -0.971226 0.837114 -0.796350
v -0.975405 0.836585 -0.800451
v -0.979482 0.833341 -0.802921
v -0.970561 0.836602 -0.814130
v -0.977868 0.835460 -0.802411
v -0.977783 0.835058 -0.788110
v -0.982542 0.832883 -0.791897
v -0.980022 0.835086 -0.794650
v -0.847816 0.811457 -0.869676
v -0.829950 0.814611 -0.892124
v -0.838286 0.815982 -0.862091
v -0.838894 0.811168 -0.880885
v -0.843057 0.812105 -0.865888
v -0.834715 0.811794 -0.876784
v -0.827578 0.814648 -0.885338
v -0.832337 0.812461 -0.889125
v -0.830098 0.812639 -0.882585
v -0.839559 0.813756 -0.863104
v -0.830638 0.815018 -0.874314
v -0.832252 0.812940 -0.874824
v -0.847816 0.838781 -0.869676
v -0.838286 0.834424 -0.862091
v -0.829950 0.832814 -0.892124
v -0.843057 0.838200 -0.865888
v -0.838894 0.837114 -0.880885
v -0.834715 0.836585 -0.876784
v -0.830638 0.833341 -0.874314
v -0.839559 0.836602 -0.863104
v -0.832252 0.835460 -0.874824
v -0.832337 0.835058 -0.889125
v -0.827578 0.832883 -0.885338
v -0.830098 0.835086 -0.882585
v -0.887641 0.811457 -0.901371
v -0.897171 0.815982 -0.908956
v -0.869775 0.814611 -0.923820
v -0.892399 0.812105 -0.905159
v -0.878720 0.811168 -0.912581
v -0.883654 0.811794 -0.915733
v -0.886976 0.815018 -0.919152
v -0.895897 0.813756 -0.907943
v -0.886117 0.812940 -0.917693
v -0.872162 0.812461 -0.920821
v -0.876920 0.814648 -0.924608
v -0.879037 0.812639 -0.921534
v -0.887641 0.838781 -0.901371
v -0.869775 0.832814 -0.923820
v -0.897171 0.834424 -0.908956
v -0.878720 0.837114 -0.912581
v -0.892399 0.838200 -0.905159
v -0.883654 0.836585 -0.915733
v -0.876920 0.832883 -0.924608
v -0.872162 0.835058 -0.920821
v -0.879037 0.835086 -0.921534
v -0.895897 0.836602 -0.907943
v -0.886976 0.833341 -0.919152
v -0.886117 0.835460 -0.917693
v -0.906307 0.811670 -0.877918
v -0.924973 0.811891 -0.854465
v -0.943638 0.811670 -0.831012
v -0.948397 0.812383 -0.834799
v -0.929731 0.812639 -0.858252
v -0.911065 0.812383 -0.881706
v -0.951895 0.814086 -0.837583
v -0.933229 0.814372 -0.861036
v -0.914563 0.814086 -0.884490
v -0.953168 0.816363 -0.838597
v -0.934502 0.816679 -0.862050
v -0.915836 0.816363 -0.885503
v -0.943638 0.841630 -0.831012
v -0.924973 0.843148 -0.854465
v -0.906307 0.841630 -0.877918
v -0.911065 0.841049 -0.881706
v -0.929731 0.842567 -0.858252
v -0.948397 0.841049 -0.834799
v -0.914563 0.839451 -0.884490
v -0.933229 0.840969 -0.861036
v -0.951895 0.839451 -0.837583
v -0.915836 0.837269 -0.885503
v -0.934502 0.837754 -0.862050
v -0.953168 0.837269 -0.838597
v -0.903813 0.811670 -0.799316
v -0.885147 0.811891 -0.822769
v -0.866482 0.811670 -0.846222
v -0.861723 0.812383 -0.842435
v -0.880389 0.812639 -0.818982
v -0.899055 0.812383 -0.795529
v -0.858225 0.814086 -0.839651
v -0.876891 0.814372 -0.816198
v -0.895557 0.814086 -0.792745
v -0.856952 0.816363 -0.838638
v -0.875618 0.816679 -0.815185
v -0.894284 0.816363 -0.791732
v -0.866482 0.841630 -0.846222
v -0.885147 0.843148 -0.822769
v -0.903813 0.841630 -0.799316
v -0.899055 0.841049 -0.795529
v -0.880389 0.842567 -0.818982
v -0.861723 0.841049 -0.842435
v -0.895557 0.839451 -0.792745
v -0.876891 0.840969 -0.816198
v -0.858225 0.839451 -0.839651
v -0.894284 0.837269 -0.791732
v -0.875618 0.838782 -0.815185
v -0.856952 0.837269 -0.838638
vn 0.7824 0.0000 0.6227
vn 0.6227 0.0000 -0.7824
vn 0.0000 1.0000 0.0000
vn -0.6227 0.0000 0.7824
vn -0.7824 0.0000 -0.6227
vn 0.4769 0.0000 0.8790
vn -0.9636 0.0000 -0.2675
vn -0.4769 0.0000 -0.8790
vn 0.9636 0.0000 0.2675
vn 0.0000 -1.0000 0.0000
vn -0.0589 0.9955 0.0740
vn 0.0945 -0.9943 0.0495
vn 0.2770 -0.9395 0.2014
vn 0.5985 -0.5893 0.5427
vn 0.3903 -0.6316 0.6699
vn -0.0567 -0.8321 0.5517
vn 0.0088 -0.9868 0.1618
vn 0.1998 -0.9343 0.2952
vn 0.5228 0.6169 0.5883
vn 0.1890 0.9353 0.2992
vn 0.0004 0.9885 0.1513
vn -0.0375 0.9743 0.2220
vn -0.0699 0.8246 0.5614
vn 0.3469 0.6327 0.6924
vn 0.1423 0.9250 0.3524
vn -0.0700 -0.9942 -0.0820
vn -0.1622 -0.9866 0.0147
vn -0.5249 -0.8321 0.1790
vn -0.7470 -0.6243 -0.2283
vn -0.6632 -0.5893 -0.4615
vn -0.2612 -0.9379 -0.2282
vn -0.3325 -0.9343 -0.1285
vn -0.1511 0.9882 0.0268
vn -0.3341 0.9352 -0.1173
vn -0.7082 0.5925 -0.3838
vn -0.7608 0.6232 -0.1812
vn -0.5313 0.8246 0.1941
vn -0.2100 0.9747 0.0761
vn -0.3753 0.9250 -0.0596
vn 0.0700 -0.9942 0.0820
vn 0.1622 -0.9867 -0.0147
vn 0.5249 -0.8321 -0.1790
vn 0.7471 -0.6243 0.2283
vn 0.6631 -0.5894 0.4614
vn 0.2612 -0.9379 0.2281
vn 0.3325 -0.9343 0.1285
vn 0.1511 0.9882 -0.0268
vn 0.3341 0.9352 0.1173
vn 0.7083 0.5925 0.3838
vn 0.7608 0.6232 0.1812
vn 0.5314 0.8246 -0.1941
vn 0.2100 0.9747 -0.0761
vn 0.3753 0.9250 0.0596
vn -0.0945 -0.9943 -0.0495
vn -0.2770 -0.9395 -0.2014
vn -0.5985 -0.5893 -0.5427
vn -0.3903 -0.6316 -0.6699
vn 0.0567 -0.8321 -0.5517
vn -0.0088 -0.9868 -0.1619
vn -0.1998 -0.9343 -0.2952
vn -0.0004 0.9885 -0.1513
vn 0.0375 0.9743 -0.2220
vn 0.0699 0.8246 -0.5614
vn -0.3469 0.6327 -0.6924
vn -0.5228 0.6169 -0.5883
vn -0.1890 0.9353 -0.2992
vn -0.1423 0.9250 -0.3523
vn 0.0126 -0.9998 -0.0158
vn -0.0759 -0.9925 0.0953
vn -0.3047 -0.8721 0.3829
vn 0.7072 0.0000 0.7070
vn -0.1096 0.0000 0.9940
vn -0.0720 0.9933 0.0905
vn -0.1193 0.9815 0.1499
vn -0.3146 0.8630 0.3953
vn -0.8477 0.0000 -0.5305
vn -0.9440 0.0000 0.3299
vn -0.0853 -0.9932 -0.0797
vn -0.2722 -0.9344 -0.2298
vn -0.6320 -0.5814 -0.5124
vn -0.0155 0.9910 -0.1327
vn -0.2067 0.9379 -0.2785
vn -0.5910 0.5967 -0.5428
vn 0.1097 0.0000 -0.9940
vn -0.7072 0.0000 -0.7070
vn -0.0126 -0.9998 0.0158
vn 0.0759 -0.9925 -0.0953
vn 0.3047 -0.8721 -0.3829
vn 0.0720 0.9933 -0.0905
vn 0.1193 0.9815 -0.1499
vn 0.3146 0.8630 -0.3953
vn 0.8477 0.0000 0.5304
vn 0.9440 0.0000 -0.3299
vn 0.0853 -0.9932 0.0797
vn 0.2722 -0.9344 0.2298
vn 0.6320 -0.5814 0.5124
vn 0.0155 0.9910 0.1327
vn 0.2068 0.9379 0.2785
vn 0.5910 0.5967 0.5428
vn -0.0044 -1.0000 0.0056
vn 0.0044 -1.0000 -0.0056
vn 0.0046 -1.0000 -0.0058
vn -0.0046 -1.0000 0.0058
vn 0.6611 0.5975 0.4537
vn 0.6458 0.5974 0.4755
vn 0.6087 0.5967 0.5230
vn 0.3178 0.9379 0.1390
vn 0.2927 0.9406 0.1721
vn 0.2334 0.9406 0.2466
vn 0.1328 0.9910 -0.0147
vn 0.1057 0.9942 0.0198
vn 0.0430 0.9942 0.0986
vn 0.6357 -0.5901 0.4976
vn 0.6400 -0.5814 0.5023
vn 0.6356 -0.5764 0.5136
vn 0.2765 -0.9380 0.2089
vn 0.2836 -0.9344 0.2155
vn 0.2773 -0.9324 0.2320
vn 0.0872 -0.9944 0.0604
vn 0.0956 -0.9932 0.0668
vn 0.0903 -0.9925 0.0827
vn -0.6612 0.5975 -0.4537
vn -0.6333 0.5976 -0.4917
vn -0.6837 0.4515 -0.5733
vn -0.3178 0.9379 -0.1390
vn -0.2927 0.9406 -0.1721
vn -0.2334 0.9406 -0.2466
vn -0.1328 0.9910 0.0147
vn -0.1057 0.9942 -0.0198
vn -0.0430 0.9942 -0.0986
vn -0.6357 -0.5901 -0.4976
vn -0.6400 -0.5814 -0.5023
vn -0.6356 -0.5764 -0.5136
vn -0.2765 -0.9380 -0.2089
vn -0.2836 -0.9344 -0.2155
vn -0.2773 -0.9324 -0.2320
vn -0.0872 -0.9944 -0.0604
vn -0.0956 -0.9932 -0.0668
vn -0.0903 -0.9925 -0.0827
vn 0.0589 0.9955 -0.0740
vn 0.0315 0.9987 -0.0396
vn -0.0315 0.9987 0.0396
vn 0.0956 -0.9942 0.0498
vn 0.2809 -0.9379 0.2033
vn 0.5822 -0.6144 0.5325
vn 0.3902 -0.6243 0.6767
vn -0.0331 -0.8469 0.5307
vn 0.0221 -0.9867 0.1613
vn 0.5330 0.5925 0.6041
vn 0.1892 0.9352 0.2993
vn 0.0079 0.9882 0.1533
vn -0.0270 0.9747 0.2217
vn -0.0609 0.8307 0.5534
vn 0.3473 0.6232 0.7007
vn -0.0694 -0.9943 -0.0810
vn -0.1597 -0.9868 0.0277
vn -0.5097 -0.8469 0.1513
vn -0.7404 -0.6315 -0.2300
vn -0.6496 -0.6144 -0.4478
vn -0.2584 -0.9395 -0.2247
vn -0.1475 0.9885 0.0335
vn -0.3340 0.9353 -0.1171
vn -0.6906 0.6169 -0.3775
vn -0.7526 0.6327 -0.1826
vn -0.5257 0.8306 0.1835
vn -0.2079 0.9743 0.0864
vn 0.0695 -0.9943 0.0809
vn 0.1597 -0.9868 -0.0277
vn 0.5097 -0.8469 -0.1513
vn 0.7404 -0.6316 0.2300
vn 0.6496 -0.6144 0.4478
vn 0.2584 -0.9395 0.2247
vn 0.1475 0.9885 -0.0335
vn 0.3340 0.9353 0.1171
vn 0.6906 0.6170 0.3774
vn 0.7526 0.6327 0.1826
vn 0.5257 0.8307 -0.1835
vn 0.2079 0.9743 -0.0863
vn -0.0956 -0.9942 -0.0498
vn -0.2810 -0.9379 -0.2033
vn -0.5822 -0.6145 -0.5325
vn -0.3902 -0.6243 -0.6767
vn 0.0331 -0.8469 -0.5307
vn -0.0221 -0.9867 -0.1613
vn -0.0079 0.9882 -0.1533
vn 0.0270 0.9747 -0.2217
vn 0.0609 0.8306 -0.5535
vn -0.3473 0.6232 -0.7007
vn -0.5330 0.5925 -0.6040
vn -0.1892 0.9352 -0.2993
vn -0.0759 -0.9926 0.0953
vn -0.1097 0.0000 0.9940
vn -0.8477 0.0000 -0.5304
vn -0.0784 -0.9944 -0.0715
vn -0.2657 -0.9380 -0.2225
vn -0.6276 -0.5901 -0.5078
vn -0.2068 0.9379 -0.2785
vn -0.5905 0.5975 -0.5424
vn -0.7072 0.0000 -0.7071
vn 0.0759 -0.9926 -0.0953
vn 0.0784 -0.9944 0.0715
vn 0.2657 -0.9380 0.2225
vn 0.6276 -0.5901 0.5078
vn 0.2067 0.9379 0.2785
vn 0.5905 0.5975 0.5424
vn 0.6616 0.5967 0.4541
vn 0.6463 0.5966 0.4757
vn 0.6082 0.5974 0.5226
vn 0.6412 -0.5814 0.5008
vn 0.6432 -0.5764 0.5041
vn 0.6331 -0.5814 0.5110
vn 0.2850 -0.9344 0.2137
vn 0.2884 -0.9323 0.2181
vn 0.2736 -0.9344 0.2280
vn 0.0968 -0.9932 0.0653
vn 0.1008 -0.9925 0.0694
vn 0.0865 -0.9932 0.0782
vn -0.6616 0.5967 -0.4541
vn -0.7122 0.4515 -0.5376
vn -0.6213 0.5976 -0.5068
vn -0.6412 -0.5814 -0.5008
vn -0.6432 -0.5763 -0.5041
vn -0.6331 -0.5814 -0.5110
vn -0.2850 -0.9344 -0.2137
vn -0.2884 -0.9324 -0.2181
vn -0.2736 -0.9344 -0.2280
vn -0.0968 -0.9932 -0.0653
vn -0.1008 -0.9925 -0.0694
vn -0.0865 -0.9932 -0.0782
usemtl None
s off
f 11//1 1//1 10//1
f 15//2 9//2 14//2
f 8//3 4//3 7//3
f 3//4 5//4 2//4
f 7//5 13//5 6//5
f 4//6 2//6 1//6
f 6//7 8//7 7//7
f 14//8 16//8 15//8
f 10//9 12//9 11//9
f 14//10 10//10 13//10
f 148//1 29//1 18//1
f 102//2 66//2 91//2
f 53//11 151//11 125//11
f 31//4 42//4 19//4
f 124//5 103//5 90//5
f 17//12 22//12 21//12
f 20//13 25//13 22//13
f 23//14 24//14 18//14
f 23//15 28//15 25//15
f 26//16 27//16 19//16
f 21//17 28//17 26//17
f 22//18 25//18 28//18
f 29//19 34//19 33//19
f 36//20 34//20 32//20
f 30//21 37//21 36//21
f 35//22 40//22 37//22
f 38//23 39//23 31//23
f 33//24 40//24 38//24
f 34//25 37//25 40//25
f 41//26 46//26 45//26
f 44//27 49//27 46//27
f 47//28 48//28 42//28
f 51//29 49//29 47//29
f 50//30 51//30 43//30
f 45//31 52//31 50//31
f 46//32 49//32 52//32
f 53//33 58//33 57//33
f 56//34 61//34 58//34
f 54//35 61//35 60//35
f 59//36 64//36 61//36
f 62//37 63//37 55//37
f 57//38 64//38 62//38
f 58//39 61//39 64//39
f 65//40 70//40 69//40
f 68//41 73//41 70//41
f 71//42 72//42 66//42
f 75//43 73//43 71//43
f 74//44 75//44 67//44
f 69//45 76//45 74//45
f 70//46 73//46 76//46
f 77//47 82//47 81//47
f 80//48 85//48 82//48
f 78//49 85//49 84//49
f 83//50 88//50 85//50
f 86//51 87//51 79//51
f 81//52 88//52 86//52
f 82//53 85//53 88//53
f 89//54 94//54 93//54
f 92//55 97//55 94//55
f 95//56 96//56 90//56
f 95//57 100//57 97//57
f 98//58 99//58 91//58
f 93//59 100//59 98//59
f 94//60 97//60 100//60
f 101//61 106//61 105//61
f 104//62 109//62 106//62
f 107//63 108//63 102//63
f 111//64 109//64 107//64
f 103//65 112//65 111//65
f 105//66 112//66 110//66
f 106//67 109//67 112//67
f 17//68 44//68 41//68
f 44//69 26//69 48//69
f 48//70 19//70 42//70
f 18//71 33//71 23//71
f 23//6 38//6 27//6
f 27//72 31//72 19//72
f 53//73 35//73 30//73
f 57//74 39//74 35//74
f 62//75 31//75 39//75
f 43//76 59//76 54//76
f 51//7 63//7 59//7
f 47//77 55//77 63//77
f 115//78 45//78 116//78
f 116//79 50//79 119//79
f 119//80 43//80 122//80
f 101//81 128//81 127//81
f 105//82 131//82 128//82
f 110//83 134//83 131//83
f 102//84 99//84 107//84
f 107//8 95//8 111//8
f 111//85 90//85 103//85
f 89//86 68//86 65//86
f 68//87 98//87 72//87
f 72//88 91//88 66//88
f 77//89 104//89 101//89
f 104//90 86//90 108//90
f 86//91 102//91 108//91
f 67//92 83//92 78//92
f 75//9 87//9 83//9
f 71//93 79//93 87//93
f 139//94 69//94 140//94
f 140//95 74//95 143//95
f 143//96 67//96 146//96
f 30//97 152//97 151//97
f 36//98 155//98 152//98
f 32//99 158//99 155//99
f 89//100 139//100 113//100
f 41//101 137//101 17//101
f 114//102 137//102 115//102
f 113//103 138//103 114//103
f 84//104 160//104 78//104
f 157//105 159//105 160//105
f 155//106 159//106 156//106
f 80//107 157//107 84//107
f 154//108 156//108 157//108
f 152//109 156//109 153//109
f 77//110 154//110 80//110
f 149//111 153//111 154//111
f 151//112 153//112 150//112
f 145//113 18//113 24//113
f 144//114 148//114 145//114
f 144//115 146//115 147//115
f 142//116 24//116 20//116
f 141//117 145//117 142//117
f 141//118 143//118 144//118
f 137//119 20//119 17//119
f 138//120 142//120 137//120
f 138//121 140//121 141//121
f 60//122 136//122 54//122
f 133//123 135//123 136//123
f 131//124 135//124 132//124
f 56//125 133//125 60//125
f 130//126 132//126 133//126
f 128//127 132//127 129//127
f 53//128 130//128 56//128
f 125//129 129//129 130//129
f 127//130 129//130 126//130
f 121//131 90//131 96//131
f 120//132 124//132 121//132
f 120//133 122//133 123//133
f 118//134 96//134 92//134
f 117//135 121//135 118//135
f 117//136 119//136 120//136
f 113//137 92//137 89//137
f 114//138 118//138 113//138
f 114//139 116//139 117//139
f 54//5 122//5 43//5
f 136//5 123//5 122//5
f 123//5 134//5 124//5
f 101//140 149//140 77//140
f 126//141 149//141 127//141
f 125//142 150//142 126//142
f 78//1 146//1 67//1
f 160//1 147//1 146//1
f 147//1 158//1 148//1
f 11//1 4//1 1//1
f 15//2 12//2 9//2
f 12//3 15//3 16//3
f 16//3 7//3 4//3
f 8//3 3//3 4//3
f 4//3 11//3 16//3
f 12//3 16//3 11//3
f 3//4 8//4 5//4
f 7//5 16//5 13//5
f 4//6 3//6 2//6
f 6//7 5//7 8//7
f 14//8 13//8 16//8
f 10//9 9//9 12//9
f 2//10 5//10 6//10
f 6//10 13//10 10//10
f 14//10 9//10 10//10
f 10//10 1//10 6//10
f 2//10 6//10 1//10
f 148//1 158//1 29//1
f 102//2 79//2 66//2
f 53//11 30//11 151//11
f 31//4 55//4 42//4
f 124//5 134//5 103//5
f 17//143 20//143 22//143
f 20//144 24//144 25//144
f 23//145 25//145 24//145
f 23//146 27//146 28//146
f 26//147 28//147 27//147
f 21//148 22//148 28//148
f 29//149 32//149 34//149
f 36//150 37//150 34//150
f 30//151 35//151 37//151
f 35//152 39//152 40//152
f 38//153 40//153 39//153
f 33//154 34//154 40//154
f 41//155 44//155 46//155
f 44//156 48//156 49//156
f 47//157 49//157 48//157
f 51//158 52//158 49//158
f 50//159 52//159 51//159
f 45//160 46//160 52//160
f 53//161 56//161 58//161
f 56//162 60//162 61//162
f 54//163 59//163 61//163
f 59//164 63//164 64//164
f 62//165 64//165 63//165
f 57//166 58//166 64//166
f 65//167 68//167 70//167
f 68//168 72//168 73//168
f 71//169 73//169 72//169
f 75//170 76//170 73//170
f 74//171 76//171 75//171
f 69//172 70//172 76//172
f 77//173 80//173 82//173
f 80//174 84//174 85//174
f 78//175 83//175 85//175
f 83//176 87//176 88//176
f 86//177 88//177 87//177
f 81//178 82//178 88//178
f 89//179 92//179 94//179
f 92//180 96//180 97//180
f 95//181 97//181 96//181
f 95//182 99//182 100//182
f 98//183 100//183 99//183
f 93//184 94//184 100//184
f 101//185 104//185 106//185
f 104//186 108//186 109//186
f 107//187 109//187 108//187
f 111//188 112//188 109//188
f 103//189 110//189 112//189
f 105//190 106//190 112//190
f 17//68 21//68 44//68
f 44//191 21//191 26//191
f 48//70 26//70 19//70
f 18//71 29//71 33//71
f 23//6 33//6 38//6
f 27//192 38//192 31//192
f 53//73 57//73 35//73
f 57//74 62//74 39//74
f 62//75 55//75 31//75
f 43//193 51//193 59//193
f 51//7 47//7 63//7
f 47//77 42//77 55//77
f 115//194 41//194 45//194
f 116//195 45//195 50//195
f 119//196 50//196 43//196
f 101//81 105//81 128//81
f 105//197 110//197 131//197
f 110//198 103//198 134//198
f 102//84 91//84 99//84
f 107//8 99//8 95//8
f 111//199 95//199 90//199
f 89//86 93//86 68//86
f 68//200 93//200 98//200
f 72//88 98//88 91//88
f 77//89 81//89 104//89
f 104//90 81//90 86//90
f 86//91 79//91 102//91
f 67//92 75//92 83//92
f 75//9 71//9 87//9
f 71//93 66//93 79//93
f 139//201 65//201 69//201
f 140//202 69//202 74//202
f 143//203 74//203 67//203
f 30//97 36//97 152//97
f 36//204 32//204 155//204
f 32//205 29//205 158//205
f 89//100 65//100 139//100
f 41//101 115//101 137//101
f 114//102 138//102 137//102
f 113//103 139//103 138//103
f 84//206 157//206 160//206
f 157//207 156//207 159//207
f 155//208 158//208 159//208
f 80//107 154//107 157//107
f 154//108 153//108 156//108
f 152//109 155//109 156//109
f 77//110 149//110 154//110
f 149//111 150//111 153//111
f 151//112 152//112 153//112
f 145//209 148//209 18//209
f 144//210 147//210 148//210
f 144//211 143//211 146//211
f 142//212 145//212 24//212
f 141//213 144//213 145//213
f 141//214 140//214 143//214
f 137//215 142//215 20//215
f 138//216 141//216 142//216
f 138//217 139//217 140//217
f 60//218 133//218 136//218
f 133//219 132//219 135//219
f 131//220 134//220 135//220
f 56//125 130//125 133//125
f 130//126 129//126 132//126
f 128//127 131//127 132//127
f 53//128 125//128 130//128
f 125//129 126//129 129//129
f 127//130 128//130 129//130
f 121//221 124//221 90//221
f 120//222 123//222 124//222
f 120//223 119//223 122//223
f 118//224 121//224 96//224
f 117//225 120//225 121//225
f 117//226 116//226 119//226
f 113//227 118//227 92//227
f 114//228 117//228 118//228
f 114//229 115//229 116//229
f 54//5 136//5 122//5
f 136//5 135//5 123//5
f 123//5 135//5 134//5
f 101//140 127//140 149//140
f 126//141 150//141 149//141
f 125//142 151//142 150//142
f 78//1 160//1 146//1
f 160//1 159//1 147//1
f 147//1 159//1 158//1
