# Blender v2.79 (sub 0) OBJ File: 'pokoj scalone sprzety.blend'
# www.blender.org
mtllib sznurki do obrazow.mtl
o NurbsPath.003
v -3.190705 2.343804 -1.874214
v -3.192184 2.342510 -1.873471
v -3.190692 2.341256 -1.872688
v -3.189214 2.342550 -1.873430
v -3.192552 2.396169 -1.787384
v -3.194031 2.394880 -1.786633
v -3.192540 2.393630 -1.785842
v -3.191061 2.394919 -1.786593
v -3.193808 2.430731 -1.730862
v -3.195287 2.429443 -1.730109
v -3.193796 2.428198 -1.729310
v -3.192317 2.429486 -1.730063
v -3.194763 2.452873 -1.694772
v -3.196241 2.451576 -1.694035
v -3.194750 2.450330 -1.693238
v -3.193272 2.451627 -1.693975
v -3.195549 2.466358 -1.672016
v -3.197025 2.465022 -1.671345
v -3.195532 2.463750 -1.670593
v -3.194056 2.465086 -1.671263
v -3.196170 2.473439 -1.657808
v -3.197635 2.471992 -1.657397
v -3.196133 2.470618 -1.656878
v -3.194668 2.472066 -1.657290
v -3.196606 2.475092 -1.648026
v -3.198046 2.473580 -1.648256
v -3.196518 2.472143 -1.648374
v -3.195078 2.473655 -1.648143
v -3.196826 2.471267 -1.639081
v -3.198251 2.469958 -1.639898
v -3.196708 2.468732 -1.640624
v -3.195283 2.470041 -1.639806
v -3.196846 2.461488 -1.627103
v -3.198270 2.460314 -1.628106
v -3.196726 2.459238 -1.629039
v -3.195302 2.460412 -1.628036
v -3.196586 2.441085 -1.604545
v -3.198010 2.439934 -1.605574
v -3.196466 2.438895 -1.606548
v -3.195042 2.440046 -1.605519
v -3.195567 2.395292 -1.554925
v -3.196991 2.394146 -1.555959
v -3.195448 2.393122 -1.556950
v -3.194024 2.394268 -1.555915
v -3.192861 2.298118 -1.451524
v -3.194286 2.296978 -1.452565
v -3.192743 2.295965 -1.453568
v -3.191319 2.297105 -1.452527
vn -0.0040 0.8547 -0.5191
vn 0.9998 0.0121 0.0142
vn -0.0043 0.8563 -0.5164
vn -0.9998 -0.0144 -0.0130
vn -0.9998 -0.0140 -0.0127
vn 0.0041 -0.8562 0.5166
vn 0.0043 -0.8547 0.5190
vn 0.9998 0.0140 0.0157
vn 0.9998 0.0119 0.0144
vn -0.9998 -0.0148 -0.0154
vn 0.0050 -0.8527 0.5224
vn -0.0032 0.8527 -0.5224
vn 0.9996 0.0200 0.0184
vn -0.9996 -0.0141 -0.0219
vn 0.0059 -0.8562 0.5166
vn -0.0025 0.8563 -0.5164
vn 0.9991 0.0355 0.0201
vn -0.9993 -0.0071 -0.0351
vn 0.0078 -0.8776 0.4793
vn -0.0034 0.8780 -0.4787
vn 0.9961 0.0865 0.0171
vn -0.9978 0.0369 -0.0551
vn 0.0145 -0.9487 0.3157
vn -0.0108 0.9500 -0.3121
vn 0.9869 0.1522 0.0526
vn -0.9945 0.1016 -0.0227
vn 0.0281 -0.9927 -0.1173
vn -0.0418 0.8539 0.5188
vn -0.0305 0.9926 0.1171
vn -0.9997 0.0253 -0.0002
vn 0.9948 0.0808 0.0618
vn -0.0421 0.7573 0.6516
vn 0.0372 -0.8520 -0.5222
vn -0.9995 -0.0244 -0.0165
vn 0.9987 0.0416 0.0307
vn -0.0416 0.7373 0.6742
vn 0.0386 -0.7571 -0.6522
vn -0.9992 -0.0360 -0.0169
vn 0.9990 0.0393 0.0199
vn -0.0408 0.7307 0.6814
vn -0.9991 -0.0394 -0.0134
vn 0.0388 -0.7374 -0.6743
vn 0.0392 -0.7307 -0.6815
vn -0.0404 0.7276 0.6848
vn 0.9990 0.0425 0.0162
vn -0.9991 -0.0408 -0.0121
vn 0.0395 -0.7277 -0.6847
vn 0.9989 0.0435 0.0147
usemtl Material.017
s 1
f 5//1 4//2 1//3
f 6//4 1//3 2//5
f 3//6 6//4 2//5
f 4//2 7//7 3//6
f 5//1 12//8 8//9
f 10//10 5//1 6//4
f 11//11 6//4 7//7
f 8//9 11//11 7//7
f 9//12 16//13 12//8
f 14//14 9//12 10//10
f 15//15 10//10 11//11
f 12//8 15//15 11//11
f 13//16 20//17 16//13
f 18//18 13//16 14//14
f 19//19 14//14 15//15
f 16//13 19//19 15//15
f 17//20 24//21 20//17
f 22//22 17//20 18//18
f 23//23 18//18 19//19
f 20//17 23//23 19//19
f 21//24 28//25 24//21
f 26//26 21//24 22//22
f 27//27 22//22 23//23
f 24//21 27//27 23//23
f 29//28 28//25 25//29
f 26//26 29//28 25//29
f 27//27 30//30 26//26
f 32//31 27//27 28//25
f 33//32 32//31 29//28
f 30//30 33//32 29//28
f 31//33 34//34 30//30
f 36//35 31//33 32//31
f 37//36 36//35 33//32
f 34//34 37//36 33//32
f 35//37 38//38 34//34
f 40//39 35//37 36//35
f 41//40 40//39 37//36
f 42//41 37//36 38//38
f 39//42 42//41 38//38
f 40//39 43//43 39//42
f 45//44 44//45 41//40
f 46//46 41//40 42//41
f 43//43 46//46 42//41
f 44//45 47//47 43//43
f 5//1 8//9 4//2
f 6//4 5//1 1//3
f 3//6 7//7 6//4
f 4//2 8//9 7//7
f 5//1 9//12 12//8
f 10//10 9//12 5//1
f 11//11 10//10 6//4
f 8//9 12//8 11//11
f 9//12 13//16 16//13
f 14//14 13//16 9//12
f 15//15 14//14 10//10
f 12//8 16//13 15//15
f 13//16 17//20 20//17
f 18//18 17//20 13//16
f 19//19 18//18 14//14
f 16//13 20//17 19//19
f 17//20 21//24 24//21
f 22//22 21//24 17//20
f 23//23 22//22 18//18
f 20//17 24//21 23//23
f 21//24 25//29 28//25
f 26//26 25//29 21//24
f 27//27 26//26 22//22
f 24//21 28//25 27//27
f 29//28 32//31 28//25
f 26//26 30//30 29//28
f 27//27 31//33 30//30
f 32//31 31//33 27//27
f 33//32 36//35 32//31
f 30//30 34//34 33//32
f 31//33 35//37 34//34
f 36//35 35//37 31//33
f 37//36 40//39 36//35
f 34//34 38//38 37//36
f 35//37 39//42 38//38
f 40//39 39//42 35//37
f 41//40 44//45 40//39
f 42//41 41//40 37//36
f 39//42 43//43 42//41
f 40//39 44//45 43//43
f 45//44 48//48 44//45
f 46//46 45//44 41//40
f 43//43 47//47 46//46
f 44//45 48//48 47//47
o NurbsPath.002
v -3.189912 2.319071 -0.878755
v -3.191404 2.317882 -0.877876
v -3.189925 2.316707 -0.876957
v -3.188434 2.317895 -0.877836
v -3.191236 2.380727 -0.798247
v -3.192728 2.379543 -0.797360
v -3.191249 2.378374 -0.796433
v -3.189758 2.379557 -0.797320
v -3.192147 2.421335 -0.745892
v -3.193638 2.420153 -0.745003
v -3.192160 2.418988 -0.744070
v -3.190668 2.420170 -0.744958
v -3.192880 2.447338 -0.712471
v -3.194371 2.446145 -0.711596
v -3.192893 2.444979 -0.710665
v -3.191401 2.446172 -0.711539
v -3.193531 2.463262 -0.691345
v -3.195020 2.462023 -0.690533
v -3.193540 2.460827 -0.689643
v -3.192051 2.462066 -0.690455
v -3.194082 2.471876 -0.678007
v -3.195561 2.470497 -0.677440
v -3.194073 2.469175 -0.676772
v -3.192593 2.470554 -0.677339
v -3.194501 2.474604 -0.668468
v -3.195956 2.473090 -0.668532
v -3.194443 2.471634 -0.668488
v -3.192988 2.473148 -0.668424
v -3.194759 2.471794 -0.659155
v -3.196197 2.470417 -0.659825
v -3.194667 2.469102 -0.660409
v -3.193229 2.470479 -0.659739
v -3.194877 2.463398 -0.646170
v -3.196312 2.462135 -0.647039
v -3.194779 2.460948 -0.647845
v -3.193344 2.462211 -0.646977
v -3.194820 2.445612 -0.621496
v -3.196256 2.444369 -0.622392
v -3.194723 2.443213 -0.623244
v -3.193287 2.444457 -0.622347
v -3.194259 2.405576 -0.567118
v -3.195695 2.404337 -0.568021
v -3.194162 2.403194 -0.568890
v -3.192726 2.404433 -0.567987
v -3.192525 2.320403 -0.453609
v -3.193961 2.319169 -0.454518
v -3.192428 2.318036 -0.455401
v -3.190992 2.319270 -0.454492
vn 0.0045 0.7920 -0.6104
vn 0.9999 0.0032 0.0138
vn 0.0043 0.7939 -0.6079
vn -0.9999 -0.0058 -0.0125
vn -0.9999 -0.0056 -0.0122
vn -0.0044 -0.7941 0.6077
vn -0.0042 -0.7920 0.6104
vn 0.9998 0.0057 0.0152
vn 0.9999 0.0036 0.0141
vn -0.9998 -0.0063 -0.0148
vn -0.0036 -0.7897 0.6135
vn 0.0053 0.7897 -0.6134
vn 0.9998 0.0120 0.0172
vn -0.9997 -0.0065 -0.0213
vn -0.0027 -0.7939 0.6080
vn 0.0060 0.7940 -0.6079
vn 0.9995 0.0276 0.0172
vn -0.9994 -0.0012 -0.0352
vn -0.0009 -0.8193 0.5734
vn 0.0053 0.8196 -0.5728
vn 0.9969 0.0779 0.0085
vn -0.9974 0.0405 -0.0599
vn 0.0051 -0.9081 0.4186
vn -0.0012 0.9098 -0.4151
vn 0.9884 0.1473 0.0365
vn -0.9935 0.1085 -0.0349
vn 0.0183 -0.9998 -0.0068
vn -0.0333 0.9063 0.4213
vn -0.0205 0.9998 0.0066
vn -0.9994 0.0349 -0.0041
vn 0.9955 0.0773 0.0536
vn -0.0346 0.8251 0.5639
vn 0.0287 -0.9048 -0.4249
vn -0.9998 -0.0162 -0.0148
vn 0.9990 0.0348 0.0270
vn -0.0342 0.8077 0.5886
vn 0.0310 -0.8249 -0.5644
vn -0.9995 -0.0276 -0.0139
vn 0.9994 0.0313 0.0165
vn -0.0336 0.8018 0.5965
vn -0.9995 -0.0308 -0.0100
vn 0.0313 -0.8077 -0.5887
vn 0.0319 -0.8019 -0.5965
vn -0.0332 0.7992 0.6002
vn 0.9993 0.0340 0.0126
vn -0.9994 -0.0320 -0.0088
vn 0.0322 -0.7992 -0.6002
vn 0.9993 0.0349 0.0110
usemtl Material.017
s 1
f 53//49 52//50 49//51
f 54//52 49//51 50//53
f 51//54 54//52 50//53
f 52//50 55//55 51//54
f 53//49 60//56 56//57
f 58//58 53//49 54//52
f 59//59 54//52 55//55
f 56//57 59//59 55//55
f 57//60 64//61 60//56
f 62//62 57//60 58//58
f 63//63 58//58 59//59
f 60//56 63//63 59//59
f 61//64 68//65 64//61
f 66//66 61//64 62//62
f 67//67 62//62 63//63
f 64//61 67//67 63//63
f 65//68 72//69 68//65
f 70//70 65//68 66//66
f 71//71 66//66 67//67
f 68//65 71//71 67//67
f 69//72 76//73 72//69
f 74//74 69//72 70//70
f 75//75 70//70 71//71
f 72//69 75//75 71//71
f 77//76 76//73 73//77
f 74//74 77//76 73//77
f 75//75 78//78 74//74
f 80//79 75//75 76//73
f 81//80 80//79 77//76
f 78//78 81//80 77//76
f 79//81 82//82 78//78
f 84//83 79//81 80//79
f 85//84 84//83 81//80
f 82//82 85//84 81//80
f 83//85 86//86 82//82
f 88//87 83//85 84//83
f 89//88 88//87 85//84
f 90//89 85//84 86//86
f 87//90 90//89 86//86
f 88//87 91//91 87//90
f 93//92 92//93 89//88
f 94//94 89//88 90//89
f 91//91 94//94 90//89
f 92//93 95//95 91//91
f 53//49 56//57 52//50
f 54//52 53//49 49//51
f 51//54 55//55 54//52
f 52//50 56//57 55//55
f 53//49 57//60 60//56
f 58//58 57//60 53//49
f 59//59 58//58 54//52
f 56//57 60//56 59//59
f 57//60 61//64 64//61
f 62//62 61//64 57//60
f 63//63 62//62 58//58
f 60//56 64//61 63//63
f 61//64 65//68 68//65
f 66//66 65//68 61//64
f 67//67 66//66 62//62
f 64//61 68//65 67//67
f 65//68 69//72 72//69
f 70//70 69//72 65//68
f 71//71 70//70 66//66
f 68//65 72//69 71//71
f 69//72 73//77 76//73
f 74//74 73//77 69//72
f 75//75 74//74 70//70
f 72//69 76//73 75//75
f 77//76 80//79 76//73
f 74//74 78//78 77//76
f 75//75 79//81 78//78
f 80//79 79//81 75//75
f 81//80 84//83 80//79
f 78//78 82//82 81//80
f 79//81 83//85 82//82
f 84//83 83//85 79//81
f 85//84 88//87 84//83
f 82//82 86//86 85//84
f 83//85 87//90 86//86
f 88//87 87//90 83//85
f 89//88 92//93 88//87
f 90//89 89//88 85//84
f 87//90 91//91 90//89
f 88//87 92//93 91//91
f 93//92 96//96 92//93
f 94//94 93//92 89//88
f 91//91 95//95 94//94
f 92//93 96//96 95//95
o NurbsPath.001
v 1.031903 1.957926 0.069229
v 1.032783 1.956737 0.070720
v 1.033702 1.955562 0.069242
v 1.032822 1.956751 0.067750
v 1.112412 2.019582 0.070553
v 1.113299 2.018398 0.072044
v 1.114225 2.017229 0.070566
v 1.113339 2.018412 0.069074
v 1.164767 2.060189 0.071463
v 1.165656 2.059007 0.072955
v 1.166589 2.057843 0.071477
v 1.165700 2.059025 0.069985
v 1.198188 2.086193 0.072196
v 1.199063 2.085000 0.073688
v 1.199994 2.083834 0.072209
v 1.199120 2.085027 0.070718
v 1.219314 2.102117 0.072847
v 1.220126 2.100878 0.074337
v 1.221016 2.099682 0.072857
v 1.220204 2.100921 0.071368
v 1.232652 2.110731 0.073398
v 1.233218 2.109352 0.074878
v 1.233887 2.108030 0.073389
v 1.233320 2.109409 0.071910
v 1.242191 2.113459 0.073817
v 1.242127 2.111945 0.075272
v 1.242171 2.110489 0.073759
v 1.242234 2.112003 0.072304
v 1.251503 2.110648 0.074076
v 1.250834 2.109272 0.075514
v 1.250250 2.107957 0.073983
v 1.250919 2.109334 0.072545
v 1.264489 2.102253 0.074194
v 1.263620 2.100990 0.075629
v 1.262813 2.099802 0.074096
v 1.263682 2.101066 0.072660
v 1.289163 2.084467 0.074137
v 1.288266 2.083224 0.075573
v 1.287415 2.082068 0.074039
v 1.288312 2.083312 0.072604
v 1.343541 2.044431 0.073576
v 1.342638 2.043192 0.075012
v 1.341769 2.042049 0.073479
v 1.342672 2.043288 0.072043
v 1.457050 1.959258 0.071841
v 1.456140 1.958024 0.073277
v 1.455257 1.956891 0.071744
v 1.456167 1.958125 0.070309
vn -0.6104 0.7921 -0.0046
vn 0.0138 0.0034 -0.9999
vn -0.6080 0.7939 -0.0042
vn -0.0125 -0.0058 0.9999
vn -0.0121 -0.0056 0.9999
vn 0.6080 -0.7939 0.0044
vn 0.6104 -0.7921 0.0042
vn 0.0152 0.0057 -0.9998
vn 0.0141 0.0036 -0.9999
vn -0.0147 -0.0063 0.9998
vn 0.6134 -0.7897 0.0036
vn -0.6134 0.7897 -0.0052
vn 0.0172 0.0120 -0.9998
vn -0.0213 -0.0066 0.9997
vn 0.6080 -0.7939 0.0027
vn -0.6079 0.7940 -0.0060
vn 0.0172 0.0276 -0.9995
vn -0.0352 -0.0011 0.9994
vn 0.5734 -0.8193 0.0009
vn -0.5728 0.8196 -0.0054
vn 0.0085 0.0779 -0.9969
vn -0.0600 0.0405 0.9974
vn 0.4186 -0.9081 -0.0051
vn -0.4151 0.9097 0.0012
vn 0.0365 0.1473 -0.9884
vn -0.0349 0.1085 0.9935
vn -0.0068 -0.9998 -0.0183
vn 0.4212 0.9063 0.0334
vn 0.0066 0.9998 0.0204
vn -0.0041 0.0350 0.9994
vn 0.0536 0.0773 -0.9955
vn 0.5639 0.8251 0.0346
vn -0.4248 -0.9048 -0.0286
vn -0.0148 -0.0163 0.9998
vn 0.0270 0.0348 -0.9990
vn 0.5886 0.8077 0.0342
vn -0.5644 -0.8249 -0.0311
vn -0.0139 -0.0276 0.9995
vn 0.0166 0.0314 -0.9994
vn 0.5965 0.8019 0.0335
vn -0.0101 -0.0307 0.9995
vn -0.5887 -0.8077 -0.0314
vn -0.5965 -0.8020 -0.0319
vn 0.6002 0.7992 0.0332
vn 0.0125 0.0340 -0.9993
vn -0.0087 -0.0320 0.9994
vn -0.6002 -0.7992 -0.0322
vn 0.0110 0.0350 -0.9993
usemtl Material.017
s 1
f 101//97 100//98 97//99
f 102//100 97//99 98//101
f 99//102 102//100 98//101
f 100//98 103//103 99//102
f 101//97 108//104 104//105
f 106//106 101//97 102//100
f 107//107 102//100 103//103
f 104//105 107//107 103//103
f 105//108 112//109 108//104
f 110//110 105//108 106//106
f 111//111 106//106 107//107
f 108//104 111//111 107//107
f 109//112 116//113 112//109
f 114//114 109//112 110//110
f 115//115 110//110 111//111
f 112//109 115//115 111//111
f 113//116 120//117 116//113
f 118//118 113//116 114//114
f 119//119 114//114 115//115
f 116//113 119//119 115//115
f 117//120 124//121 120//117
f 122//122 117//120 118//118
f 123//123 118//118 119//119
f 120//117 123//123 119//119
f 125//124 124//121 121//125
f 122//122 125//124 121//125
f 123//123 126//126 122//122
f 128//127 123//123 124//121
f 129//128 128//127 125//124
f 126//126 129//128 125//124
f 127//129 130//130 126//126
f 132//131 127//129 128//127
f 133//132 132//131 129//128
f 130//130 133//132 129//128
f 131//133 134//134 130//130
f 136//135 131//133 132//131
f 137//136 136//135 133//132
f 138//137 133//132 134//134
f 135//138 138//137 134//134
f 136//135 139//139 135//138
f 141//140 140//141 137//136
f 142//142 137//136 138//137
f 139//139 142//142 138//137
f 140//141 143//143 139//139
f 101//97 104//105 100//98
f 102//100 101//97 97//99
f 99//102 103//103 102//100
f 100//98 104//105 103//103
f 101//97 105//108 108//104
f 106//106 105//108 101//97
f 107//107 106//106 102//100
f 104//105 108//104 107//107
f 105//108 109//112 112//109
f 110//110 109//112 105//108
f 111//111 110//110 106//106
f 108//104 112//109 111//111
f 109//112 113//116 116//113
f 114//114 113//116 109//112
f 115//115 114//114 110//110
f 112//109 116//113 115//115
f 113//116 117//120 120//117
f 118//118 117//120 113//116
f 119//119 118//118 114//114
f 116//113 120//117 119//119
f 117//120 121//125 124//121
f 122//122 121//125 117//120
f 123//123 122//122 118//118
f 120//117 124//121 123//123
f 125//124 128//127 124//121
f 122//122 126//126 125//124
f 123//123 127//129 126//126
f 128//127 127//129 123//123
f 129//128 132//131 128//127
f 126//126 130//130 129//128
f 127//129 131//133 130//130
f 132//131 131//133 127//129
f 133//132 136//135 132//131
f 130//130 134//134 133//132
f 131//133 135//138 134//134
f 136//135 135//138 131//133
f 137//136 140//141 136//135
f 138//137 137//136 133//132
f 135//138 139//139 138//137
f 136//135 140//141 139//139
f 141//140 144//144 140//141
f 142//142 141//140 137//136
f 139//139 143//143 142//142
f 140//141 144//144 143//143
o NurbsPath
v -2.999788 1.992116 0.058237
v -2.999352 1.990697 0.059722
v -2.998892 1.989284 0.058238
v -2.999328 1.990703 0.056752
v -2.841991 2.043514 0.059560
v -2.841530 2.042104 0.061046
v -2.841044 2.040699 0.059562
v -2.841506 2.042110 0.058076
v -2.743136 2.077801 0.060471
v -2.742653 2.076397 0.061957
v -2.742141 2.075002 0.060473
v -2.742624 2.076405 0.058987
v -2.682442 2.099952 0.061204
v -2.681952 2.098551 0.062690
v -2.681421 2.097162 0.061206
v -2.681912 2.098563 0.059720
v -2.645576 2.113498 0.061853
v -2.645118 2.112086 0.063339
v -2.644604 2.110691 0.061855
v -2.645061 2.112103 0.060369
v -2.623734 2.120600 0.062399
v -2.623452 2.119138 0.063881
v -2.623095 2.117699 0.062393
v -2.623377 2.119161 0.060911
v -2.609845 2.122240 0.062805
v -2.610014 2.120749 0.064275
v -2.610109 2.119282 0.062776
v -2.609939 2.120772 0.061306
v -2.597189 2.118384 0.063055
v -2.597793 2.117002 0.064517
v -2.598345 2.115649 0.063008
v -2.597741 2.117031 0.061547
v -2.578736 2.108253 0.063171
v -2.579475 2.106937 0.064632
v -2.580184 2.105660 0.063122
v -2.579445 2.106977 0.061662
v -2.540528 2.086564 0.063115
v -2.541259 2.085243 0.064575
v -2.541974 2.083970 0.063066
v -2.541244 2.085291 0.061605
v -2.449362 2.036714 0.062554
v -2.450074 2.035382 0.064014
v -2.450779 2.034103 0.062505
v -2.450068 2.035435 0.061044
v -2.250042 1.929405 0.060820
v -2.250746 1.928070 0.062280
v -2.251448 1.926789 0.060770
v -2.250744 1.928125 0.059310
vn -0.3187 0.9478 -0.0008
vn 0.0089 -0.0016 -0.9999
vn -0.3097 0.9508 -0.0005
vn -0.0066 -0.0055 0.9999
vn 0.3097 -0.9508 0.0005
vn -0.0067 -0.0061 0.9999
vn 0.0095 -0.0020 -0.9999
vn 0.0109 -0.0008 -0.9999
vn -0.0085 -0.0059 0.9999
vn 0.3352 -0.9421 0.0002
vn 0.3187 -0.9478 0.0005
vn -0.3352 0.9421 -0.0014
vn 0.0136 0.0034 -0.9999
vn -0.0132 -0.0044 0.9999
vn 0.3439 -0.9390 -0.0002
vn -0.3438 0.9390 -0.0021
vn 0.0165 0.0140 -0.9998
vn -0.0219 0.0020 0.9998
vn 0.3274 -0.9449 -0.0010
vn -0.3272 0.9449 -0.0022
vn 0.0165 0.0504 -0.9986
vn -0.0344 0.0350 0.9988
vn 0.2164 -0.9763 -0.0035
vn -0.2151 0.9766 0.0008
vn 0.0334 0.1002 -0.9944
vn -0.0170 0.0844 0.9963
vn -0.0888 -0.9960 -0.0083
vn 0.3889 0.9211 0.0179
vn 0.0887 0.9960 0.0112
vn -0.0001 0.0324 0.9995
vn 0.0348 0.0522 -0.9980
vn 0.4875 0.8729 0.0180
vn -0.3902 -0.9206 -0.0133
vn -0.0085 -0.0106 0.9999
vn 0.0113 0.0161 -0.9998
vn 0.4867 0.8734 0.0175
vn -0.4877 -0.8729 -0.0150
vn -0.0068 -0.0191 0.9998
vn 0.0034 0.0130 -0.9999
vn 0.0014 0.0164 -0.9998
vn -0.0028 -0.0190 0.9998
vn -0.4769 -0.8788 -0.0160
vn -0.4867 -0.8734 -0.0155
vn 0.4769 0.8787 0.0171
vn 0.0009 0.0179 -0.9998
vn -0.0013 -0.0186 0.9998
vn -0.4741 -0.8803 -0.0162
vn 0.4741 0.8803 0.0169
usemtl Material.017
s 1
f 149//145 148//146 145//147
f 146//148 149//145 145//147
f 147//149 150//150 146//148
f 152//151 147//149 148//146
f 149//145 156//152 152//151
f 154//153 149//145 150//150
f 155//154 150//150 151//155
f 152//151 155//154 151//155
f 153//156 160//157 156//152
f 158//158 153//156 154//153
f 159//159 154//153 155//154
f 156//152 159//159 155//154
f 157//160 164//161 160//157
f 162//162 157//160 158//158
f 163//163 158//158 159//159
f 160//157 163//163 159//159
f 161//164 168//165 164//161
f 166//166 161//164 162//162
f 167//167 162//162 163//163
f 164//161 167//167 163//163
f 165//168 172//169 168//165
f 170//170 165//168 166//166
f 171//171 166//166 167//167
f 168//165 171//171 167//167
f 173//172 172//169 169//173
f 170//170 173//172 169//173
f 171//171 174//174 170//170
f 176//175 171//171 172//169
f 177//176 176//175 173//172
f 174//174 177//176 173//172
f 175//177 178//178 174//174
f 180//179 175//177 176//175
f 181//180 180//179 177//176
f 178//178 181//180 177//176
f 179//181 182//182 178//178
f 184//183 179//181 180//179
f 181//180 188//184 184//183
f 186//185 181//180 182//182
f 187//186 182//182 183//187
f 184//183 187//186 183//187
f 185//188 192//189 188//184
f 190//190 185//188 186//185
f 191//191 186//185 187//186
f 188//184 191//191 187//186
f 149//145 152//151 148//146
f 146//148 150//150 149//145
f 147//149 151//155 150//150
f 152//151 151//155 147//149
f 149//145 153//156 156//152
f 154//153 153//156 149//145
f 155//154 154//153 150//150
f 152//151 156//152 155//154
f 153//156 157//160 160//157
f 158//158 157//160 153//156
f 159//159 158//158 154//153
f 156//152 160//157 159//159
f 157//160 161//164 164//161
f 162//162 161//164 157//160
f 163//163 162//162 158//158
f 160//157 164//161 163//163
f 161//164 165//168 168//165
f 166//166 165//168 161//164
f 167//167 166//166 162//162
f 164//161 168//165 167//167
f 165//168 169//173 172//169
f 170//170 169//173 165//168
f 171//171 170//170 166//166
f 168//165 172//169 171//171
f 173//172 176//175 172//169
f 170//170 174//174 173//172
f 171//171 175//177 174//174
f 176//175 175//177 171//171
f 177//176 180//179 176//175
f 174//174 178//178 177//176
f 175//177 179//181 178//178
f 180//179 179//181 175//177
f 181//180 184//183 180//179
f 178//178 182//182 181//180
f 179//181 183//187 182//182
f 184//183 183//187 179//181
f 181//180 185//188 188//184
f 186//185 185//188 181//180
f 187//186 186//185 182//182
f 184//183 188//184 187//186
f 185//188 189//192 192//189
f 190//190 189//192 185//188
f 191//191 190//190 186//185
f 188//184 192//189 191//191
